<?xml version="1.0" encoding="utf-8" standalone="no"?>
<!DOCTYPE svg PUBLIC "-//W3C//DTD SVG 1.1//EN"
  "http://www.w3.org/Graphics/SVG/1.1/DTD/svg11.dtd">
<svg xmlns:xlink="http://www.w3.org/1999/xlink" width="317.3pt" height="332.55pt" viewBox="0 0 317.3 332.55" xmlns="http://www.w3.org/2000/svg" version="1.1">
 <metadata>
  <rdf:RDF xmlns:dc="http://purl.org/dc/elements/1.1/" xmlns:cc="http://creativecommons.org/ns#" xmlns:rdf="http://www.w3.org/1999/02/22-rdf-syntax-ns#">
   <cc:Work>
    <dc:type rdf:resource="http://purl.org/dc/dcmitype/StillImage"/>
    <dc:date>2026-07-02T19:42:21.651981</dc:date>
    <dc:format>image/svg+xml</dc:format>
    <dc:creator>
     <cc:Agent>
      <dc:title>Matplotlib v3.11.0, https://matplotlib.org/</dc:title>
     </cc:Agent>
    </dc:creator>
   </cc:Work>
  </rdf:RDF>
 </metadata>
 <defs>
  <style type="text/css">*{stroke-linejoin: round; stroke-linecap: butt}</style>
 </defs>
 <g id="figure_1">
  <g id="patch_1">
   <path d="M 0 332.55 
L 317.3 332.55 
L 317.3 0 
L 0 0 
z
" style="fill: #ffffff"/>
  </g>
  <g id="axes_1">
   <g id="patch_2">
    <path d="M 36.5 301.05 
L 313.7 301.05 
L 313.7 23.85 
L 36.5 23.85 
z
" style="fill: #ffffff"/>
   </g>
   <g id="PathCollection_1">
    <defs>
     <path id="C0_0_f82c05dea0" d="M 0 2.738613 
C 0.726289 2.738613 1.422928 2.450055 1.936492 1.936492 
C 2.450055 1.422928 2.738613 0.726289 2.738613 -0 
C 2.738613 -0.726289 2.450055 -1.422928 1.936492 -1.936492 
C 1.422928 -2.450055 0.726289 -2.738613 0 -2.738613 
C -0.726289 -2.738613 -1.422928 -2.450055 -1.936492 -1.936492 
C -2.450055 -1.422928 -2.738613 -0.726289 -2.738613 0 
C -2.738613 0.726289 -2.450055 1.422928 -1.936492 1.936492 
C -1.422928 2.450055 -0.726289 2.738613 0 2.738613 
z
"/>
    </defs>
    <g clip-path="url(#p010daa7811)">
     <use xlink:href="#C0_0_f82c05dea0" x="56.758706" y="278.805147" style="fill: #0c5da5; fill-opacity: 0.8"/>
    </g>
    <g clip-path="url(#p010daa7811)">
     <use xlink:href="#C0_0_f82c05dea0" x="126.935921" y="207.965882" style="fill: #0c5da5; fill-opacity: 0.8"/>
    </g>
    <g clip-path="url(#p010daa7811)">
     <use xlink:href="#C0_0_f82c05dea0" x="118.825818" y="215.910473" style="fill: #0c5da5; fill-opacity: 0.8"/>
    </g>
    <g clip-path="url(#p010daa7811)">
     <use xlink:href="#C0_0_f82c05dea0" x="101.447027" y="232.95824" style="fill: #0c5da5; fill-opacity: 0.8"/>
    </g>
    <g clip-path="url(#p010daa7811)">
     <use xlink:href="#C0_0_f82c05dea0" x="75.296083" y="259.936745" style="fill: #0c5da5; fill-opacity: 0.8"/>
    </g>
    <g clip-path="url(#p010daa7811)">
     <use xlink:href="#C0_0_f82c05dea0" x="145.638811" y="189.09748" style="fill: #0c5da5; fill-opacity: 0.8"/>
    </g>
    <g clip-path="url(#p010daa7811)">
     <use xlink:href="#C0_0_f82c05dea0" x="171.789754" y="162.615512" style="fill: #0c5da5; fill-opacity: 0.8"/>
    </g>
    <g clip-path="url(#p010daa7811)">
     <use xlink:href="#C0_0_f82c05dea0" x="109.888154" y="225.013649" style="fill: #0c5da5; fill-opacity: 0.8"/>
    </g>
    <g clip-path="url(#p010daa7811)">
     <use xlink:href="#C0_0_f82c05dea0" x="118.825818" y="218.393157" style="fill: #0c5da5; fill-opacity: 0.8"/>
    </g>
    <g clip-path="url(#p010daa7811)">
     <use xlink:href="#C0_0_f82c05dea0" x="180.727418" y="154.174385" style="fill: #0c5da5; fill-opacity: 0.8"/>
    </g>
    <g clip-path="url(#p010daa7811)">
     <use xlink:href="#C0_0_f82c05dea0" x="180.561906" y="154.174385" style="fill: #0c5da5; fill-opacity: 0.8"/>
    </g>
    <g clip-path="url(#p010daa7811)">
     <use xlink:href="#C0_0_f82c05dea0" x="83.075161" y="252.157667" style="fill: #0c5da5; fill-opacity: 0.8"/>
    </g>
    <g clip-path="url(#p010daa7811)">
     <use xlink:href="#C0_0_f82c05dea0" x="153.417889" y="180.987378" style="fill: #0c5da5; fill-opacity: 0.8"/>
    </g>
    <g clip-path="url(#p010daa7811)">
     <use xlink:href="#C0_0_f82c05dea0" x="197.775185" y="136.795594" style="fill: #0c5da5; fill-opacity: 0.8"/>
    </g>
    <g clip-path="url(#p010daa7811)">
     <use xlink:href="#C0_0_f82c05dea0" x="268.448937" y="65.625305" style="fill: #0c5da5; fill-opacity: 0.8"/>
    </g>
   </g>
   <g id="matplotlib.axis_1">
    <g id="xtick_1">
     <g id="line2d_1">
      <path d="M 52.78641 301.05 
L 52.78641 23.85 
" clip-path="url(#p010daa7811)" style="fill: none; stroke-dasharray: 0.5,0.825; stroke-dashoffset: 0; stroke: #b0b0b0; stroke-opacity: 0.6; stroke-width: 0.5"/>
     </g>
     <g id="line2d_2">
      <defs>
       <path id="m1305cdfffc" d="M 0 0 
L 0 -3 
" style="stroke: #000000; stroke-width: 0.5"/>
      </defs>
      <g>
       <use xlink:href="#m1305cdfffc" x="52.78641" y="301.05" style="stroke: #000000; stroke-width: 0.5"/>
      </g>
     </g>
     <g id="line2d_3">
      <defs>
       <path id="m8f81ce82ef" d="M 0 0 
L 0 3 
" style="stroke: #000000; stroke-width: 0.5"/>
      </defs>
      <g>
       <use xlink:href="#m8f81ce82ef" x="52.78641" y="23.85" style="stroke: #000000; stroke-width: 0.5"/>
      </g>
     </g>
     <g id="text_1">
      <!-- $\mathdefault{120}$ -->
      <g transform="translate(45.28641 312.05) scale(0.1 -0.1)">
       <defs>
        <path id="STIXGeneral-Regular-14" d="M 2522 0 
L 755 0 
L 755 96 
Q 1107 115 1235 227 
Q 1363 339 1363 608 
L 1363 3482 
Q 1363 3795 1171 3795 
Q 1082 3795 883 3718 
L 710 3654 
L 710 3744 
L 1856 4326 
L 1914 4307 
L 1914 486 
Q 1914 275 2042 185 
Q 2170 96 2522 96 
L 2522 0 
z
" transform="scale(0.015625)"/>
        <path id="STIXGeneral-Regular-15" d="M 3034 877 
L 2688 0 
L 186 0 
L 186 77 
L 1325 1286 
Q 1773 1754 1965 2144 
Q 2157 2534 2157 2950 
Q 2157 3379 1920 3616 
Q 1683 3853 1267 3853 
Q 922 3853 720 3673 
Q 518 3494 326 3021 
L 192 3053 
Q 301 3648 630 3987 
Q 960 4326 1523 4326 
Q 2054 4326 2380 4006 
Q 2707 3686 2707 3200 
Q 2707 2477 1888 1613 
L 832 486 
L 2330 486 
Q 2541 486 2665 569 
Q 2790 653 2944 915 
L 3034 877 
z
" transform="scale(0.015625)"/>
        <path id="STIXGeneral-Regular-13" d="M 3046 2112 
Q 3046 1683 2963 1302 
Q 2880 922 2717 602 
Q 2554 282 2266 96 
Q 1978 -90 1600 -90 
Q 1210 -90 915 108 
Q 621 307 461 640 
Q 301 973 227 1350 
Q 154 1728 154 2150 
Q 154 2746 301 3222 
Q 448 3699 790 4012 
Q 1133 4326 1626 4326 
Q 2253 4326 2649 3712 
Q 3046 3098 3046 2112 
z
M 2432 2080 
Q 2432 3091 2217 3625 
Q 2003 4160 1587 4160 
Q 1190 4160 979 3622 
Q 768 3085 768 2106 
Q 768 1120 979 598 
Q 1190 77 1600 77 
Q 2003 77 2217 598 
Q 2432 1120 2432 2080 
z
" transform="scale(0.015625)"/>
       </defs>
       <use xlink:href="#STIXGeneral-Regular-14" transform="translate(0 0.40625)"/>
       <use xlink:href="#STIXGeneral-Regular-15" transform="translate(49.999954 0.40625)"/>
       <use xlink:href="#STIXGeneral-Regular-13" transform="translate(99.999908 0.40625)"/>
      </g>
     </g>
    </g>
    <g id="xtick_2">
     <g id="line2d_4">
      <path d="M 85.88887 301.05 
L 85.88887 23.85 
" clip-path="url(#p010daa7811)" style="fill: none; stroke-dasharray: 0.5,0.825; stroke-dashoffset: 0; stroke: #b0b0b0; stroke-opacity: 0.6; stroke-width: 0.5"/>
     </g>
     <g id="line2d_5">
      <g>
       <use xlink:href="#m1305cdfffc" x="85.88887" y="301.05" style="stroke: #000000; stroke-width: 0.5"/>
      </g>
     </g>
     <g id="line2d_6">
      <g>
       <use xlink:href="#m8f81ce82ef" x="85.88887" y="23.85" style="stroke: #000000; stroke-width: 0.5"/>
      </g>
     </g>
     <g id="text_2">
      <!-- $\mathdefault{140}$ -->
      <g transform="translate(78.38887 312.05) scale(0.1 -0.1)">
       <defs>
        <path id="STIXGeneral-Regular-17" d="M 3027 1069 
L 2368 1069 
L 2368 0 
L 1869 0 
L 1869 1069 
L 77 1069 
L 77 1478 
L 2086 4326 
L 2368 4326 
L 2368 1478 
L 3027 1478 
L 3027 1069 
z
M 1869 1478 
L 1869 3674 
L 333 1478 
L 1869 1478 
z
" transform="scale(0.015625)"/>
       </defs>
       <use xlink:href="#STIXGeneral-Regular-14" transform="translate(0 0.40625)"/>
       <use xlink:href="#STIXGeneral-Regular-17" transform="translate(49.999954 0.40625)"/>
       <use xlink:href="#STIXGeneral-Regular-13" transform="translate(99.999908 0.40625)"/>
      </g>
     </g>
    </g>
    <g id="xtick_3">
     <g id="line2d_7">
      <path d="M 118.99133 301.05 
L 118.99133 23.85 
" clip-path="url(#p010daa7811)" style="fill: none; stroke-dasharray: 0.5,0.825; stroke-dashoffset: 0; stroke: #b0b0b0; stroke-opacity: 0.6; stroke-width: 0.5"/>
     </g>
     <g id="line2d_8">
      <g>
       <use xlink:href="#m1305cdfffc" x="118.99133" y="301.05" style="stroke: #000000; stroke-width: 0.5"/>
      </g>
     </g>
     <g id="line2d_9">
      <g>
       <use xlink:href="#m8f81ce82ef" x="118.99133" y="23.85" style="stroke: #000000; stroke-width: 0.5"/>
      </g>
     </g>
     <g id="text_3">
      <!-- $\mathdefault{160}$ -->
      <g transform="translate(111.49133 312.05) scale(0.1 -0.1)">
       <defs>
        <path id="STIXGeneral-Regular-19" d="M 2854 4378 
L 2867 4275 
Q 2112 4154 1606 3664 
Q 1101 3174 973 2451 
Q 1344 2739 1786 2739 
Q 2349 2739 2672 2380 
Q 2995 2022 2995 1402 
Q 2995 774 2669 378 
Q 2291 -90 1651 -90 
Q 870 -90 518 557 
Q 218 1107 218 1786 
Q 218 2835 915 3552 
Q 1312 3962 1731 4131 
Q 2150 4301 2854 4378 
z
M 2419 1203 
Q 2419 2445 1555 2445 
Q 1235 2445 1024 2275 
Q 813 2106 813 1702 
Q 813 954 1046 522 
Q 1280 90 1722 90 
Q 2061 90 2240 394 
Q 2419 698 2419 1203 
z
" transform="scale(0.015625)"/>
       </defs>
       <use xlink:href="#STIXGeneral-Regular-14" transform="translate(0 0.59375)"/>
       <use xlink:href="#STIXGeneral-Regular-19" transform="translate(49.999954 0.59375)"/>
       <use xlink:href="#STIXGeneral-Regular-13" transform="translate(99.999908 0.59375)"/>
      </g>
     </g>
    </g>
    <g id="xtick_4">
     <g id="line2d_10">
      <path d="M 152.09379 301.05 
L 152.09379 23.85 
" clip-path="url(#p010daa7811)" style="fill: none; stroke-dasharray: 0.5,0.825; stroke-dashoffset: 0; stroke: #b0b0b0; stroke-opacity: 0.6; stroke-width: 0.5"/>
     </g>
     <g id="line2d_11">
      <g>
       <use xlink:href="#m1305cdfffc" x="152.09379" y="301.05" style="stroke: #000000; stroke-width: 0.5"/>
      </g>
     </g>
     <g id="line2d_12">
      <g>
       <use xlink:href="#m8f81ce82ef" x="152.09379" y="23.85" style="stroke: #000000; stroke-width: 0.5"/>
      </g>
     </g>
     <g id="text_4">
      <!-- $\mathdefault{180}$ -->
      <g transform="translate(144.59379 312.05) scale(0.1 -0.1)">
       <defs>
        <path id="STIXGeneral-Regular-1b" d="M 2848 992 
Q 2848 499 2505 204 
Q 2163 -90 1587 -90 
Q 1050 -90 704 204 
Q 358 499 358 954 
Q 358 1293 524 1533 
Q 691 1773 1190 2125 
Q 710 2522 553 2765 
Q 397 3008 397 3328 
Q 397 3782 745 4054 
Q 1094 4326 1638 4326 
Q 2106 4326 2410 4060 
Q 2714 3795 2714 3411 
Q 2714 3059 2531 2848 
Q 2349 2637 1856 2374 
Q 2432 1990 2640 1689 
Q 2848 1389 2848 992 
z
M 2272 3411 
Q 2272 3744 2086 3945 
Q 1901 4147 1574 4147 
Q 1248 4147 1059 3977 
Q 870 3808 870 3513 
Q 870 3219 1059 2979 
Q 1248 2739 1670 2490 
Q 1997 2682 2134 2896 
Q 2272 3110 2272 3411 
z
M 1734 1741 
L 1357 1997 
Q 1075 1766 960 1545 
Q 845 1325 845 1011 
Q 845 576 1065 333 
Q 1286 90 1658 90 
Q 1971 90 2166 285 
Q 2362 480 2362 794 
Q 2362 1082 2214 1299 
Q 2067 1517 1734 1741 
z
" transform="scale(0.015625)"/>
       </defs>
       <use xlink:href="#STIXGeneral-Regular-14" transform="translate(0 0.40625)"/>
       <use xlink:href="#STIXGeneral-Regular-1b" transform="translate(49.999954 0.40625)"/>
       <use xlink:href="#STIXGeneral-Regular-13" transform="translate(99.999908 0.40625)"/>
      </g>
     </g>
    </g>
    <g id="xtick_5">
     <g id="line2d_13">
      <path d="M 185.19625 301.05 
L 185.19625 23.85 
" clip-path="url(#p010daa7811)" style="fill: none; stroke-dasharray: 0.5,0.825; stroke-dashoffset: 0; stroke: #b0b0b0; stroke-opacity: 0.6; stroke-width: 0.5"/>
     </g>
     <g id="line2d_14">
      <g>
       <use xlink:href="#m1305cdfffc" x="185.19625" y="301.05" style="stroke: #000000; stroke-width: 0.5"/>
      </g>
     </g>
     <g id="line2d_15">
      <g>
       <use xlink:href="#m8f81ce82ef" x="185.19625" y="23.85" style="stroke: #000000; stroke-width: 0.5"/>
      </g>
     </g>
     <g id="text_5">
      <!-- $\mathdefault{200}$ -->
      <g transform="translate(177.69625 312.05) scale(0.1 -0.1)">
       <use xlink:href="#STIXGeneral-Regular-15" transform="translate(0 0.40625)"/>
       <use xlink:href="#STIXGeneral-Regular-13" transform="translate(49.999954 0.40625)"/>
       <use xlink:href="#STIXGeneral-Regular-13" transform="translate(99.999908 0.40625)"/>
      </g>
     </g>
    </g>
    <g id="xtick_6">
     <g id="line2d_16">
      <path d="M 218.29871 301.05 
L 218.29871 23.85 
" clip-path="url(#p010daa7811)" style="fill: none; stroke-dasharray: 0.5,0.825; stroke-dashoffset: 0; stroke: #b0b0b0; stroke-opacity: 0.6; stroke-width: 0.5"/>
     </g>
     <g id="line2d_17">
      <g>
       <use xlink:href="#m1305cdfffc" x="218.29871" y="301.05" style="stroke: #000000; stroke-width: 0.5"/>
      </g>
     </g>
     <g id="line2d_18">
      <g>
       <use xlink:href="#m8f81ce82ef" x="218.29871" y="23.85" style="stroke: #000000; stroke-width: 0.5"/>
      </g>
     </g>
     <g id="text_6">
      <!-- $\mathdefault{220}$ -->
      <g transform="translate(210.79871 312.05) scale(0.1 -0.1)">
       <use xlink:href="#STIXGeneral-Regular-15" transform="translate(0 0.40625)"/>
       <use xlink:href="#STIXGeneral-Regular-15" transform="translate(49.999954 0.40625)"/>
       <use xlink:href="#STIXGeneral-Regular-13" transform="translate(99.999908 0.40625)"/>
      </g>
     </g>
    </g>
    <g id="xtick_7">
     <g id="line2d_19">
      <path d="M 251.40117 301.05 
L 251.40117 23.85 
" clip-path="url(#p010daa7811)" style="fill: none; stroke-dasharray: 0.5,0.825; stroke-dashoffset: 0; stroke: #b0b0b0; stroke-opacity: 0.6; stroke-width: 0.5"/>
     </g>
     <g id="line2d_20">
      <g>
       <use xlink:href="#m1305cdfffc" x="251.40117" y="301.05" style="stroke: #000000; stroke-width: 0.5"/>
      </g>
     </g>
     <g id="line2d_21">
      <g>
       <use xlink:href="#m8f81ce82ef" x="251.40117" y="23.85" style="stroke: #000000; stroke-width: 0.5"/>
      </g>
     </g>
     <g id="text_7">
      <!-- $\mathdefault{240}$ -->
      <g transform="translate(243.90117 312.05) scale(0.1 -0.1)">
       <use xlink:href="#STIXGeneral-Regular-15" transform="translate(0 0.40625)"/>
       <use xlink:href="#STIXGeneral-Regular-17" transform="translate(49.999954 0.40625)"/>
       <use xlink:href="#STIXGeneral-Regular-13" transform="translate(99.999908 0.40625)"/>
      </g>
     </g>
    </g>
    <g id="xtick_8">
     <g id="line2d_22">
      <path d="M 284.50363 301.05 
L 284.50363 23.85 
" clip-path="url(#p010daa7811)" style="fill: none; stroke-dasharray: 0.5,0.825; stroke-dashoffset: 0; stroke: #b0b0b0; stroke-opacity: 0.6; stroke-width: 0.5"/>
     </g>
     <g id="line2d_23">
      <g>
       <use xlink:href="#m1305cdfffc" x="284.50363" y="301.05" style="stroke: #000000; stroke-width: 0.5"/>
      </g>
     </g>
     <g id="line2d_24">
      <g>
       <use xlink:href="#m8f81ce82ef" x="284.50363" y="23.85" style="stroke: #000000; stroke-width: 0.5"/>
      </g>
     </g>
     <g id="text_8">
      <!-- $\mathdefault{260}$ -->
      <g transform="translate(277.00363 312.05) scale(0.1 -0.1)">
       <use xlink:href="#STIXGeneral-Regular-15" transform="translate(0 0.59375)"/>
       <use xlink:href="#STIXGeneral-Regular-19" transform="translate(49.999954 0.59375)"/>
       <use xlink:href="#STIXGeneral-Regular-13" transform="translate(99.999908 0.59375)"/>
      </g>
     </g>
    </g>
    <g id="xtick_9">
     <g id="line2d_25">
      <defs>
       <path id="m68de36eee9" d="M 0 0 
L 0 -1.5 
" style="stroke: #000000; stroke-width: 0.5"/>
      </defs>
      <g>
       <use xlink:href="#m68de36eee9" x="44.510795" y="301.05" style="stroke: #000000; stroke-width: 0.5"/>
      </g>
     </g>
     <g id="line2d_26">
      <defs>
       <path id="m4f20cf2ece" d="M 0 0 
L 0 1.5 
" style="stroke: #000000; stroke-width: 0.5"/>
      </defs>
      <g>
       <use xlink:href="#m4f20cf2ece" x="44.510795" y="23.85" style="stroke: #000000; stroke-width: 0.5"/>
      </g>
     </g>
    </g>
    <g id="xtick_10">
     <g id="line2d_27">
      <g>
       <use xlink:href="#m68de36eee9" x="61.062025" y="301.05" style="stroke: #000000; stroke-width: 0.5"/>
      </g>
     </g>
     <g id="line2d_28">
      <g>
       <use xlink:href="#m4f20cf2ece" x="61.062025" y="23.85" style="stroke: #000000; stroke-width: 0.5"/>
      </g>
     </g>
    </g>
    <g id="xtick_11">
     <g id="line2d_29">
      <g>
       <use xlink:href="#m68de36eee9" x="69.33764" y="301.05" style="stroke: #000000; stroke-width: 0.5"/>
      </g>
     </g>
     <g id="line2d_30">
      <g>
       <use xlink:href="#m4f20cf2ece" x="69.33764" y="23.85" style="stroke: #000000; stroke-width: 0.5"/>
      </g>
     </g>
    </g>
    <g id="xtick_12">
     <g id="line2d_31">
      <g>
       <use xlink:href="#m68de36eee9" x="77.613255" y="301.05" style="stroke: #000000; stroke-width: 0.5"/>
      </g>
     </g>
     <g id="line2d_32">
      <g>
       <use xlink:href="#m4f20cf2ece" x="77.613255" y="23.85" style="stroke: #000000; stroke-width: 0.5"/>
      </g>
     </g>
    </g>
    <g id="xtick_13">
     <g id="line2d_33">
      <g>
       <use xlink:href="#m68de36eee9" x="94.164485" y="301.05" style="stroke: #000000; stroke-width: 0.5"/>
      </g>
     </g>
     <g id="line2d_34">
      <g>
       <use xlink:href="#m4f20cf2ece" x="94.164485" y="23.85" style="stroke: #000000; stroke-width: 0.5"/>
      </g>
     </g>
    </g>
    <g id="xtick_14">
     <g id="line2d_35">
      <g>
       <use xlink:href="#m68de36eee9" x="102.4401" y="301.05" style="stroke: #000000; stroke-width: 0.5"/>
      </g>
     </g>
     <g id="line2d_36">
      <g>
       <use xlink:href="#m4f20cf2ece" x="102.4401" y="23.85" style="stroke: #000000; stroke-width: 0.5"/>
      </g>
     </g>
    </g>
    <g id="xtick_15">
     <g id="line2d_37">
      <g>
       <use xlink:href="#m68de36eee9" x="110.715715" y="301.05" style="stroke: #000000; stroke-width: 0.5"/>
      </g>
     </g>
     <g id="line2d_38">
      <g>
       <use xlink:href="#m4f20cf2ece" x="110.715715" y="23.85" style="stroke: #000000; stroke-width: 0.5"/>
      </g>
     </g>
    </g>
    <g id="xtick_16">
     <g id="line2d_39">
      <g>
       <use xlink:href="#m68de36eee9" x="127.266945" y="301.05" style="stroke: #000000; stroke-width: 0.5"/>
      </g>
     </g>
     <g id="line2d_40">
      <g>
       <use xlink:href="#m4f20cf2ece" x="127.266945" y="23.85" style="stroke: #000000; stroke-width: 0.5"/>
      </g>
     </g>
    </g>
    <g id="xtick_17">
     <g id="line2d_41">
      <g>
       <use xlink:href="#m68de36eee9" x="135.54256" y="301.05" style="stroke: #000000; stroke-width: 0.5"/>
      </g>
     </g>
     <g id="line2d_42">
      <g>
       <use xlink:href="#m4f20cf2ece" x="135.54256" y="23.85" style="stroke: #000000; stroke-width: 0.5"/>
      </g>
     </g>
    </g>
    <g id="xtick_18">
     <g id="line2d_43">
      <g>
       <use xlink:href="#m68de36eee9" x="143.818175" y="301.05" style="stroke: #000000; stroke-width: 0.5"/>
      </g>
     </g>
     <g id="line2d_44">
      <g>
       <use xlink:href="#m4f20cf2ece" x="143.818175" y="23.85" style="stroke: #000000; stroke-width: 0.5"/>
      </g>
     </g>
    </g>
    <g id="xtick_19">
     <g id="line2d_45">
      <g>
       <use xlink:href="#m68de36eee9" x="160.369405" y="301.05" style="stroke: #000000; stroke-width: 0.5"/>
      </g>
     </g>
     <g id="line2d_46">
      <g>
       <use xlink:href="#m4f20cf2ece" x="160.369405" y="23.85" style="stroke: #000000; stroke-width: 0.5"/>
      </g>
     </g>
    </g>
    <g id="xtick_20">
     <g id="line2d_47">
      <g>
       <use xlink:href="#m68de36eee9" x="168.64502" y="301.05" style="stroke: #000000; stroke-width: 0.5"/>
      </g>
     </g>
     <g id="line2d_48">
      <g>
       <use xlink:href="#m4f20cf2ece" x="168.64502" y="23.85" style="stroke: #000000; stroke-width: 0.5"/>
      </g>
     </g>
    </g>
    <g id="xtick_21">
     <g id="line2d_49">
      <g>
       <use xlink:href="#m68de36eee9" x="176.920635" y="301.05" style="stroke: #000000; stroke-width: 0.5"/>
      </g>
     </g>
     <g id="line2d_50">
      <g>
       <use xlink:href="#m4f20cf2ece" x="176.920635" y="23.85" style="stroke: #000000; stroke-width: 0.5"/>
      </g>
     </g>
    </g>
    <g id="xtick_22">
     <g id="line2d_51">
      <g>
       <use xlink:href="#m68de36eee9" x="193.471865" y="301.05" style="stroke: #000000; stroke-width: 0.5"/>
      </g>
     </g>
     <g id="line2d_52">
      <g>
       <use xlink:href="#m4f20cf2ece" x="193.471865" y="23.85" style="stroke: #000000; stroke-width: 0.5"/>
      </g>
     </g>
    </g>
    <g id="xtick_23">
     <g id="line2d_53">
      <g>
       <use xlink:href="#m68de36eee9" x="201.74748" y="301.05" style="stroke: #000000; stroke-width: 0.5"/>
      </g>
     </g>
     <g id="line2d_54">
      <g>
       <use xlink:href="#m4f20cf2ece" x="201.74748" y="23.85" style="stroke: #000000; stroke-width: 0.5"/>
      </g>
     </g>
    </g>
    <g id="xtick_24">
     <g id="line2d_55">
      <g>
       <use xlink:href="#m68de36eee9" x="210.023095" y="301.05" style="stroke: #000000; stroke-width: 0.5"/>
      </g>
     </g>
     <g id="line2d_56">
      <g>
       <use xlink:href="#m4f20cf2ece" x="210.023095" y="23.85" style="stroke: #000000; stroke-width: 0.5"/>
      </g>
     </g>
    </g>
    <g id="xtick_25">
     <g id="line2d_57">
      <g>
       <use xlink:href="#m68de36eee9" x="226.574325" y="301.05" style="stroke: #000000; stroke-width: 0.5"/>
      </g>
     </g>
     <g id="line2d_58">
      <g>
       <use xlink:href="#m4f20cf2ece" x="226.574325" y="23.85" style="stroke: #000000; stroke-width: 0.5"/>
      </g>
     </g>
    </g>
    <g id="xtick_26">
     <g id="line2d_59">
      <g>
       <use xlink:href="#m68de36eee9" x="234.84994" y="301.05" style="stroke: #000000; stroke-width: 0.5"/>
      </g>
     </g>
     <g id="line2d_60">
      <g>
       <use xlink:href="#m4f20cf2ece" x="234.84994" y="23.85" style="stroke: #000000; stroke-width: 0.5"/>
      </g>
     </g>
    </g>
    <g id="xtick_27">
     <g id="line2d_61">
      <g>
       <use xlink:href="#m68de36eee9" x="243.125555" y="301.05" style="stroke: #000000; stroke-width: 0.5"/>
      </g>
     </g>
     <g id="line2d_62">
      <g>
       <use xlink:href="#m4f20cf2ece" x="243.125555" y="23.85" style="stroke: #000000; stroke-width: 0.5"/>
      </g>
     </g>
    </g>
    <g id="xtick_28">
     <g id="line2d_63">
      <g>
       <use xlink:href="#m68de36eee9" x="259.676785" y="301.05" style="stroke: #000000; stroke-width: 0.5"/>
      </g>
     </g>
     <g id="line2d_64">
      <g>
       <use xlink:href="#m4f20cf2ece" x="259.676785" y="23.85" style="stroke: #000000; stroke-width: 0.5"/>
      </g>
     </g>
    </g>
    <g id="xtick_29">
     <g id="line2d_65">
      <g>
       <use xlink:href="#m68de36eee9" x="267.9524" y="301.05" style="stroke: #000000; stroke-width: 0.5"/>
      </g>
     </g>
     <g id="line2d_66">
      <g>
       <use xlink:href="#m4f20cf2ece" x="267.9524" y="23.85" style="stroke: #000000; stroke-width: 0.5"/>
      </g>
     </g>
    </g>
    <g id="xtick_30">
     <g id="line2d_67">
      <g>
       <use xlink:href="#m68de36eee9" x="276.228015" y="301.05" style="stroke: #000000; stroke-width: 0.5"/>
      </g>
     </g>
     <g id="line2d_68">
      <g>
       <use xlink:href="#m4f20cf2ece" x="276.228015" y="23.85" style="stroke: #000000; stroke-width: 0.5"/>
      </g>
     </g>
    </g>
    <g id="xtick_31">
     <g id="line2d_69">
      <g>
       <use xlink:href="#m68de36eee9" x="292.779245" y="301.05" style="stroke: #000000; stroke-width: 0.5"/>
      </g>
     </g>
     <g id="line2d_70">
      <g>
       <use xlink:href="#m4f20cf2ece" x="292.779245" y="23.85" style="stroke: #000000; stroke-width: 0.5"/>
      </g>
     </g>
    </g>
    <g id="xtick_32">
     <g id="line2d_71">
      <g>
       <use xlink:href="#m68de36eee9" x="301.05486" y="301.05" style="stroke: #000000; stroke-width: 0.5"/>
      </g>
     </g>
     <g id="line2d_72">
      <g>
       <use xlink:href="#m4f20cf2ece" x="301.05486" y="23.85" style="stroke: #000000; stroke-width: 0.5"/>
      </g>
     </g>
    </g>
    <g id="xtick_33">
     <g id="line2d_73">
      <g>
       <use xlink:href="#m68de36eee9" x="309.330475" y="301.05" style="stroke: #000000; stroke-width: 0.5"/>
      </g>
     </g>
     <g id="line2d_74">
      <g>
       <use xlink:href="#m4f20cf2ece" x="309.330475" y="23.85" style="stroke: #000000; stroke-width: 0.5"/>
      </g>
     </g>
    </g>
    <g id="text_9">
     <!-- Evaporated Water Mass via Method 2, $M_{w, M2}$ (g/hr) -->
     <g transform="translate(69.55 326.05) scale(0.1 -0.1)">
      <defs>
       <path id="STIXGeneral-Regular-28" d="M 3821 1082 
L 3526 0 
L 77 0 
L 77 122 
Q 442 147 538 252 
Q 634 358 634 730 
L 634 3520 
Q 634 3878 534 3987 
Q 435 4096 77 4115 
L 77 4237 
L 3469 4237 
L 3494 3322 
L 3334 3322 
Q 3264 3750 3085 3872 
Q 2906 3994 2349 3994 
L 1510 3994 
Q 1370 3994 1328 3952 
Q 1286 3910 1286 3763 
L 1286 2355 
L 2253 2355 
Q 2656 2355 2787 2470 
Q 2918 2586 2976 2970 
L 3123 2970 
L 3123 1472 
L 2976 1472 
Q 2918 1875 2790 1984 
Q 2662 2093 2253 2093 
L 1286 2093 
L 1286 538 
Q 1286 346 1420 291 
Q 1555 237 1933 237 
L 2163 237 
Q 2848 237 3136 403 
Q 3424 570 3642 1082 
L 3821 1082 
z
" transform="scale(0.015625)"/>
       <path id="STIXGeneral-Regular-59" d="M 3053 2880 
L 3053 2784 
Q 2906 2771 2835 2688 
Q 2765 2605 2637 2285 
L 1818 230 
Q 1690 -90 1638 -90 
Q 1587 -90 1523 77 
Q 1510 96 1497 141 
Q 1485 186 1472 211 
L 704 2048 
Q 499 2534 403 2652 
Q 307 2771 122 2784 
L 122 2880 
L 1376 2880 
L 1376 2784 
Q 1210 2771 1146 2732 
Q 1082 2694 1082 2611 
Q 1082 2509 1139 2368 
L 1792 730 
L 2426 2387 
Q 2464 2483 2464 2579 
Q 2464 2758 2163 2784 
L 2163 2880 
L 3053 2880 
z
" transform="scale(0.015625)"/>
       <path id="STIXGeneral-Regular-44" d="M 2829 422 
L 2829 243 
Q 2586 -64 2253 -64 
Q 1888 -64 1843 403 
L 1837 403 
Q 1427 -64 909 -64 
Q 608 -64 422 112 
Q 237 288 237 602 
Q 237 1050 685 1350 
Q 992 1555 1837 1869 
L 1837 2214 
Q 1837 2502 1699 2646 
Q 1562 2790 1338 2790 
Q 1146 2790 1018 2697 
Q 890 2605 890 2477 
Q 890 2419 909 2348 
Q 928 2278 928 2208 
Q 928 2112 841 2029 
Q 755 1946 634 1946 
Q 525 1946 441 2029 
Q 358 2112 358 2240 
Q 358 2547 685 2752 
Q 986 2944 1421 2944 
Q 1939 2944 2176 2656 
Q 2291 2522 2323 2384 
Q 2355 2246 2355 1946 
L 2355 723 
Q 2355 301 2554 301 
Q 2682 301 2829 422 
z
M 1837 813 
L 1837 1715 
Q 1248 1510 1018 1293 
Q 800 1094 800 800 
Q 800 557 921 432 
Q 1043 307 1242 307 
Q 1453 307 1613 410 
Q 1747 506 1792 589 
Q 1837 672 1837 813 
z
" transform="scale(0.015625)"/>
       <path id="STIXGeneral-Regular-53" d="M 1018 2931 
L 1018 2438 
Q 1421 2944 1939 2944 
Q 2406 2944 2707 2560 
Q 3008 2176 3008 1581 
Q 3008 883 2621 409 
Q 2234 -64 1664 -64 
Q 1466 -64 1328 -6 
Q 1190 51 1018 211 
L 1018 -794 
Q 1018 -1094 1120 -1180 
Q 1222 -1267 1581 -1274 
L 1581 -1389 
L 32 -1389 
L 32 -1280 
Q 314 -1254 397 -1171 
Q 480 -1088 480 -838 
L 480 2157 
Q 480 2381 429 2451 
Q 378 2522 218 2522 
Q 115 2522 58 2515 
L 58 2618 
Q 506 2752 979 2944 
L 1018 2931 
z
M 1018 2138 
L 1018 563 
Q 1018 422 1238 281 
Q 1459 141 1683 141 
Q 2029 141 2243 467 
Q 2458 794 2458 1325 
Q 2458 1888 2243 2224 
Q 2029 2560 1670 2560 
Q 1446 2560 1232 2419 
Q 1018 2278 1018 2138 
z
" transform="scale(0.015625)"/>
       <path id="STIXGeneral-Regular-52" d="M 3008 1478 
Q 3008 806 2608 371 
Q 2208 -64 1568 -64 
Q 979 -64 582 368 
Q 186 800 186 1459 
Q 186 2125 582 2534 
Q 979 2944 1626 2944 
Q 2221 2944 2614 2537 
Q 3008 2131 3008 1478 
z
M 2432 1306 
Q 2432 2035 2112 2445 
Q 1856 2765 1504 2765 
Q 1171 2765 966 2493 
Q 762 2221 762 1747 
Q 762 928 1101 435 
Q 1318 115 1677 115 
Q 2029 115 2230 432 
Q 2432 749 2432 1306 
z
" transform="scale(0.015625)"/>
       <path id="STIXGeneral-Regular-55" d="M 1024 2931 
L 1024 2342 
Q 1267 2688 1430 2816 
Q 1594 2944 1792 2944 
Q 1958 2944 2051 2854 
Q 2144 2765 2144 2605 
Q 2144 2470 2077 2393 
Q 2010 2317 1894 2317 
Q 1773 2317 1638 2445 
Q 1536 2541 1472 2541 
Q 1338 2541 1181 2355 
Q 1024 2170 1024 2016 
L 1024 576 
Q 1024 301 1133 205 
Q 1242 109 1568 96 
L 1568 0 
L 32 0 
L 32 96 
Q 339 154 412 224 
Q 486 294 486 538 
L 486 2138 
Q 486 2349 438 2435 
Q 390 2522 269 2522 
Q 166 2522 45 2496 
L 45 2598 
Q 448 2726 992 2944 
L 1024 2931 
z
" transform="scale(0.015625)"/>
       <path id="STIXGeneral-Regular-57" d="M 1702 493 
L 1786 422 
Q 1478 -64 1011 -64 
Q 448 -64 448 749 
L 448 2675 
L 109 2675 
Q 83 2694 83 2720 
Q 83 2771 192 2842 
Q 435 2982 813 3526 
Q 826 3546 874 3606 
Q 922 3667 941 3706 
Q 986 3706 986 3622 
L 986 2880 
L 1632 2880 
L 1632 2675 
L 986 2675 
L 986 845 
Q 986 538 1062 403 
Q 1139 269 1318 269 
Q 1510 269 1702 493 
z
" transform="scale(0.015625)"/>
       <path id="STIXGeneral-Regular-48" d="M 2611 1050 
L 2714 1005 
Q 2330 -64 1376 -64 
Q 813 -64 486 329 
Q 160 723 160 1389 
Q 160 2074 525 2509 
Q 890 2944 1485 2944 
Q 2061 2944 2374 2502 
Q 2560 2246 2592 1773 
L 621 1773 
Q 646 1370 700 1158 
Q 755 947 915 730 
Q 1184 378 1626 378 
Q 1939 378 2153 531 
Q 2368 685 2611 1050 
z
M 634 1978 
L 1939 1978 
Q 1882 2381 1750 2547 
Q 1619 2714 1312 2714 
Q 1043 2714 864 2525 
Q 685 2336 634 1978 
z
" transform="scale(0.015625)"/>
       <path id="STIXGeneral-Regular-47" d="M 3142 269 
L 2202 -64 
L 2176 -45 
L 2176 365 
Q 1869 -64 1357 -64 
Q 826 -64 499 317 
Q 173 698 173 1312 
Q 173 1990 563 2467 
Q 954 2944 1504 2944 
Q 1850 2944 2176 2669 
L 2176 3667 
Q 2176 3866 2118 3930 
Q 2061 3994 1882 3994 
Q 1792 3994 1741 3987 
L 1741 4090 
Q 2323 4243 2682 4371 
L 2714 4358 
L 2714 730 
Q 2714 506 2768 435 
Q 2822 365 2995 365 
Q 3034 365 3142 371 
L 3142 269 
z
M 2176 653 
L 2176 2125 
Q 2176 2381 1981 2573 
Q 1786 2765 1523 2765 
Q 1158 2765 940 2438 
Q 723 2112 723 1568 
Q 723 979 963 624 
Q 1203 269 1606 269 
Q 1907 269 2080 474 
Q 2176 582 2176 653 
z
" transform="scale(0.015625)"/>
       <path id="STIXGeneral-Regular-3" transform="scale(0.015625)"/>
       <path id="STIXGeneral-Regular-3a" d="M 5965 4237 
L 5965 4115 
Q 5709 4064 5616 3990 
Q 5523 3917 5434 3667 
Q 4704 1709 4128 -70 
L 4032 -70 
Q 3642 1011 3008 2637 
L 2022 -70 
L 1926 -70 
Q 1709 576 1277 1753 
Q 845 2931 698 3347 
Q 538 3808 406 3958 
Q 275 4109 32 4115 
L 32 4237 
L 1594 4237 
L 1594 4115 
Q 1357 4109 1270 4064 
Q 1184 4019 1184 3917 
Q 1184 3808 1254 3616 
L 2176 1210 
L 2842 3021 
L 2662 3501 
Q 2509 3917 2400 4013 
Q 2291 4109 2010 4115 
L 2010 4237 
L 3706 4237 
L 3706 4115 
Q 3213 4102 3213 3891 
Q 3213 3808 3322 3520 
L 4237 1190 
L 5043 3360 
Q 5152 3667 5152 3853 
Q 5152 4109 4704 4115 
L 4704 4237 
L 5965 4237 
z
" transform="scale(0.015625)"/>
       <path id="STIXGeneral-Regular-30" d="M 5530 0 
L 3738 0 
L 3738 122 
Q 4115 147 4214 265 
Q 4314 384 4314 787 
L 4314 3661 
L 2682 0 
L 2592 0 
L 979 3514 
L 979 966 
Q 979 448 1088 294 
Q 1197 141 1574 122 
L 1574 0 
L 77 0 
L 77 122 
Q 358 141 480 205 
Q 602 269 650 432 
Q 698 595 698 966 
L 698 3514 
Q 698 3878 589 3984 
Q 480 4090 90 4115 
L 90 4237 
L 1357 4237 
L 2835 1024 
L 4250 4237 
L 5523 4237 
L 5523 4115 
Q 5178 4109 5072 3993 
Q 4966 3878 4966 3520 
L 4966 717 
Q 4966 378 5072 262 
Q 5178 147 5530 122 
L 5530 0 
z
" transform="scale(0.015625)"/>
       <path id="STIXGeneral-Regular-56" d="M 998 1926 
L 1664 1523 
Q 1984 1331 2105 1164 
Q 2227 998 2227 736 
Q 2227 416 1961 176 
Q 1696 -64 1331 -64 
Q 1030 -64 864 -6 
Q 691 51 570 51 
Q 461 51 416 -26 
L 333 -26 
L 333 979 
L 435 979 
Q 538 512 730 294 
Q 922 77 1248 77 
Q 1485 77 1632 211 
Q 1779 346 1779 550 
Q 1779 845 1440 1030 
L 1094 1222 
Q 326 1651 326 2150 
Q 326 2522 566 2730 
Q 806 2938 1210 2938 
Q 1491 2938 1638 2867 
Q 1754 2816 1818 2816 
Q 1862 2816 1920 2880 
L 1990 2880 
L 2022 2010 
L 1926 2010 
Q 1818 2445 1654 2621 
Q 1491 2797 1203 2797 
Q 986 2797 854 2688 
Q 723 2579 723 2362 
Q 723 2253 796 2128 
Q 870 2003 998 1926 
z
" transform="scale(0.015625)"/>
       <path id="STIXGeneral-Regular-4c" d="M 1152 4045 
Q 1152 3904 1056 3811 
Q 960 3718 819 3718 
Q 685 3718 592 3811 
Q 499 3904 499 4045 
Q 499 4179 595 4275 
Q 691 4371 826 4371 
Q 966 4371 1059 4275 
Q 1152 4179 1152 4045 
z
M 1619 0 
L 102 0 
L 102 96 
Q 435 115 521 211 
Q 608 307 608 666 
L 608 2118 
Q 608 2342 563 2432 
Q 518 2522 397 2522 
Q 243 2522 128 2490 
L 128 2592 
L 1120 2944 
L 1146 2918 
L 1146 672 
Q 1146 314 1226 218 
Q 1306 122 1619 96 
L 1619 0 
z
" transform="scale(0.015625)"/>
       <path id="STIXGeneral-Regular-4b" d="M 3117 0 
L 1760 0 
L 1760 96 
Q 2042 128 2118 224 
Q 2195 320 2195 653 
L 2195 1920 
Q 2195 2598 1722 2598 
Q 1530 2598 1370 2508 
Q 1210 2419 1005 2195 
L 1005 653 
Q 1005 320 1081 224 
Q 1158 128 1440 96 
L 1440 0 
L 58 0 
L 58 96 
Q 333 134 400 224 
Q 467 314 467 653 
L 467 3667 
Q 467 3872 406 3933 
Q 346 3994 141 3994 
Q 83 3994 64 3987 
L 64 4090 
L 237 4141 
Q 730 4288 973 4371 
L 1005 4352 
L 1005 2406 
Q 1229 2694 1446 2819 
Q 1664 2944 1946 2944 
Q 2733 2944 2733 1926 
L 2733 653 
Q 2733 320 2793 233 
Q 2854 147 3117 96 
L 3117 0 
z
" transform="scale(0.015625)"/>
       <path id="STIXGeneral-Regular-f" d="M 531 -902 
L 467 -781 
Q 998 -422 998 -96 
Q 998 -13 909 -13 
Q 883 -13 822 -25 
Q 762 -38 723 -38 
Q 352 -38 352 288 
Q 352 454 457 553 
Q 563 653 736 653 
Q 954 653 1101 496 
Q 1248 339 1248 96 
Q 1248 -198 1053 -473 
Q 858 -749 531 -902 
z
" transform="scale(0.015625)"/>
       <path id="Cmmi10-2d" d="M 325 0 
Q 263 0 263 84 
Q 266 100 275 137 
Q 284 175 300 200 
Q 316 225 347 225 
Q 956 225 1056 616 
L 1888 3956 
Q 1900 4019 1900 4044 
Q 1900 4113 1825 4122 
Q 1703 4147 1363 4147 
Q 1300 4147 1300 4231 
Q 1303 4247 1312 4286 
Q 1322 4325 1339 4348 
Q 1356 4372 1381 4372 
L 2509 4372 
Q 2581 4372 2591 4300 
L 3091 634 
L 5422 4300 
Q 5466 4372 5544 4372 
L 6631 4372 
Q 6694 4372 6694 4288 
Q 6691 4272 6681 4233 
Q 6672 4194 6655 4170 
Q 6638 4147 6613 4147 
Q 6222 4147 6069 4103 
Q 5984 4075 5947 3928 
L 5069 416 
Q 5056 353 5056 325 
Q 5056 300 5064 283 
Q 5072 266 5086 261 
Q 5100 256 5131 250 
Q 5253 225 5594 225 
Q 5656 225 5656 141 
Q 5634 50 5621 25 
Q 5609 0 5550 0 
L 3878 0 
Q 3816 0 3816 84 
Q 3819 100 3828 139 
Q 3838 178 3855 201 
Q 3872 225 3897 225 
Q 4288 225 4441 269 
Q 4525 297 4563 441 
L 5484 4147 
L 2900 72 
Q 2863 0 2772 0 
Q 2691 0 2681 72 
L 2138 4097 
L 1259 588 
Q 1253 572 1250 548 
Q 1247 525 1241 494 
Q 1241 328 1386 276 
Q 1531 225 1741 225 
Q 1806 225 1806 141 
Q 1784 56 1770 28 
Q 1756 0 1697 0 
L 325 0 
z
" transform="scale(0.015625)"/>
       <path id="Cmmi10-6a" d="M 691 744 
Q 691 878 727 1053 
Q 763 1228 806 1364 
Q 850 1500 954 1781 
Q 1059 2063 1069 2088 
Q 1153 2322 1153 2472 
Q 1153 2663 1013 2663 
Q 759 2663 595 2402 
Q 431 2141 353 1819 
Q 341 1778 300 1778 
L 225 1778 
Q 172 1778 172 1838 
L 172 1856 
Q 275 2238 487 2533 
Q 700 2828 1025 2828 
Q 1253 2828 1411 2678 
Q 1569 2528 1569 2297 
Q 1569 2178 1516 2047 
Q 1441 1853 1339 1581 
Q 1238 1309 1181 1087 
Q 1125 866 1125 659 
Q 1125 409 1256 253 
Q 1388 97 1638 97 
Q 1978 97 2203 616 
Q 2194 653 2194 722 
Q 2194 894 2247 1113 
L 2606 2553 
Q 2628 2638 2706 2698 
Q 2784 2759 2875 2759 
Q 2950 2759 3008 2709 
Q 3066 2659 3066 2578 
Q 3066 2541 3059 2528 
L 2700 1100 
Q 2638 844 2638 641 
Q 2638 400 2748 248 
Q 2859 97 3097 97 
Q 3509 97 3775 641 
Q 3875 834 3998 1212 
Q 4122 1591 4122 1791 
Q 4122 1975 4062 2083 
Q 4003 2191 3898 2316 
Q 3794 2441 3794 2503 
Q 3794 2625 3898 2729 
Q 4003 2834 4128 2834 
Q 4281 2834 4348 2693 
Q 4416 2553 4416 2375 
Q 4416 2159 4344 1826 
Q 4272 1494 4162 1158 
Q 4053 822 3956 622 
Q 3606 -72 3084 -72 
Q 2816 -72 2594 31 
Q 2372 134 2266 359 
Q 2163 175 1995 51 
Q 1828 -72 1625 -72 
Q 1203 -72 947 129 
Q 691 331 691 744 
z
" transform="scale(0.015625)"/>
       <path id="Cmmi10-2c" d="M 634 -1153 
Q 634 -1125 659 -1100 
Q 891 -878 1019 -587 
Q 1147 -297 1147 25 
L 1147 103 
Q 1044 0 891 0 
Q 744 0 641 103 
Q 538 206 538 353 
Q 538 503 641 603 
Q 744 703 891 703 
Q 1119 703 1216 492 
Q 1313 281 1313 25 
Q 1313 -331 1170 -651 
Q 1028 -972 769 -1228 
Q 744 -1241 728 -1241 
Q 697 -1241 665 -1212 
Q 634 -1184 634 -1153 
z
" transform="scale(0.015625)"/>
       <path id="Cmr10-31" d="M 319 0 
L 319 172 
Q 319 188 331 206 
L 1325 1306 
Q 1550 1550 1690 1715 
Q 1831 1881 1968 2097 
Q 2106 2313 2186 2536 
Q 2266 2759 2266 3009 
Q 2266 3272 2169 3511 
Q 2072 3750 1880 3894 
Q 1688 4038 1416 4038 
Q 1138 4038 916 3870 
Q 694 3703 603 3438 
Q 628 3444 672 3444 
Q 816 3444 917 3347 
Q 1019 3250 1019 3097 
Q 1019 2950 917 2848 
Q 816 2747 672 2747 
Q 522 2747 420 2851 
Q 319 2956 319 3097 
Q 319 3338 409 3548 
Q 500 3759 670 3923 
Q 841 4088 1055 4175 
Q 1269 4263 1509 4263 
Q 1875 4263 2190 4108 
Q 2506 3953 2690 3670 
Q 2875 3388 2875 3009 
Q 2875 2731 2753 2481 
Q 2631 2231 2440 2026 
Q 2250 1822 1953 1562 
Q 1656 1303 1563 1216 
L 838 519 
L 1453 519 
Q 1906 519 2211 526 
Q 2516 534 2534 550 
Q 2609 631 2688 1141 
L 2875 1141 
L 2694 0 
L 319 0 
z
" transform="scale(0.015625)"/>
       <path id="STIXGeneral-Regular-b" d="M 1946 -1030 
L 1869 -1133 
Q 1126 -710 716 32 
Q 307 774 307 1613 
Q 307 3386 1888 4326 
L 1946 4224 
Q 1293 3667 1075 3126 
Q 858 2586 858 1632 
Q 858 685 1082 96 
Q 1306 -493 1946 -1030 
z
" transform="scale(0.015625)"/>
       <path id="STIXGeneral-Regular-4a" d="M 3008 2483 
L 2477 2483 
Q 2598 2208 2598 1946 
Q 2598 1453 2265 1203 
Q 1933 954 1600 954 
Q 1530 954 1357 973 
L 1235 986 
Q 1107 947 979 812 
Q 851 678 851 582 
Q 851 435 1350 410 
L 2176 371 
Q 2528 358 2739 172 
Q 2950 -13 2950 -314 
Q 2950 -685 2566 -986 
Q 2035 -1395 1286 -1395 
Q 826 -1395 502 -1212 
Q 179 -1030 179 -774 
Q 179 -595 320 -419 
Q 461 -243 806 6 
Q 602 102 534 172 
Q 467 243 467 346 
Q 467 531 762 787 
Q 909 915 1037 1043 
Q 717 1203 579 1401 
Q 442 1600 442 1901 
Q 442 2336 752 2640 
Q 1062 2944 1510 2944 
Q 1766 2944 2022 2848 
L 2163 2797 
Q 2349 2733 2515 2733 
L 3008 2733 
L 3008 2483 
z
M 973 2163 
L 973 2144 
Q 973 1683 1155 1398 
Q 1338 1114 1632 1114 
Q 1850 1114 1978 1270 
Q 2106 1427 2106 1690 
Q 2106 2112 1914 2464 
Q 1754 2765 1446 2765 
Q 1222 2765 1097 2605 
Q 973 2445 973 2163 
z
M 2771 -410 
Q 2771 -230 2595 -163 
Q 2419 -96 1978 -96 
Q 1344 -96 941 -13 
Q 749 -243 688 -348 
Q 627 -454 627 -563 
Q 627 -774 880 -902 
Q 1133 -1030 1555 -1030 
Q 2099 -1030 2435 -860 
Q 2771 -691 2771 -410 
z
" transform="scale(0.015625)"/>
       <path id="STIXGeneral-Regular-12" d="M 1837 4326 
L 378 -90 
L -58 -90 
L 1408 4326 
L 1837 4326 
z
" transform="scale(0.015625)"/>
       <path id="STIXGeneral-Regular-c" d="M 186 4224 
L 262 4326 
Q 992 3891 1408 3148 
Q 1824 2406 1824 1581 
Q 1824 -166 243 -1133 
L 186 -1030 
Q 845 -486 1059 54 
Q 1274 595 1274 1562 
Q 1274 2534 1059 3120 
Q 845 3706 186 4224 
z
" transform="scale(0.015625)"/>
      </defs>
      <use xlink:href="#STIXGeneral-Regular-28" transform="translate(0 0.6875)"/>
      <use xlink:href="#STIXGeneral-Regular-59" transform="translate(61.099945 0.6875)"/>
      <use xlink:href="#STIXGeneral-Regular-44" transform="translate(111.099899 0.6875)"/>
      <use xlink:href="#STIXGeneral-Regular-53" transform="translate(155.499863 0.6875)"/>
      <use xlink:href="#STIXGeneral-Regular-52" transform="translate(205.499817 0.6875)"/>
      <use xlink:href="#STIXGeneral-Regular-55" transform="translate(255.499771 0.6875)"/>
      <use xlink:href="#STIXGeneral-Regular-44" transform="translate(288.799744 0.6875)"/>
      <use xlink:href="#STIXGeneral-Regular-57" transform="translate(333.199707 0.6875)"/>
      <use xlink:href="#STIXGeneral-Regular-48" transform="translate(360.99968 0.6875)"/>
      <use xlink:href="#STIXGeneral-Regular-47" transform="translate(405.399643 0.6875)"/>
      <use xlink:href="#STIXGeneral-Regular-3" transform="translate(455.399597 0.6875)"/>
      <use xlink:href="#STIXGeneral-Regular-3a" transform="translate(480.399567 0.6875)"/>
      <use xlink:href="#STIXGeneral-Regular-44" transform="translate(574.799484 0.6875)"/>
      <use xlink:href="#STIXGeneral-Regular-57" transform="translate(619.199448 0.6875)"/>
      <use xlink:href="#STIXGeneral-Regular-48" transform="translate(646.99942 0.6875)"/>
      <use xlink:href="#STIXGeneral-Regular-55" transform="translate(691.399384 0.6875)"/>
      <use xlink:href="#STIXGeneral-Regular-3" transform="translate(724.699356 0.6875)"/>
      <use xlink:href="#STIXGeneral-Regular-30" transform="translate(749.699326 0.6875)"/>
      <use xlink:href="#STIXGeneral-Regular-44" transform="translate(838.599243 0.6875)"/>
      <use xlink:href="#STIXGeneral-Regular-56" transform="translate(882.999207 0.6875)"/>
      <use xlink:href="#STIXGeneral-Regular-56" transform="translate(921.89917 0.6875)"/>
      <use xlink:href="#STIXGeneral-Regular-3" transform="translate(960.799133 0.6875)"/>
      <use xlink:href="#STIXGeneral-Regular-59" transform="translate(985.799103 0.6875)"/>
      <use xlink:href="#STIXGeneral-Regular-4c" transform="translate(1035.799057 0.6875)"/>
      <use xlink:href="#STIXGeneral-Regular-44" transform="translate(1063.59903 0.6875)"/>
      <use xlink:href="#STIXGeneral-Regular-3" transform="translate(1107.998993 0.6875)"/>
      <use xlink:href="#STIXGeneral-Regular-30" transform="translate(1132.998962 0.6875)"/>
      <use xlink:href="#STIXGeneral-Regular-48" transform="translate(1221.89888 0.6875)"/>
      <use xlink:href="#STIXGeneral-Regular-57" transform="translate(1266.298843 0.6875)"/>
      <use xlink:href="#STIXGeneral-Regular-4b" transform="translate(1294.098816 0.6875)"/>
      <use xlink:href="#STIXGeneral-Regular-52" transform="translate(1344.09877 0.6875)"/>
      <use xlink:href="#STIXGeneral-Regular-47" transform="translate(1394.098724 0.6875)"/>
      <use xlink:href="#STIXGeneral-Regular-3" transform="translate(1444.098679 0.6875)"/>
      <use xlink:href="#STIXGeneral-Regular-15" transform="translate(1469.098648 0.6875)"/>
      <use xlink:href="#STIXGeneral-Regular-f" transform="translate(1519.098602 0.6875)"/>
      <use xlink:href="#STIXGeneral-Regular-3" transform="translate(1544.098572 0.6875)"/>
      <use xlink:href="#Cmmi10-2d" transform="translate(1569.098541 0.6875)"/>
      <use xlink:href="#Cmmi10-6a" transform="translate(1666.120026 -14.312462) scale(0.7)"/>
      <use xlink:href="#Cmmi10-2c" transform="translate(1716.159088 -14.312462) scale(0.7)"/>
      <use xlink:href="#Cmmi10-2d" transform="translate(1749.539011 -14.312462) scale(0.7)"/>
      <use xlink:href="#Cmr10-31" transform="translate(1817.45405 -14.312462) scale(0.7)"/>
      <use xlink:href="#STIXGeneral-Regular-3" transform="translate(1858.174466 0.6875)"/>
      <use xlink:href="#STIXGeneral-Regular-b" transform="translate(1883.174435 0.6875)"/>
      <use xlink:href="#STIXGeneral-Regular-4a" transform="translate(1916.474408 0.6875)"/>
      <use xlink:href="#STIXGeneral-Regular-12" transform="translate(1966.474362 0.6875)"/>
      <use xlink:href="#STIXGeneral-Regular-4b" transform="translate(1994.274334 0.6875)"/>
      <use xlink:href="#STIXGeneral-Regular-55" transform="translate(2044.274289 0.6875)"/>
      <use xlink:href="#STIXGeneral-Regular-c" transform="translate(2077.574261 0.6875)"/>
     </g>
    </g>
   </g>
   <g id="matplotlib.axis_2">
    <g id="ytick_1">
     <g id="line2d_75">
      <path d="M 36.5 284.76359 
L 313.7 284.76359 
" clip-path="url(#p010daa7811)" style="fill: none; stroke-dasharray: 0.5,0.825; stroke-dashoffset: 0; stroke: #b0b0b0; stroke-opacity: 0.6; stroke-width: 0.5"/>
     </g>
     <g id="line2d_76">
      <defs>
       <path id="m387824cb2d" d="M 0 0 
L 3 0 
" style="stroke: #000000; stroke-width: 0.5"/>
      </defs>
      <g>
       <use xlink:href="#m387824cb2d" x="36.5" y="284.76359" style="stroke: #000000; stroke-width: 0.5"/>
      </g>
     </g>
     <g id="line2d_77">
      <defs>
       <path id="m64c49b8c74" d="M 0 0 
L -3 0 
" style="stroke: #000000; stroke-width: 0.5"/>
      </defs>
      <g>
       <use xlink:href="#m64c49b8c74" x="313.7" y="284.76359" style="stroke: #000000; stroke-width: 0.5"/>
      </g>
     </g>
     <g id="text_10">
      <!-- $\mathdefault{120}$ -->
      <g transform="translate(18 288.51359) scale(0.1 -0.1)">
       <use xlink:href="#STIXGeneral-Regular-14" transform="translate(0 0.40625)"/>
       <use xlink:href="#STIXGeneral-Regular-15" transform="translate(49.999954 0.40625)"/>
       <use xlink:href="#STIXGeneral-Regular-13" transform="translate(99.999908 0.40625)"/>
      </g>
     </g>
    </g>
    <g id="ytick_2">
     <g id="line2d_78">
      <path d="M 36.5 251.66113 
L 313.7 251.66113 
" clip-path="url(#p010daa7811)" style="fill: none; stroke-dasharray: 0.5,0.825; stroke-dashoffset: 0; stroke: #b0b0b0; stroke-opacity: 0.6; stroke-width: 0.5"/>
     </g>
     <g id="line2d_79">
      <g>
       <use xlink:href="#m387824cb2d" x="36.5" y="251.66113" style="stroke: #000000; stroke-width: 0.5"/>
      </g>
     </g>
     <g id="line2d_80">
      <g>
       <use xlink:href="#m64c49b8c74" x="313.7" y="251.66113" style="stroke: #000000; stroke-width: 0.5"/>
      </g>
     </g>
     <g id="text_11">
      <!-- $\mathdefault{140}$ -->
      <g transform="translate(18 255.41113) scale(0.1 -0.1)">
       <use xlink:href="#STIXGeneral-Regular-14" transform="translate(0 0.40625)"/>
       <use xlink:href="#STIXGeneral-Regular-17" transform="translate(49.999954 0.40625)"/>
       <use xlink:href="#STIXGeneral-Regular-13" transform="translate(99.999908 0.40625)"/>
      </g>
     </g>
    </g>
    <g id="ytick_3">
     <g id="line2d_81">
      <path d="M 36.5 218.55867 
L 313.7 218.55867 
" clip-path="url(#p010daa7811)" style="fill: none; stroke-dasharray: 0.5,0.825; stroke-dashoffset: 0; stroke: #b0b0b0; stroke-opacity: 0.6; stroke-width: 0.5"/>
     </g>
     <g id="line2d_82">
      <g>
       <use xlink:href="#m387824cb2d" x="36.5" y="218.55867" style="stroke: #000000; stroke-width: 0.5"/>
      </g>
     </g>
     <g id="line2d_83">
      <g>
       <use xlink:href="#m64c49b8c74" x="313.7" y="218.55867" style="stroke: #000000; stroke-width: 0.5"/>
      </g>
     </g>
     <g id="text_12">
      <!-- $\mathdefault{160}$ -->
      <g transform="translate(18 222.30867) scale(0.1 -0.1)">
       <use xlink:href="#STIXGeneral-Regular-14" transform="translate(0 0.59375)"/>
       <use xlink:href="#STIXGeneral-Regular-19" transform="translate(49.999954 0.59375)"/>
       <use xlink:href="#STIXGeneral-Regular-13" transform="translate(99.999908 0.59375)"/>
      </g>
     </g>
    </g>
    <g id="ytick_4">
     <g id="line2d_84">
      <path d="M 36.5 185.45621 
L 313.7 185.45621 
" clip-path="url(#p010daa7811)" style="fill: none; stroke-dasharray: 0.5,0.825; stroke-dashoffset: 0; stroke: #b0b0b0; stroke-opacity: 0.6; stroke-width: 0.5"/>
     </g>
     <g id="line2d_85">
      <g>
       <use xlink:href="#m387824cb2d" x="36.5" y="185.45621" style="stroke: #000000; stroke-width: 0.5"/>
      </g>
     </g>
     <g id="line2d_86">
      <g>
       <use xlink:href="#m64c49b8c74" x="313.7" y="185.45621" style="stroke: #000000; stroke-width: 0.5"/>
      </g>
     </g>
     <g id="text_13">
      <!-- $\mathdefault{180}$ -->
      <g transform="translate(18 189.20621) scale(0.1 -0.1)">
       <use xlink:href="#STIXGeneral-Regular-14" transform="translate(0 0.40625)"/>
       <use xlink:href="#STIXGeneral-Regular-1b" transform="translate(49.999954 0.40625)"/>
       <use xlink:href="#STIXGeneral-Regular-13" transform="translate(99.999908 0.40625)"/>
      </g>
     </g>
    </g>
    <g id="ytick_5">
     <g id="line2d_87">
      <path d="M 36.5 152.35375 
L 313.7 152.35375 
" clip-path="url(#p010daa7811)" style="fill: none; stroke-dasharray: 0.5,0.825; stroke-dashoffset: 0; stroke: #b0b0b0; stroke-opacity: 0.6; stroke-width: 0.5"/>
     </g>
     <g id="line2d_88">
      <g>
       <use xlink:href="#m387824cb2d" x="36.5" y="152.35375" style="stroke: #000000; stroke-width: 0.5"/>
      </g>
     </g>
     <g id="line2d_89">
      <g>
       <use xlink:href="#m64c49b8c74" x="313.7" y="152.35375" style="stroke: #000000; stroke-width: 0.5"/>
      </g>
     </g>
     <g id="text_14">
      <!-- $\mathdefault{200}$ -->
      <g transform="translate(18 156.10375) scale(0.1 -0.1)">
       <use xlink:href="#STIXGeneral-Regular-15" transform="translate(0 0.40625)"/>
       <use xlink:href="#STIXGeneral-Regular-13" transform="translate(49.999954 0.40625)"/>
       <use xlink:href="#STIXGeneral-Regular-13" transform="translate(99.999908 0.40625)"/>
      </g>
     </g>
    </g>
    <g id="ytick_6">
     <g id="line2d_90">
      <path d="M 36.5 119.25129 
L 313.7 119.25129 
" clip-path="url(#p010daa7811)" style="fill: none; stroke-dasharray: 0.5,0.825; stroke-dashoffset: 0; stroke: #b0b0b0; stroke-opacity: 0.6; stroke-width: 0.5"/>
     </g>
     <g id="line2d_91">
      <g>
       <use xlink:href="#m387824cb2d" x="36.5" y="119.25129" style="stroke: #000000; stroke-width: 0.5"/>
      </g>
     </g>
     <g id="line2d_92">
      <g>
       <use xlink:href="#m64c49b8c74" x="313.7" y="119.25129" style="stroke: #000000; stroke-width: 0.5"/>
      </g>
     </g>
     <g id="text_15">
      <!-- $\mathdefault{220}$ -->
      <g transform="translate(18 123.00129) scale(0.1 -0.1)">
       <use xlink:href="#STIXGeneral-Regular-15" transform="translate(0 0.40625)"/>
       <use xlink:href="#STIXGeneral-Regular-15" transform="translate(49.999954 0.40625)"/>
       <use xlink:href="#STIXGeneral-Regular-13" transform="translate(99.999908 0.40625)"/>
      </g>
     </g>
    </g>
    <g id="ytick_7">
     <g id="line2d_93">
      <path d="M 36.5 86.14883 
L 313.7 86.14883 
" clip-path="url(#p010daa7811)" style="fill: none; stroke-dasharray: 0.5,0.825; stroke-dashoffset: 0; stroke: #b0b0b0; stroke-opacity: 0.6; stroke-width: 0.5"/>
     </g>
     <g id="line2d_94">
      <g>
       <use xlink:href="#m387824cb2d" x="36.5" y="86.14883" style="stroke: #000000; stroke-width: 0.5"/>
      </g>
     </g>
     <g id="line2d_95">
      <g>
       <use xlink:href="#m64c49b8c74" x="313.7" y="86.14883" style="stroke: #000000; stroke-width: 0.5"/>
      </g>
     </g>
     <g id="text_16">
      <!-- $\mathdefault{240}$ -->
      <g transform="translate(18 89.89883) scale(0.1 -0.1)">
       <use xlink:href="#STIXGeneral-Regular-15" transform="translate(0 0.40625)"/>
       <use xlink:href="#STIXGeneral-Regular-17" transform="translate(49.999954 0.40625)"/>
       <use xlink:href="#STIXGeneral-Regular-13" transform="translate(99.999908 0.40625)"/>
      </g>
     </g>
    </g>
    <g id="ytick_8">
     <g id="line2d_96">
      <path d="M 36.5 53.04637 
L 313.7 53.04637 
" clip-path="url(#p010daa7811)" style="fill: none; stroke-dasharray: 0.5,0.825; stroke-dashoffset: 0; stroke: #b0b0b0; stroke-opacity: 0.6; stroke-width: 0.5"/>
     </g>
     <g id="line2d_97">
      <g>
       <use xlink:href="#m387824cb2d" x="36.5" y="53.04637" style="stroke: #000000; stroke-width: 0.5"/>
      </g>
     </g>
     <g id="line2d_98">
      <g>
       <use xlink:href="#m64c49b8c74" x="313.7" y="53.04637" style="stroke: #000000; stroke-width: 0.5"/>
      </g>
     </g>
     <g id="text_17">
      <!-- $\mathdefault{260}$ -->
      <g transform="translate(18 56.79637) scale(0.1 -0.1)">
       <use xlink:href="#STIXGeneral-Regular-15" transform="translate(0 0.59375)"/>
       <use xlink:href="#STIXGeneral-Regular-19" transform="translate(49.999954 0.59375)"/>
       <use xlink:href="#STIXGeneral-Regular-13" transform="translate(99.999908 0.59375)"/>
      </g>
     </g>
    </g>
    <g id="ytick_9">
     <g id="line2d_99">
      <defs>
       <path id="m0a5d13fab9" d="M 0 0 
L 1.5 0 
" style="stroke: #000000; stroke-width: 0.5"/>
      </defs>
      <g>
       <use xlink:href="#m0a5d13fab9" x="36.5" y="293.039205" style="stroke: #000000; stroke-width: 0.5"/>
      </g>
     </g>
     <g id="line2d_100">
      <defs>
       <path id="ma140b083af" d="M 0 0 
L -1.5 0 
" style="stroke: #000000; stroke-width: 0.5"/>
      </defs>
      <g>
       <use xlink:href="#ma140b083af" x="313.7" y="293.039205" style="stroke: #000000; stroke-width: 0.5"/>
      </g>
     </g>
    </g>
    <g id="ytick_10">
     <g id="line2d_101">
      <g>
       <use xlink:href="#m0a5d13fab9" x="36.5" y="276.487975" style="stroke: #000000; stroke-width: 0.5"/>
      </g>
     </g>
     <g id="line2d_102">
      <g>
       <use xlink:href="#ma140b083af" x="313.7" y="276.487975" style="stroke: #000000; stroke-width: 0.5"/>
      </g>
     </g>
    </g>
    <g id="ytick_11">
     <g id="line2d_103">
      <g>
       <use xlink:href="#m0a5d13fab9" x="36.5" y="268.21236" style="stroke: #000000; stroke-width: 0.5"/>
      </g>
     </g>
     <g id="line2d_104">
      <g>
       <use xlink:href="#ma140b083af" x="313.7" y="268.21236" style="stroke: #000000; stroke-width: 0.5"/>
      </g>
     </g>
    </g>
    <g id="ytick_12">
     <g id="line2d_105">
      <g>
       <use xlink:href="#m0a5d13fab9" x="36.5" y="259.936745" style="stroke: #000000; stroke-width: 0.5"/>
      </g>
     </g>
     <g id="line2d_106">
      <g>
       <use xlink:href="#ma140b083af" x="313.7" y="259.936745" style="stroke: #000000; stroke-width: 0.5"/>
      </g>
     </g>
    </g>
    <g id="ytick_13">
     <g id="line2d_107">
      <g>
       <use xlink:href="#m0a5d13fab9" x="36.5" y="243.385515" style="stroke: #000000; stroke-width: 0.5"/>
      </g>
     </g>
     <g id="line2d_108">
      <g>
       <use xlink:href="#ma140b083af" x="313.7" y="243.385515" style="stroke: #000000; stroke-width: 0.5"/>
      </g>
     </g>
    </g>
    <g id="ytick_14">
     <g id="line2d_109">
      <g>
       <use xlink:href="#m0a5d13fab9" x="36.5" y="235.1099" style="stroke: #000000; stroke-width: 0.5"/>
      </g>
     </g>
     <g id="line2d_110">
      <g>
       <use xlink:href="#ma140b083af" x="313.7" y="235.1099" style="stroke: #000000; stroke-width: 0.5"/>
      </g>
     </g>
    </g>
    <g id="ytick_15">
     <g id="line2d_111">
      <g>
       <use xlink:href="#m0a5d13fab9" x="36.5" y="226.834285" style="stroke: #000000; stroke-width: 0.5"/>
      </g>
     </g>
     <g id="line2d_112">
      <g>
       <use xlink:href="#ma140b083af" x="313.7" y="226.834285" style="stroke: #000000; stroke-width: 0.5"/>
      </g>
     </g>
    </g>
    <g id="ytick_16">
     <g id="line2d_113">
      <g>
       <use xlink:href="#m0a5d13fab9" x="36.5" y="210.283055" style="stroke: #000000; stroke-width: 0.5"/>
      </g>
     </g>
     <g id="line2d_114">
      <g>
       <use xlink:href="#ma140b083af" x="313.7" y="210.283055" style="stroke: #000000; stroke-width: 0.5"/>
      </g>
     </g>
    </g>
    <g id="ytick_17">
     <g id="line2d_115">
      <g>
       <use xlink:href="#m0a5d13fab9" x="36.5" y="202.00744" style="stroke: #000000; stroke-width: 0.5"/>
      </g>
     </g>
     <g id="line2d_116">
      <g>
       <use xlink:href="#ma140b083af" x="313.7" y="202.00744" style="stroke: #000000; stroke-width: 0.5"/>
      </g>
     </g>
    </g>
    <g id="ytick_18">
     <g id="line2d_117">
      <g>
       <use xlink:href="#m0a5d13fab9" x="36.5" y="193.731825" style="stroke: #000000; stroke-width: 0.5"/>
      </g>
     </g>
     <g id="line2d_118">
      <g>
       <use xlink:href="#ma140b083af" x="313.7" y="193.731825" style="stroke: #000000; stroke-width: 0.5"/>
      </g>
     </g>
    </g>
    <g id="ytick_19">
     <g id="line2d_119">
      <g>
       <use xlink:href="#m0a5d13fab9" x="36.5" y="177.180595" style="stroke: #000000; stroke-width: 0.5"/>
      </g>
     </g>
     <g id="line2d_120">
      <g>
       <use xlink:href="#ma140b083af" x="313.7" y="177.180595" style="stroke: #000000; stroke-width: 0.5"/>
      </g>
     </g>
    </g>
    <g id="ytick_20">
     <g id="line2d_121">
      <g>
       <use xlink:href="#m0a5d13fab9" x="36.5" y="168.90498" style="stroke: #000000; stroke-width: 0.5"/>
      </g>
     </g>
     <g id="line2d_122">
      <g>
       <use xlink:href="#ma140b083af" x="313.7" y="168.90498" style="stroke: #000000; stroke-width: 0.5"/>
      </g>
     </g>
    </g>
    <g id="ytick_21">
     <g id="line2d_123">
      <g>
       <use xlink:href="#m0a5d13fab9" x="36.5" y="160.629365" style="stroke: #000000; stroke-width: 0.5"/>
      </g>
     </g>
     <g id="line2d_124">
      <g>
       <use xlink:href="#ma140b083af" x="313.7" y="160.629365" style="stroke: #000000; stroke-width: 0.5"/>
      </g>
     </g>
    </g>
    <g id="ytick_22">
     <g id="line2d_125">
      <g>
       <use xlink:href="#m0a5d13fab9" x="36.5" y="144.078135" style="stroke: #000000; stroke-width: 0.5"/>
      </g>
     </g>
     <g id="line2d_126">
      <g>
       <use xlink:href="#ma140b083af" x="313.7" y="144.078135" style="stroke: #000000; stroke-width: 0.5"/>
      </g>
     </g>
    </g>
    <g id="ytick_23">
     <g id="line2d_127">
      <g>
       <use xlink:href="#m0a5d13fab9" x="36.5" y="135.80252" style="stroke: #000000; stroke-width: 0.5"/>
      </g>
     </g>
     <g id="line2d_128">
      <g>
       <use xlink:href="#ma140b083af" x="313.7" y="135.80252" style="stroke: #000000; stroke-width: 0.5"/>
      </g>
     </g>
    </g>
    <g id="ytick_24">
     <g id="line2d_129">
      <g>
       <use xlink:href="#m0a5d13fab9" x="36.5" y="127.526905" style="stroke: #000000; stroke-width: 0.5"/>
      </g>
     </g>
     <g id="line2d_130">
      <g>
       <use xlink:href="#ma140b083af" x="313.7" y="127.526905" style="stroke: #000000; stroke-width: 0.5"/>
      </g>
     </g>
    </g>
    <g id="ytick_25">
     <g id="line2d_131">
      <g>
       <use xlink:href="#m0a5d13fab9" x="36.5" y="110.975675" style="stroke: #000000; stroke-width: 0.5"/>
      </g>
     </g>
     <g id="line2d_132">
      <g>
       <use xlink:href="#ma140b083af" x="313.7" y="110.975675" style="stroke: #000000; stroke-width: 0.5"/>
      </g>
     </g>
    </g>
    <g id="ytick_26">
     <g id="line2d_133">
      <g>
       <use xlink:href="#m0a5d13fab9" x="36.5" y="102.70006" style="stroke: #000000; stroke-width: 0.5"/>
      </g>
     </g>
     <g id="line2d_134">
      <g>
       <use xlink:href="#ma140b083af" x="313.7" y="102.70006" style="stroke: #000000; stroke-width: 0.5"/>
      </g>
     </g>
    </g>
    <g id="ytick_27">
     <g id="line2d_135">
      <g>
       <use xlink:href="#m0a5d13fab9" x="36.5" y="94.424445" style="stroke: #000000; stroke-width: 0.5"/>
      </g>
     </g>
     <g id="line2d_136">
      <g>
       <use xlink:href="#ma140b083af" x="313.7" y="94.424445" style="stroke: #000000; stroke-width: 0.5"/>
      </g>
     </g>
    </g>
    <g id="ytick_28">
     <g id="line2d_137">
      <g>
       <use xlink:href="#m0a5d13fab9" x="36.5" y="77.873215" style="stroke: #000000; stroke-width: 0.5"/>
      </g>
     </g>
     <g id="line2d_138">
      <g>
       <use xlink:href="#ma140b083af" x="313.7" y="77.873215" style="stroke: #000000; stroke-width: 0.5"/>
      </g>
     </g>
    </g>
    <g id="ytick_29">
     <g id="line2d_139">
      <g>
       <use xlink:href="#m0a5d13fab9" x="36.5" y="69.5976" style="stroke: #000000; stroke-width: 0.5"/>
      </g>
     </g>
     <g id="line2d_140">
      <g>
       <use xlink:href="#ma140b083af" x="313.7" y="69.5976" style="stroke: #000000; stroke-width: 0.5"/>
      </g>
     </g>
    </g>
    <g id="ytick_30">
     <g id="line2d_141">
      <g>
       <use xlink:href="#m0a5d13fab9" x="36.5" y="61.321985" style="stroke: #000000; stroke-width: 0.5"/>
      </g>
     </g>
     <g id="line2d_142">
      <g>
       <use xlink:href="#ma140b083af" x="313.7" y="61.321985" style="stroke: #000000; stroke-width: 0.5"/>
      </g>
     </g>
    </g>
    <g id="ytick_31">
     <g id="line2d_143">
      <g>
       <use xlink:href="#m0a5d13fab9" x="36.5" y="44.770755" style="stroke: #000000; stroke-width: 0.5"/>
      </g>
     </g>
     <g id="line2d_144">
      <g>
       <use xlink:href="#ma140b083af" x="313.7" y="44.770755" style="stroke: #000000; stroke-width: 0.5"/>
      </g>
     </g>
    </g>
    <g id="ytick_32">
     <g id="line2d_145">
      <g>
       <use xlink:href="#m0a5d13fab9" x="36.5" y="36.49514" style="stroke: #000000; stroke-width: 0.5"/>
      </g>
     </g>
     <g id="line2d_146">
      <g>
       <use xlink:href="#ma140b083af" x="313.7" y="36.49514" style="stroke: #000000; stroke-width: 0.5"/>
      </g>
     </g>
    </g>
    <g id="ytick_33">
     <g id="line2d_147">
      <g>
       <use xlink:href="#m0a5d13fab9" x="36.5" y="28.219525" style="stroke: #000000; stroke-width: 0.5"/>
      </g>
     </g>
     <g id="line2d_148">
      <g>
       <use xlink:href="#ma140b083af" x="313.7" y="28.219525" style="stroke: #000000; stroke-width: 0.5"/>
      </g>
     </g>
    </g>
    <g id="text_18">
     <!-- Evaporated Water Mass via Method 1b, $M_{w, M1b}$ (g/hr) -->
     <g transform="translate(11.1 272) rotate(-90) scale(0.1 -0.1)">
      <defs>
       <path id="STIXGeneral-Regular-45" d="M 979 4358 
L 979 2406 
Q 1082 2650 1315 2797 
Q 1549 2944 1843 2944 
Q 2349 2944 2672 2541 
Q 2995 2138 2995 1536 
Q 2995 832 2566 384 
Q 2138 -64 1498 -64 
Q 1107 -64 774 67 
Q 442 198 442 358 
L 442 3622 
Q 442 3859 384 3926 
Q 326 3994 128 3994 
Q 83 3994 19 3981 
L 19 4090 
L 211 4147 
Q 864 4346 947 4371 
L 979 4358 
z
M 979 2035 
L 979 474 
Q 979 326 1161 233 
Q 1344 141 1600 141 
Q 1978 141 2195 416 
Q 2432 710 2432 1261 
Q 2432 1888 2182 2240 
Q 1971 2541 1613 2541 
Q 1357 2541 1168 2390 
Q 979 2240 979 2035 
z
" transform="scale(0.015625)"/>
       <path id="Cmr10-64" d="M 594 0 
L 594 225 
Q 1394 225 1394 428 
L 1394 3788 
Q 1063 3628 556 3628 
L 556 3853 
Q 1341 3853 1741 4263 
L 1831 4263 
Q 1853 4263 1873 4245 
Q 1894 4228 1894 4206 
L 1894 428 
Q 1894 225 2694 225 
L 2694 0 
L 594 0 
z
" transform="scale(0.015625)"/>
       <path id="Cmmi10-4b" d="M 1106 -72 
Q 719 -72 503 231 
Q 288 534 288 941 
Q 288 1000 317 1173 
Q 347 1347 347 1388 
L 966 3872 
Q 991 3981 997 4044 
Q 997 4147 581 4147 
Q 519 4147 519 4231 
Q 522 4247 533 4287 
Q 544 4328 561 4350 
Q 578 4372 609 4372 
L 1472 4441 
Q 1550 4441 1550 4359 
L 1075 2472 
Q 1438 2828 1806 2828 
Q 2078 2828 2273 2684 
Q 2469 2541 2566 2306 
Q 2663 2072 2663 1806 
Q 2663 1497 2542 1167 
Q 2422 838 2209 555 
Q 1997 272 1712 100 
Q 1428 -72 1106 -72 
z
M 1119 97 
Q 1338 97 1528 280 
Q 1719 463 1838 691 
Q 1966 947 2077 1386 
Q 2188 1825 2188 2088 
Q 2188 2316 2092 2489 
Q 1997 2663 1791 2663 
Q 1559 2663 1348 2492 
Q 1138 2322 978 2088 
L 800 1363 
Q 697 959 691 716 
Q 691 475 795 286 
Q 900 97 1119 97 
z
" transform="scale(0.015625)"/>
      </defs>
      <use xlink:href="#STIXGeneral-Regular-28" transform="translate(0 0.6875)"/>
      <use xlink:href="#STIXGeneral-Regular-59" transform="translate(61.099945 0.6875)"/>
      <use xlink:href="#STIXGeneral-Regular-44" transform="translate(111.099899 0.6875)"/>
      <use xlink:href="#STIXGeneral-Regular-53" transform="translate(155.499863 0.6875)"/>
      <use xlink:href="#STIXGeneral-Regular-52" transform="translate(205.499817 0.6875)"/>
      <use xlink:href="#STIXGeneral-Regular-55" transform="translate(255.499771 0.6875)"/>
      <use xlink:href="#STIXGeneral-Regular-44" transform="translate(288.799744 0.6875)"/>
      <use xlink:href="#STIXGeneral-Regular-57" transform="translate(333.199707 0.6875)"/>
      <use xlink:href="#STIXGeneral-Regular-48" transform="translate(360.99968 0.6875)"/>
      <use xlink:href="#STIXGeneral-Regular-47" transform="translate(405.399643 0.6875)"/>
      <use xlink:href="#STIXGeneral-Regular-3" transform="translate(455.399597 0.6875)"/>
      <use xlink:href="#STIXGeneral-Regular-3a" transform="translate(480.399567 0.6875)"/>
      <use xlink:href="#STIXGeneral-Regular-44" transform="translate(574.799484 0.6875)"/>
      <use xlink:href="#STIXGeneral-Regular-57" transform="translate(619.199448 0.6875)"/>
      <use xlink:href="#STIXGeneral-Regular-48" transform="translate(646.99942 0.6875)"/>
      <use xlink:href="#STIXGeneral-Regular-55" transform="translate(691.399384 0.6875)"/>
      <use xlink:href="#STIXGeneral-Regular-3" transform="translate(724.699356 0.6875)"/>
      <use xlink:href="#STIXGeneral-Regular-30" transform="translate(749.699326 0.6875)"/>
      <use xlink:href="#STIXGeneral-Regular-44" transform="translate(838.599243 0.6875)"/>
      <use xlink:href="#STIXGeneral-Regular-56" transform="translate(882.999207 0.6875)"/>
      <use xlink:href="#STIXGeneral-Regular-56" transform="translate(921.89917 0.6875)"/>
      <use xlink:href="#STIXGeneral-Regular-3" transform="translate(960.799133 0.6875)"/>
      <use xlink:href="#STIXGeneral-Regular-59" transform="translate(985.799103 0.6875)"/>
      <use xlink:href="#STIXGeneral-Regular-4c" transform="translate(1035.799057 0.6875)"/>
      <use xlink:href="#STIXGeneral-Regular-44" transform="translate(1063.59903 0.6875)"/>
      <use xlink:href="#STIXGeneral-Regular-3" transform="translate(1107.998993 0.6875)"/>
      <use xlink:href="#STIXGeneral-Regular-30" transform="translate(1132.998962 0.6875)"/>
      <use xlink:href="#STIXGeneral-Regular-48" transform="translate(1221.89888 0.6875)"/>
      <use xlink:href="#STIXGeneral-Regular-57" transform="translate(1266.298843 0.6875)"/>
      <use xlink:href="#STIXGeneral-Regular-4b" transform="translate(1294.098816 0.6875)"/>
      <use xlink:href="#STIXGeneral-Regular-52" transform="translate(1344.09877 0.6875)"/>
      <use xlink:href="#STIXGeneral-Regular-47" transform="translate(1394.098724 0.6875)"/>
      <use xlink:href="#STIXGeneral-Regular-3" transform="translate(1444.098679 0.6875)"/>
      <use xlink:href="#STIXGeneral-Regular-14" transform="translate(1469.098648 0.6875)"/>
      <use xlink:href="#STIXGeneral-Regular-45" transform="translate(1519.098602 0.6875)"/>
      <use xlink:href="#STIXGeneral-Regular-f" transform="translate(1569.098557 0.6875)"/>
      <use xlink:href="#STIXGeneral-Regular-3" transform="translate(1594.098526 0.6875)"/>
      <use xlink:href="#Cmmi10-2d" transform="translate(1619.098495 0.6875)"/>
      <use xlink:href="#Cmmi10-6a" transform="translate(1716.11998 -14.312462) scale(0.7)"/>
      <use xlink:href="#Cmmi10-2c" transform="translate(1766.159042 -14.312462) scale(0.7)"/>
      <use xlink:href="#Cmmi10-2d" transform="translate(1799.538965 -14.312462) scale(0.7)"/>
      <use xlink:href="#Cmr10-64" transform="translate(1867.454004 -14.312462) scale(0.7)"/>
      <use xlink:href="#Cmmi10-4b" transform="translate(1902.454004 -14.312462) scale(0.7)"/>
      <use xlink:href="#STIXGeneral-Regular-3" transform="translate(1938.218365 0.6875)"/>
      <use xlink:href="#STIXGeneral-Regular-b" transform="translate(1963.218335 0.6875)"/>
      <use xlink:href="#STIXGeneral-Regular-4a" transform="translate(1996.518307 0.6875)"/>
      <use xlink:href="#STIXGeneral-Regular-12" transform="translate(2046.518261 0.6875)"/>
      <use xlink:href="#STIXGeneral-Regular-4b" transform="translate(2074.318234 0.6875)"/>
      <use xlink:href="#STIXGeneral-Regular-55" transform="translate(2124.318188 0.6875)"/>
      <use xlink:href="#STIXGeneral-Regular-c" transform="translate(2157.618161 0.6875)"/>
     </g>
    </g>
   </g>
   <g id="line2d_149">
    <path d="M 36.5 301.05 
L 313.7 23.85 
" clip-path="url(#p010daa7811)" style="fill: none; stroke-dasharray: 4.44,1.92; stroke-dashoffset: 0; stroke: #000000; stroke-width: 1.2"/>
   </g>
   <g id="patch_3">
    <path d="M 36.5 301.05 
L 36.5 23.85 
" style="fill: none; stroke: #000000; stroke-width: 0.5; stroke-linejoin: miter; stroke-linecap: square"/>
   </g>
   <g id="patch_4">
    <path d="M 313.7 301.05 
L 313.7 23.85 
" style="fill: none; stroke: #000000; stroke-width: 0.5; stroke-linejoin: miter; stroke-linecap: square"/>
   </g>
   <g id="patch_5">
    <path d="M 36.5 301.05 
L 313.7 301.05 
" style="fill: none; stroke: #000000; stroke-width: 0.5; stroke-linejoin: miter; stroke-linecap: square"/>
   </g>
   <g id="patch_6">
    <path d="M 36.5 23.85 
L 313.7 23.85 
" style="fill: none; stroke: #000000; stroke-width: 0.5; stroke-linejoin: miter; stroke-linecap: square"/>
   </g>
   <g id="text_19">
    <!-- $M_{w,evap}$ Method 1b vs Method 2 Comparison -->
    <g transform="translate(69.83 11.85) scale(0.11 -0.11)">
     <defs>
      <path id="Cmmi10-3" d="M 1288 -72 
Q 981 -72 751 87 
Q 522 247 401 517 
Q 281 788 281 1088 
Q 281 1544 511 1945 
Q 741 2347 1134 2587 
Q 1528 2828 1978 2828 
Q 2253 2828 2458 2686 
Q 2663 2544 2663 2278 
Q 2663 1909 2369 1729 
Q 2075 1550 1706 1508 
Q 1338 1466 891 1466 
L 872 1466 
Q 769 1084 769 813 
Q 769 528 900 312 
Q 1031 97 1300 97 
Q 1681 97 2032 272 
Q 2384 447 2606 756 
Q 2625 775 2656 775 
Q 2688 775 2720 739 
Q 2753 703 2753 672 
Q 2753 647 2741 634 
Q 2506 306 2109 117 
Q 1713 -72 1288 -72 
z
M 909 1631 
Q 1281 1631 1597 1665 
Q 1913 1700 2169 1839 
Q 2425 1978 2425 2272 
Q 2425 2391 2359 2480 
Q 2294 2569 2189 2616 
Q 2084 2663 1972 2663 
Q 1700 2663 1483 2516 
Q 1266 2369 1125 2133 
Q 984 1897 909 1631 
z
" transform="scale(0.015625)"/>
      <path id="Cmmi10-38" d="M 684 722 
Q 684 866 718 1037 
Q 753 1209 787 1320 
Q 822 1431 944 1753 
Q 1066 2075 1069 2088 
Q 1153 2322 1153 2472 
Q 1153 2663 1013 2663 
Q 759 2663 595 2402 
Q 431 2141 353 1819 
Q 341 1778 300 1778 
L 225 1778 
Q 172 1778 172 1838 
L 172 1856 
Q 275 2238 487 2533 
Q 700 2828 1025 2828 
Q 1253 2828 1411 2678 
Q 1569 2528 1569 2297 
Q 1569 2178 1516 2047 
Q 1391 1722 1319 1526 
Q 1247 1331 1186 1089 
Q 1125 847 1125 641 
Q 1125 400 1236 248 
Q 1347 97 1581 97 
Q 2025 97 2381 781 
Q 2494 1003 2594 1303 
Q 2694 1603 2694 1791 
Q 2694 1984 2631 2092 
Q 2569 2200 2469 2317 
Q 2369 2434 2369 2503 
Q 2369 2628 2472 2731 
Q 2575 2834 2700 2834 
Q 2853 2834 2920 2693 
Q 2988 2553 2988 2375 
Q 2988 2163 2927 1869 
Q 2866 1575 2758 1259 
Q 2650 944 2559 763 
Q 2138 -72 1575 -72 
Q 1172 -72 928 129 
Q 684 331 684 722 
z
" transform="scale(0.015625)"/>
      <path id="Cmmi10-79" d="M 1113 -72 
Q 709 -72 476 233 
Q 244 538 244 953 
Q 244 1363 456 1803 
Q 669 2244 1030 2536 
Q 1391 2828 1806 2828 
Q 1997 2828 2147 2725 
Q 2297 2622 2381 2444 
Q 2453 2700 2663 2700 
Q 2744 2700 2798 2651 
Q 2853 2603 2853 2522 
Q 2853 2503 2851 2493 
Q 2850 2484 2847 2472 
L 2400 684 
Q 2356 494 2356 372 
Q 2356 97 2541 97 
Q 2741 97 2845 351 
Q 2950 606 3022 941 
Q 3034 978 3072 978 
L 3150 978 
Q 3175 978 3190 956 
Q 3206 934 3206 916 
Q 3094 469 2961 198 
Q 2828 -72 2528 -72 
Q 2313 -72 2147 54 
Q 1981 181 1941 391 
Q 1528 -72 1113 -72 
z
M 1119 97 
Q 1350 97 1567 270 
Q 1784 444 1941 678 
Q 1947 684 1947 697 
L 2291 2088 
L 2297 2106 
Q 2259 2334 2132 2498 
Q 2006 2663 1791 2663 
Q 1575 2663 1389 2486 
Q 1203 2309 1075 2069 
Q 950 1813 836 1366 
Q 722 919 722 672 
Q 722 450 817 273 
Q 913 97 1119 97 
z
" transform="scale(0.015625)"/>
      <path id="Cmmi10-80" d="M -159 -1241 
Q -219 -1241 -219 -1159 
Q -197 -1019 -134 -1019 
Q 66 -1019 145 -983 
Q 225 -947 269 -800 
L 991 2081 
Q 1038 2200 1038 2388 
Q 1038 2663 850 2663 
Q 650 2663 553 2423 
Q 456 2184 366 1819 
Q 366 1778 313 1778 
L 238 1778 
Q 222 1778 203 1801 
Q 184 1825 184 1844 
Q 253 2122 317 2315 
Q 381 2509 517 2668 
Q 653 2828 856 2828 
Q 1075 2828 1240 2704 
Q 1406 2581 1453 2369 
Q 1628 2572 1840 2700 
Q 2053 2828 2278 2828 
Q 2547 2828 2745 2684 
Q 2944 2541 3044 2308 
Q 3144 2075 3144 1806 
Q 3144 1394 2933 953 
Q 2722 513 2361 220 
Q 2000 -72 1588 -72 
Q 1400 -72 1248 34 
Q 1097 141 1013 313 
L 722 -825 
Q 706 -919 703 -934 
Q 703 -1019 1125 -1019 
Q 1191 -1019 1191 -1100 
Q 1169 -1184 1155 -1212 
Q 1141 -1241 1081 -1241 
L -159 -1241 
z
M 1594 97 
Q 1816 97 2006 280 
Q 2197 463 2316 691 
Q 2403 863 2479 1111 
Q 2556 1359 2612 1640 
Q 2669 1922 2669 2088 
Q 2669 2234 2630 2362 
Q 2591 2491 2502 2577 
Q 2413 2663 2266 2663 
Q 2031 2663 1823 2495 
Q 1616 2328 1447 2081 
L 1447 2059 
L 1094 647 
Q 1138 419 1263 258 
Q 1388 97 1594 97 
z
" transform="scale(0.015625)"/>
      <path id="STIXGeneral-Bold-3" transform="scale(0.015625)"/>
      <path id="STIXGeneral-Bold-30" d="M 5894 0 
L 3770 0 
L 3770 160 
Q 4122 192 4230 301 
Q 4339 410 4339 698 
L 4339 3872 
L 2726 0 
L 2554 0 
L 941 3802 
L 941 826 
Q 941 454 1069 320 
Q 1197 186 1587 160 
L 1587 0 
L 90 0 
L 90 160 
Q 467 198 569 291 
Q 672 384 672 691 
L 672 3693 
Q 672 3955 563 4048 
Q 454 4141 102 4166 
L 102 4326 
L 1722 4326 
L 2995 1306 
L 4282 4326 
L 5894 4326 
L 5894 4166 
Q 5542 4141 5436 4022 
Q 5331 3904 5331 3546 
L 5331 806 
Q 5331 442 5427 317 
Q 5523 192 5894 160 
L 5894 0 
z
" transform="scale(0.015625)"/>
      <path id="STIXGeneral-Bold-48" d="M 2579 806 
L 2733 717 
Q 2451 269 2166 89 
Q 1882 -90 1466 -90 
Q 890 -90 525 342 
Q 160 774 160 1434 
Q 160 2150 528 2588 
Q 896 3027 1498 3027 
Q 2029 3027 2317 2707 
Q 2656 2336 2694 1568 
L 1082 1568 
Q 1101 1299 1133 1116 
Q 1165 934 1241 748 
Q 1318 563 1468 467 
Q 1619 371 1843 371 
Q 2048 371 2214 470 
Q 2381 570 2579 806 
z
M 1907 1805 
L 1907 1939 
Q 1907 2406 1850 2528 
Q 1773 2688 1699 2758 
Q 1626 2829 1498 2829 
Q 1267 2829 1158 2595 
Q 1050 2362 1050 1805 
L 1907 1805 
z
" transform="scale(0.015625)"/>
      <path id="STIXGeneral-Bold-57" d="M 1965 717 
L 2125 646 
Q 1926 250 1712 86 
Q 1498 -77 1178 -77 
Q 845 -77 653 105 
Q 461 288 461 608 
L 461 2669 
L 122 2669 
L 122 2842 
Q 435 3053 646 3299 
Q 858 3546 1190 4032 
L 1350 4032 
L 1350 2950 
L 1958 2950 
L 1958 2669 
L 1350 2669 
L 1350 762 
Q 1350 378 1600 378 
Q 1786 378 1965 717 
z
" transform="scale(0.015625)"/>
      <path id="STIXGeneral-Bold-4b" d="M 3418 0 
L 1920 0 
L 1920 154 
Q 2080 173 2147 259 
Q 2214 346 2214 544 
L 2214 1978 
Q 2214 2323 2144 2460 
Q 2074 2598 1888 2598 
Q 1658 2598 1440 2381 
Q 1331 2272 1331 2227 
L 1331 544 
Q 1331 346 1395 262 
Q 1459 179 1638 154 
L 1638 0 
L 102 0 
L 102 154 
Q 333 198 387 256 
Q 442 314 442 570 
L 442 3782 
Q 442 4006 384 4067 
Q 326 4128 96 4173 
L 96 4326 
L 1331 4326 
L 1331 2534 
Q 1747 3027 2272 3027 
Q 2656 3027 2880 2784 
Q 3104 2541 3104 2157 
L 3104 557 
Q 3104 339 3177 246 
Q 3251 154 3418 154 
L 3418 0 
z
" transform="scale(0.015625)"/>
      <path id="STIXGeneral-Bold-52" d="M 3046 1466 
Q 3046 794 2633 352 
Q 2221 -90 1600 -90 
Q 992 -90 576 348 
Q 160 787 160 1459 
Q 160 2157 573 2592 
Q 986 3027 1626 3027 
Q 2234 3027 2640 2585 
Q 3046 2144 3046 1466 
z
M 2106 1395 
Q 2106 2214 1997 2521 
Q 1888 2829 1606 2829 
Q 1312 2829 1206 2525 
Q 1101 2221 1101 1395 
Q 1101 698 1216 403 
Q 1331 109 1606 109 
Q 1882 109 1994 393 
Q 2106 678 2106 1395 
z
" transform="scale(0.015625)"/>
      <path id="STIXGeneral-Bold-47" d="M 3418 128 
L 3021 77 
Q 2496 6 2170 -83 
L 2170 333 
Q 1946 96 1760 3 
Q 1574 -90 1318 -90 
Q 813 -90 486 332 
Q 160 755 160 1414 
Q 160 2112 509 2569 
Q 858 3027 1389 3027 
Q 1606 3027 1776 2940 
Q 1946 2854 2150 2630 
L 2150 3802 
Q 2150 4026 2067 4086 
Q 1984 4147 1664 4173 
L 1664 4326 
L 3040 4326 
L 3040 646 
Q 3040 442 3120 365 
Q 3200 288 3418 275 
L 3418 128 
z
M 2150 717 
L 2150 2272 
Q 2080 2458 1945 2563 
Q 1811 2669 1651 2669 
Q 1107 2669 1107 1466 
Q 1107 269 1606 269 
Q 1837 269 2029 506 
Q 2150 666 2150 717 
z
" transform="scale(0.015625)"/>
      <path id="STIXGeneral-Bold-14" d="M 2822 0 
L 435 0 
L 435 154 
Q 909 160 1049 285 
Q 1190 410 1190 826 
L 1190 3245 
Q 1190 3693 960 3693 
Q 806 3693 544 3590 
L 416 3539 
L 416 3706 
L 2022 4403 
L 2138 4403 
L 2138 755 
Q 2138 390 2262 275 
Q 2387 160 2822 154 
L 2822 0 
z
" transform="scale(0.015625)"/>
      <path id="STIXGeneral-Bold-45" d="M 1350 4326 
L 1350 2669 
Q 1690 3027 2131 3027 
Q 2662 3027 2998 2611 
Q 3334 2195 3334 1530 
Q 3334 806 2931 358 
Q 2528 -90 1888 -90 
Q 1440 -90 1043 275 
L 538 -83 
L 461 -83 
L 461 3802 
Q 461 3994 397 4061 
Q 333 4128 109 4173 
L 109 4326 
L 1350 4326 
z
M 1350 2304 
L 1350 621 
Q 1350 390 1472 252 
Q 1594 115 1792 115 
Q 2394 115 2394 1414 
Q 2394 2682 1798 2682 
Q 1638 2682 1536 2595 
Q 1434 2509 1350 2304 
z
" transform="scale(0.015625)"/>
      <path id="STIXGeneral-Bold-59" d="M 3104 2950 
L 3104 2797 
Q 2950 2784 2886 2723 
Q 2822 2662 2733 2445 
L 1709 -90 
L 1542 -90 
L 774 1805 
Q 474 2547 352 2707 
Q 301 2771 134 2797 
L 134 2950 
L 1734 2950 
L 1734 2797 
L 1619 2784 
Q 1395 2758 1395 2630 
Q 1395 2573 1453 2432 
L 1958 1133 
L 2419 2298 
Q 2490 2464 2490 2586 
Q 2490 2701 2416 2742 
Q 2342 2784 2138 2797 
L 2138 2950 
L 3104 2950 
z
" transform="scale(0.015625)"/>
      <path id="STIXGeneral-Bold-56" d="M 2176 2086 
L 2016 2086 
Q 1894 2445 1715 2611 
Q 1498 2816 1235 2816 
Q 1056 2816 934 2710 
Q 813 2605 813 2445 
Q 813 2278 957 2147 
Q 1101 2016 1427 1882 
Q 1907 1683 2108 1452 
Q 2310 1222 2310 883 
Q 2310 454 2035 182 
Q 1760 -90 1325 -90 
Q 992 -90 634 58 
Q 538 96 486 96 
Q 416 96 320 -83 
L 160 -83 
L 160 973 
L 339 973 
Q 544 128 1216 128 
Q 1434 128 1565 243 
Q 1696 358 1696 544 
Q 1696 698 1555 829 
Q 1414 960 1082 1101 
Q 602 1306 387 1539 
Q 173 1773 173 2093 
Q 173 2496 457 2761 
Q 742 3027 1178 3027 
Q 1395 3027 1677 2931 
Q 1818 2886 1875 2886 
Q 1984 2886 2035 3014 
L 2176 3014 
L 2176 2086 
z
" transform="scale(0.015625)"/>
      <path id="STIXGeneral-Bold-15" d="M 3059 1350 
L 2765 0 
L 109 0 
L 109 147 
Q 806 890 1078 1213 
Q 1350 1536 1594 1914 
Q 1920 2413 1920 2861 
Q 1920 3206 1721 3440 
Q 1523 3674 1158 3674 
Q 666 3674 378 3098 
L 198 3098 
Q 634 4403 1626 4403 
Q 2150 4403 2470 4086 
Q 2790 3770 2790 3232 
Q 2790 2528 2061 1837 
L 1024 851 
L 1920 851 
Q 2438 851 2608 934 
Q 2778 1018 2899 1350 
L 3059 1350 
z
" transform="scale(0.015625)"/>
      <path id="STIXGeneral-Bold-26" d="M 4205 973 
L 4397 813 
Q 3968 282 3549 80 
Q 3130 -122 2554 -122 
Q 1536 -122 925 496 
Q 314 1114 314 2067 
Q 314 3091 938 3756 
Q 1562 4422 2534 4422 
Q 2989 4422 3533 4198 
Q 3738 4109 3827 4109 
Q 3917 4109 3977 4169 
Q 4038 4230 4109 4403 
L 4282 4403 
L 4282 2899 
L 4122 2899 
Q 3981 3296 3693 3635 
Q 3213 4211 2624 4211 
Q 2106 4211 1776 3676 
Q 1446 3142 1446 2208 
Q 1446 1216 1792 672 
Q 1933 454 2192 320 
Q 2451 186 2733 186 
Q 3142 186 3539 403 
Q 3802 550 4205 973 
z
" transform="scale(0.015625)"/>
      <path id="STIXGeneral-Bold-50" d="M 5210 0 
L 3693 0 
L 3693 154 
Q 3872 166 3936 246 
Q 4000 326 4000 531 
L 4000 1990 
Q 4000 2598 3661 2598 
Q 3475 2598 3290 2438 
Q 3232 2394 3174 2323 
Q 3117 2253 3117 2227 
L 3117 531 
Q 3117 346 3181 259 
Q 3245 173 3411 154 
L 3411 0 
L 1926 0 
L 1926 154 
Q 2099 166 2163 249 
Q 2227 333 2227 531 
L 2227 2067 
Q 2227 2355 2147 2476 
Q 2067 2598 1882 2598 
Q 1760 2598 1552 2454 
Q 1344 2310 1344 2202 
L 1344 531 
Q 1344 346 1405 262 
Q 1466 179 1632 154 
L 1632 0 
L 102 0 
L 102 154 
Q 314 192 384 272 
Q 454 352 454 550 
L 454 2387 
Q 454 2611 384 2688 
Q 314 2765 96 2797 
L 96 2950 
L 1325 2950 
L 1325 2470 
L 1344 2470 
Q 1530 2765 1744 2896 
Q 1958 3027 2266 3027 
Q 2566 3027 2752 2899 
Q 2938 2771 3085 2470 
Q 3334 2778 3542 2902 
Q 3750 3027 4026 3027 
Q 4422 3027 4656 2784 
Q 4890 2541 4890 2118 
L 4890 531 
Q 4890 326 4957 243 
Q 5024 160 5210 154 
L 5210 0 
z
" transform="scale(0.015625)"/>
      <path id="STIXGeneral-Bold-53" d="M 1357 2950 
L 1357 2509 
Q 1517 2790 1712 2908 
Q 1907 3027 2195 3027 
Q 2739 3027 3046 2659 
Q 3354 2291 3354 1594 
Q 3354 838 3024 377 
Q 2694 -83 2125 -83 
Q 1907 -83 1753 -3 
Q 1600 77 1370 301 
L 1370 -506 
Q 1370 -838 1475 -992 
Q 1581 -1146 1862 -1158 
L 1862 -1312 
L 122 -1312 
L 122 -1158 
Q 346 -1120 413 -1040 
Q 480 -960 480 -755 
L 480 2381 
Q 480 2592 409 2678 
Q 339 2765 128 2797 
L 128 2950 
L 1357 2950 
z
M 1370 2214 
L 1370 685 
Q 1446 499 1577 384 
Q 1709 269 1862 269 
Q 2406 269 2406 1498 
Q 2406 2662 1920 2662 
Q 1683 2662 1485 2426 
Q 1370 2291 1370 2214 
z
" transform="scale(0.015625)"/>
      <path id="STIXGeneral-Bold-44" d="M 3027 410 
L 3123 275 
Q 2784 -90 2406 -90 
Q 2170 -90 2051 9 
Q 1933 109 1882 352 
Q 1395 -90 864 -90 
Q 544 -90 352 80 
Q 160 250 160 589 
Q 160 1018 589 1306 
Q 909 1517 1875 1792 
L 1875 2227 
Q 1875 2541 1756 2681 
Q 1638 2822 1357 2822 
Q 1178 2822 1059 2758 
Q 941 2694 941 2586 
Q 941 2515 1011 2438 
Q 1133 2291 1133 2170 
Q 1133 2003 1011 1894 
Q 890 1786 698 1786 
Q 499 1786 390 1901 
Q 282 2016 282 2221 
Q 282 2598 618 2812 
Q 954 3027 1504 3027 
Q 2093 3027 2425 2803 
Q 2758 2579 2758 2170 
L 2758 499 
Q 2758 320 2893 320 
Q 2938 320 2963 346 
L 3027 410 
z
M 1875 621 
L 1875 1568 
Q 1094 1350 1094 794 
Q 1094 589 1187 477 
Q 1280 365 1427 365 
Q 1696 365 1875 621 
z
" transform="scale(0.015625)"/>
      <path id="STIXGeneral-Bold-55" d="M 1395 2950 
L 1395 2426 
Q 1619 2752 1817 2889 
Q 2016 3027 2259 3027 
Q 2483 3027 2630 2883 
Q 2778 2739 2778 2522 
Q 2778 2330 2666 2208 
Q 2554 2086 2374 2086 
Q 2138 2086 1990 2330 
Q 1901 2477 1811 2477 
Q 1645 2477 1533 2285 
Q 1421 2093 1421 1811 
L 1421 678 
Q 1421 371 1507 272 
Q 1594 173 1882 154 
L 1882 0 
L 186 0 
L 186 154 
Q 397 192 464 265 
Q 531 339 531 538 
L 531 2387 
Q 531 2611 460 2688 
Q 390 2765 179 2797 
L 179 2950 
L 1395 2950 
z
" transform="scale(0.015625)"/>
      <path id="STIXGeneral-Bold-4c" d="M 1376 3923 
Q 1376 3712 1232 3571 
Q 1088 3430 877 3430 
Q 666 3430 525 3571 
Q 384 3712 384 3923 
Q 384 4134 528 4278 
Q 672 4422 890 4422 
Q 1088 4422 1232 4275 
Q 1376 4128 1376 3923 
z
M 1638 0 
L 102 0 
L 102 154 
Q 326 205 384 275 
Q 442 346 442 563 
L 442 2387 
Q 442 2598 374 2675 
Q 307 2752 96 2797 
L 96 2950 
L 1331 2950 
L 1331 544 
Q 1331 339 1398 259 
Q 1466 179 1638 154 
L 1638 0 
z
" transform="scale(0.015625)"/>
      <path id="STIXGeneral-Bold-51" d="M 3450 0 
L 1952 0 
L 1952 154 
Q 2112 173 2179 259 
Q 2246 346 2246 538 
L 2246 2054 
Q 2246 2598 1920 2598 
Q 1690 2598 1472 2381 
Q 1363 2272 1363 2227 
L 1363 538 
Q 1363 352 1430 265 
Q 1498 179 1670 154 
L 1670 0 
L 134 0 
L 134 154 
Q 346 198 410 275 
Q 474 352 474 557 
L 474 2406 
Q 474 2611 410 2688 
Q 346 2765 134 2797 
L 134 2950 
L 1357 2950 
L 1357 2470 
L 1363 2470 
Q 1677 3027 2272 3027 
Q 2669 3027 2902 2780 
Q 3136 2534 3136 2118 
L 3136 538 
Q 3136 320 3200 243 
Q 3264 166 3450 154 
L 3450 0 
z
" transform="scale(0.015625)"/>
     </defs>
     <use xlink:href="#Cmmi10-2d" transform="translate(0 0.90625)"/>
     <use xlink:href="#Cmmi10-6a" transform="translate(97.021484 -14.093712) scale(0.7)"/>
     <use xlink:href="#Cmmi10-2c" transform="translate(147.060547 -14.093712) scale(0.7)"/>
     <use xlink:href="#Cmmi10-3" transform="translate(180.44047 -14.093712) scale(0.7)"/>
     <use xlink:href="#Cmmi10-38" transform="translate(212.979532 -14.093712) scale(0.7)"/>
     <use xlink:href="#Cmmi10-79" transform="translate(246.851603 -14.093712) scale(0.7)"/>
     <use xlink:href="#Cmmi10-80" transform="translate(283.799845 -14.093712) scale(0.7)"/>
     <use xlink:href="#STIXGeneral-Bold-3" transform="translate(324.725338 0.90625)"/>
     <use xlink:href="#STIXGeneral-Bold-30" transform="translate(349.725308 0.90625)"/>
     <use xlink:href="#STIXGeneral-Bold-48" transform="translate(444.125225 0.90625)"/>
     <use xlink:href="#STIXGeneral-Bold-57" transform="translate(488.525189 0.90625)"/>
     <use xlink:href="#STIXGeneral-Bold-4b" transform="translate(521.825161 0.90625)"/>
     <use xlink:href="#STIXGeneral-Bold-52" transform="translate(577.425106 0.90625)"/>
     <use xlink:href="#STIXGeneral-Bold-47" transform="translate(627.425061 0.90625)"/>
     <use xlink:href="#STIXGeneral-Bold-3" transform="translate(683.025006 0.90625)"/>
     <use xlink:href="#STIXGeneral-Bold-14" transform="translate(708.024975 0.90625)"/>
     <use xlink:href="#STIXGeneral-Bold-45" transform="translate(758.024929 0.90625)"/>
     <use xlink:href="#STIXGeneral-Bold-3" transform="translate(813.624874 0.90625)"/>
     <use xlink:href="#STIXGeneral-Bold-59" transform="translate(838.624844 0.90625)"/>
     <use xlink:href="#STIXGeneral-Bold-56" transform="translate(888.624798 0.90625)"/>
     <use xlink:href="#STIXGeneral-Bold-3" transform="translate(927.524762 0.90625)"/>
     <use xlink:href="#STIXGeneral-Bold-30" transform="translate(952.524731 0.90625)"/>
     <use xlink:href="#STIXGeneral-Bold-48" transform="translate(1046.924649 0.90625)"/>
     <use xlink:href="#STIXGeneral-Bold-57" transform="translate(1091.324612 0.90625)"/>
     <use xlink:href="#STIXGeneral-Bold-4b" transform="translate(1124.624585 0.90625)"/>
     <use xlink:href="#STIXGeneral-Bold-52" transform="translate(1180.22453 0.90625)"/>
     <use xlink:href="#STIXGeneral-Bold-47" transform="translate(1230.224484 0.90625)"/>
     <use xlink:href="#STIXGeneral-Bold-3" transform="translate(1285.824429 0.90625)"/>
     <use xlink:href="#STIXGeneral-Bold-15" transform="translate(1310.824398 0.90625)"/>
     <use xlink:href="#STIXGeneral-Bold-3" transform="translate(1360.824353 0.90625)"/>
     <use xlink:href="#STIXGeneral-Bold-26" transform="translate(1385.824322 0.90625)"/>
     <use xlink:href="#STIXGeneral-Bold-52" transform="translate(1458.024258 0.90625)"/>
     <use xlink:href="#STIXGeneral-Bold-50" transform="translate(1508.024212 0.90625)"/>
     <use xlink:href="#STIXGeneral-Bold-53" transform="translate(1591.324139 0.90625)"/>
     <use xlink:href="#STIXGeneral-Bold-44" transform="translate(1646.924084 0.90625)"/>
     <use xlink:href="#STIXGeneral-Bold-55" transform="translate(1696.924038 0.90625)"/>
     <use xlink:href="#STIXGeneral-Bold-4c" transform="translate(1741.324002 0.90625)"/>
     <use xlink:href="#STIXGeneral-Bold-56" transform="translate(1769.123974 0.90625)"/>
     <use xlink:href="#STIXGeneral-Bold-52" transform="translate(1808.023938 0.90625)"/>
     <use xlink:href="#STIXGeneral-Bold-51" transform="translate(1858.023892 0.90625)"/>
    </g>
   </g>
   <g id="legend_1">
    <g id="patch_7">
     <path d="M 42.8 58.05 
L 160.25 58.05 
Q 162.05 58.05 162.05 56.25 
L 162.05 30.15 
Q 162.05 28.35 160.25 28.35 
L 42.8 28.35 
Q 41 28.35 41 30.15 
L 41 56.25 
Q 41 58.05 42.8 58.05 
z
" style="fill: #ffffff; opacity: 0.8"/>
    </g>
    <g id="PathCollection_2">
     <path d="M 53.6 39.076113 
C 54.326289 39.076113 55.022928 38.787555 55.536492 38.273992 
C 56.050055 37.760428 56.338613 37.063789 56.338613 36.3375 
C 56.338613 35.611211 56.050055 34.914572 55.536492 34.401008 
C 55.022928 33.887445 54.326289 33.598887 53.6 33.598887 
C 52.873711 33.598887 52.177072 33.887445 51.663508 34.401008 
C 51.149945 34.914572 50.861387 35.611211 50.861387 36.3375 
C 50.861387 37.063789 51.149945 37.760428 51.663508 38.273992 
C 52.177072 38.787555 52.873711 39.076113 53.6 39.076113 
z
" style="fill: #0c5da5; fill-opacity: 0.8"/>
    </g>
    <g id="text_20">
     <!-- Experimental Trials -->
     <g transform="translate(69.8 38.7) scale(0.09 -0.09)">
      <defs>
       <path id="STIXGeneral-Regular-5b" d="M 3066 0 
L 1779 0 
L 1779 96 
Q 1939 109 1987 137 
Q 2035 166 2035 250 
Q 2035 307 1997 365 
L 1414 1261 
L 909 474 
Q 781 275 781 211 
Q 781 96 1037 96 
L 1037 0 
L 109 0 
L 109 96 
Q 269 109 355 169 
Q 442 230 576 422 
L 1306 1478 
L 704 2400 
Q 557 2624 454 2704 
Q 352 2784 211 2784 
L 154 2784 
L 154 2880 
L 1478 2880 
L 1478 2784 
Q 1203 2778 1203 2643 
Q 1203 2509 1498 2074 
Q 1581 1958 1587 1946 
Q 1619 1990 1779 2227 
Q 1811 2285 1856 2349 
Q 1901 2413 1923 2451 
Q 1946 2490 1971 2528 
Q 1997 2566 2006 2595 
Q 2016 2624 2016 2643 
Q 2016 2765 1760 2784 
L 1760 2880 
L 2771 2880 
L 2771 2784 
Q 2445 2771 2253 2502 
L 1722 1734 
L 2541 480 
Q 2790 96 3066 96 
L 3066 0 
z
" transform="scale(0.015625)"/>
       <path id="STIXGeneral-Regular-50" d="M 4960 0 
L 3565 0 
L 3565 96 
Q 3834 122 3907 208 
Q 3981 294 3981 576 
L 3981 1894 
Q 3981 2278 3869 2444 
Q 3757 2611 3488 2611 
Q 3264 2611 3107 2521 
Q 2950 2432 2803 2221 
L 2803 608 
Q 2803 301 2896 201 
Q 2989 102 3264 96 
L 3264 0 
L 1830 0 
L 1830 96 
Q 2112 115 2189 188 
Q 2266 262 2266 550 
L 2266 1901 
Q 2266 2611 1850 2611 
Q 1670 2611 1468 2531 
Q 1267 2451 1171 2336 
Q 1088 2240 1088 2227 
L 1088 448 
Q 1088 243 1177 176 
Q 1267 109 1523 96 
L 1523 0 
L 102 0 
L 102 96 
Q 371 102 460 195 
Q 550 288 550 563 
L 550 2150 
Q 550 2387 499 2480 
Q 448 2573 326 2573 
Q 230 2573 122 2547 
L 122 2656 
Q 557 2778 1011 2944 
L 1062 2925 
L 1062 2451 
L 1075 2451 
Q 1363 2752 1584 2848 
Q 1805 2944 2054 2944 
Q 2560 2944 2733 2406 
Q 3232 2944 3776 2944 
Q 4518 2944 4518 1792 
L 4518 493 
Q 4518 282 4582 202 
Q 4646 122 4794 109 
L 4960 96 
L 4960 0 
z
" transform="scale(0.015625)"/>
       <path id="STIXGeneral-Regular-51" d="M 3104 0 
L 1773 0 
L 1779 96 
Q 2016 115 2096 233 
Q 2176 352 2176 672 
L 2176 1946 
Q 2176 2592 1709 2592 
Q 1549 2592 1408 2515 
Q 1267 2438 1050 2227 
L 1050 461 
Q 1050 269 1136 192 
Q 1222 115 1466 96 
L 1466 0 
L 115 0 
L 115 96 
Q 358 115 435 214 
Q 512 314 512 602 
L 512 2157 
Q 512 2394 467 2483 
Q 422 2573 288 2573 
Q 160 2573 102 2547 
L 102 2656 
Q 550 2784 979 2944 
L 1030 2925 
L 1030 2426 
L 1037 2426 
Q 1491 2944 1958 2944 
Q 2323 2944 2518 2688 
Q 2714 2432 2714 1958 
L 2714 544 
Q 2714 288 2790 205 
Q 2867 122 3104 96 
L 3104 0 
z
" transform="scale(0.015625)"/>
       <path id="STIXGeneral-Regular-4f" d="M 1645 0 
L 134 0 
L 134 96 
Q 435 122 531 221 
Q 627 320 627 589 
L 627 3590 
Q 627 3821 569 3910 
Q 512 4000 358 4000 
Q 224 4000 122 3987 
L 122 4090 
Q 730 4237 1133 4371 
L 1165 4346 
L 1165 557 
Q 1165 288 1254 201 
Q 1344 115 1645 96 
L 1645 0 
z
" transform="scale(0.015625)"/>
       <path id="STIXGeneral-Regular-37" d="M 3795 3149 
L 3642 3149 
Q 3539 3674 3353 3821 
Q 3168 3968 2656 3968 
L 2278 3968 
L 2278 710 
Q 2278 346 2387 243 
Q 2496 141 2893 122 
L 2893 0 
L 1024 0 
L 1024 122 
Q 1427 147 1526 256 
Q 1626 365 1626 787 
L 1626 3968 
L 1242 3968 
Q 723 3968 540 3817 
Q 358 3667 262 3149 
L 109 3149 
L 154 4237 
L 3750 4237 
L 3795 3149 
z
" transform="scale(0.015625)"/>
      </defs>
      <use xlink:href="#STIXGeneral-Regular-28"/>
      <use xlink:href="#STIXGeneral-Regular-5b" transform="translate(61.09375 0)"/>
      <use xlink:href="#STIXGeneral-Regular-53" transform="translate(111.09375 0)"/>
      <use xlink:href="#STIXGeneral-Regular-48" transform="translate(161.09375 0)"/>
      <use xlink:href="#STIXGeneral-Regular-55" transform="translate(205.5 0)"/>
      <use xlink:href="#STIXGeneral-Regular-4c" transform="translate(240.703125 0)"/>
      <use xlink:href="#STIXGeneral-Regular-50" transform="translate(268.5 0)"/>
      <use xlink:href="#STIXGeneral-Regular-48" transform="translate(346.296875 0)"/>
      <use xlink:href="#STIXGeneral-Regular-51" transform="translate(390.703125 0)"/>
      <use xlink:href="#STIXGeneral-Regular-57" transform="translate(440.703125 0)"/>
      <use xlink:href="#STIXGeneral-Regular-44" transform="translate(469.5 0)"/>
      <use xlink:href="#STIXGeneral-Regular-4f" transform="translate(513.90625 0)"/>
      <use xlink:href="#STIXGeneral-Regular-3" transform="translate(541.703125 0)"/>
      <use xlink:href="#STIXGeneral-Regular-37" transform="translate(566.703125 0)"/>
      <use xlink:href="#STIXGeneral-Regular-55" transform="translate(625.390625 0)"/>
      <use xlink:href="#STIXGeneral-Regular-4c" transform="translate(660.59375 0)"/>
      <use xlink:href="#STIXGeneral-Regular-44" transform="translate(688.390625 0)"/>
      <use xlink:href="#STIXGeneral-Regular-4f" transform="translate(732.796875 0)"/>
      <use xlink:href="#STIXGeneral-Regular-56" transform="translate(760.59375 0)"/>
     </g>
    </g>
    <g id="line2d_150">
     <path d="M 44.6 49.05 
L 53.6 49.05 
L 62.6 49.05 
" style="fill: none; stroke-dasharray: 4.44,1.92; stroke-dashoffset: 0; stroke: #000000; stroke-width: 1.2"/>
    </g>
    <g id="text_21">
     <!-- Ideal Agreement ($y=x$) -->
     <g transform="translate(69.8 52.2) scale(0.09 -0.09)">
      <defs>
       <path id="STIXGeneral-Regular-2c" d="M 2016 0 
L 115 0 
L 115 122 
Q 518 134 627 240 
Q 736 346 736 717 
L 736 3526 
Q 736 3898 633 3994 
Q 531 4090 115 4115 
L 115 4237 
L 2016 4237 
L 2016 4115 
Q 1613 4096 1501 3993 
Q 1389 3891 1389 3526 
L 1389 717 
Q 1389 358 1504 246 
Q 1619 134 2016 122 
L 2016 0 
z
" transform="scale(0.015625)"/>
       <path id="STIXGeneral-Regular-24" d="M 4525 0 
L 2893 0 
L 2893 122 
Q 3149 122 3245 179 
Q 3334 224 3334 333 
Q 3334 499 3213 781 
L 2950 1382 
L 1274 1382 
L 979 653 
Q 922 506 922 384 
Q 922 237 1027 179 
Q 1133 122 1370 122 
L 1370 0 
L 96 0 
L 96 122 
Q 365 147 486 316 
Q 608 486 902 1190 
L 2221 4314 
L 2349 4314 
L 3923 710 
Q 4064 378 4176 262 
Q 4288 147 4525 122 
L 4525 0 
z
M 2861 1645 
L 2118 3405 
L 1382 1645 
L 2861 1645 
z
" transform="scale(0.015625)"/>
       <path id="Cmmi10-72" d="M 538 -916 
Q 672 -1147 1006 -1147 
Q 1309 -1147 1531 -934 
Q 1753 -722 1889 -420 
Q 2025 -119 2100 197 
Q 1816 -72 1484 -72 
Q 1231 -72 1053 15 
Q 875 103 776 276 
Q 678 450 678 697 
Q 678 906 734 1126 
Q 791 1347 892 1617 
Q 994 1888 1069 2088 
Q 1153 2322 1153 2472 
Q 1153 2663 1013 2663 
Q 759 2663 595 2402 
Q 431 2141 353 1819 
Q 341 1778 300 1778 
L 225 1778 
Q 172 1778 172 1838 
L 172 1856 
Q 275 2238 487 2533 
Q 700 2828 1025 2828 
Q 1253 2828 1411 2678 
Q 1569 2528 1569 2297 
Q 1569 2178 1516 2047 
Q 1488 1969 1388 1706 
Q 1288 1444 1234 1272 
Q 1181 1100 1147 934 
Q 1113 769 1113 603 
Q 1113 391 1203 244 
Q 1294 97 1491 97 
Q 1888 97 2203 581 
L 2688 2553 
Q 2709 2638 2787 2698 
Q 2866 2759 2956 2759 
Q 3034 2759 3092 2709 
Q 3150 2659 3150 2578 
Q 3150 2541 3144 2528 
L 2509 -19 
Q 2425 -347 2200 -647 
Q 1975 -947 1658 -1130 
Q 1341 -1313 997 -1313 
Q 831 -1313 668 -1248 
Q 506 -1184 406 -1056 
Q 306 -928 306 -756 
Q 306 -581 409 -453 
Q 513 -325 684 -325 
Q 788 -325 858 -389 
Q 928 -453 928 -556 
Q 928 -703 818 -812 
Q 709 -922 563 -922 
Q 556 -919 550 -917 
Q 544 -916 538 -916 
z
" transform="scale(0.015625)"/>
       <path id="Cmr10-29" d="M 481 850 
Q 428 850 393 890 
Q 359 931 359 978 
Q 359 1031 393 1068 
Q 428 1106 481 1106 
L 4500 1106 
Q 4547 1106 4581 1068 
Q 4616 1031 4616 978 
Q 4616 931 4581 890 
Q 4547 850 4500 850 
L 481 850 
z
M 481 2094 
Q 428 2094 393 2131 
Q 359 2169 359 2222 
Q 359 2269 393 2309 
Q 428 2350 481 2350 
L 4500 2350 
Q 4547 2350 4581 2309 
Q 4616 2269 4616 2222 
Q 4616 2169 4581 2131 
Q 4547 2094 4500 2094 
L 481 2094 
z
" transform="scale(0.015625)"/>
       <path id="Cmmi10-3f" d="M 500 184 
Q 613 97 819 97 
Q 1019 97 1172 289 
Q 1325 481 1381 709 
L 1672 1844 
Q 1741 2153 1741 2266 
Q 1741 2425 1652 2544 
Q 1563 2663 1403 2663 
Q 1200 2663 1022 2536 
Q 844 2409 722 2214 
Q 600 2019 550 1819 
Q 538 1778 500 1778 
L 422 1778 
Q 372 1778 372 1838 
L 372 1856 
Q 434 2094 584 2320 
Q 734 2547 951 2687 
Q 1169 2828 1416 2828 
Q 1650 2828 1839 2703 
Q 2028 2578 2106 2363 
Q 2216 2559 2386 2693 
Q 2556 2828 2759 2828 
Q 2897 2828 3040 2779 
Q 3184 2731 3275 2631 
Q 3366 2531 3366 2381 
Q 3366 2219 3261 2101 
Q 3156 1984 2994 1984 
Q 2891 1984 2822 2050 
Q 2753 2116 2753 2216 
Q 2753 2350 2845 2451 
Q 2938 2553 3066 2572 
Q 2950 2663 2747 2663 
Q 2541 2663 2389 2472 
Q 2238 2281 2175 2047 
L 1894 916 
Q 1825 659 1825 494 
Q 1825 331 1917 214 
Q 2009 97 2163 97 
Q 2463 97 2698 361 
Q 2934 625 3009 941 
Q 3022 978 3059 978 
L 3138 978 
Q 3163 978 3178 961 
Q 3194 944 3194 922 
Q 3194 916 3188 903 
Q 3097 522 2806 225 
Q 2516 -72 2150 -72 
Q 1916 -72 1727 54 
Q 1538 181 1459 397 
Q 1359 209 1182 68 
Q 1006 -72 806 -72 
Q 669 -72 523 -23 
Q 378 25 287 125 
Q 197 225 197 378 
Q 197 528 301 651 
Q 406 775 563 775 
Q 669 775 741 711 
Q 813 647 813 544 
Q 813 409 723 309 
Q 634 209 500 184 
z
" transform="scale(0.015625)"/>
      </defs>
      <use xlink:href="#STIXGeneral-Regular-2c" transform="translate(0 0.703125)"/>
      <use xlink:href="#STIXGeneral-Regular-47" transform="translate(33.299973 0.703125)"/>
      <use xlink:href="#STIXGeneral-Regular-48" transform="translate(83.299927 0.703125)"/>
      <use xlink:href="#STIXGeneral-Regular-44" transform="translate(127.69989 0.703125)"/>
      <use xlink:href="#STIXGeneral-Regular-4f" transform="translate(172.099854 0.703125)"/>
      <use xlink:href="#STIXGeneral-Regular-3" transform="translate(199.899826 0.703125)"/>
      <use xlink:href="#STIXGeneral-Regular-24" transform="translate(224.899796 0.703125)"/>
      <use xlink:href="#STIXGeneral-Regular-4a" transform="translate(297.099731 0.703125)"/>
      <use xlink:href="#STIXGeneral-Regular-55" transform="translate(347.099686 0.703125)"/>
      <use xlink:href="#STIXGeneral-Regular-48" transform="translate(380.399658 0.703125)"/>
      <use xlink:href="#STIXGeneral-Regular-48" transform="translate(424.799622 0.703125)"/>
      <use xlink:href="#STIXGeneral-Regular-50" transform="translate(469.199585 0.703125)"/>
      <use xlink:href="#STIXGeneral-Regular-48" transform="translate(546.999512 0.703125)"/>
      <use xlink:href="#STIXGeneral-Regular-51" transform="translate(591.399475 0.703125)"/>
      <use xlink:href="#STIXGeneral-Regular-57" transform="translate(641.399429 0.703125)"/>
      <use xlink:href="#STIXGeneral-Regular-3" transform="translate(669.199402 0.703125)"/>
      <use xlink:href="#STIXGeneral-Regular-b" transform="translate(694.199371 0.703125)"/>
      <use xlink:href="#Cmmi10-72" transform="translate(727.499344 0.703125)"/>
      <use xlink:href="#Cmr10-29" transform="translate(796.522839 0.703125)"/>
      <use xlink:href="#Cmmi10-3f" transform="translate(894.208443 0.703125)"/>
      <use xlink:href="#STIXGeneral-Regular-c" transform="translate(951.288521 0.703125)"/>
     </g>
    </g>
   </g>
  </g>
 </g>
 <defs>
  <clipPath id="p010daa7811">
   <rect x="36.5" y="23.85" width="277.2" height="277.2"/>
  </clipPath>
 </defs>
</svg>
