<?xml version="1.0" encoding="utf-8" standalone="no"?>
<!DOCTYPE svg PUBLIC "-//W3C//DTD SVG 1.1//EN"
  "http://www.w3.org/Graphics/SVG/1.1/DTD/svg11.dtd">
<svg xmlns:xlink="http://www.w3.org/1999/xlink" width="346.6pt" height="319.845pt" viewBox="0 0 346.6 319.845" xmlns="http://www.w3.org/2000/svg" version="1.1">
 <metadata>
  <rdf:RDF xmlns:dc="http://purl.org/dc/elements/1.1/" xmlns:cc="http://creativecommons.org/ns#" xmlns:rdf="http://www.w3.org/1999/02/22-rdf-syntax-ns#">
   <cc:Work>
    <dc:type rdf:resource="http://purl.org/dc/dcmitype/StillImage"/>
    <dc:date>2026-07-02T19:39:54.628966</dc:date>
    <dc:format>image/svg+xml</dc:format>
    <dc:creator>
     <cc:Agent>
      <dc:title>Matplotlib v3.11.0, https://matplotlib.org/</dc:title>
     </cc:Agent>
    </dc:creator>
   </cc:Work>
  </rdf:RDF>
 </metadata>
 <defs>
  <style type="text/css">*{stroke-linejoin: round; stroke-linecap: butt}</style>
 </defs>
 <g id="figure_1">
  <g id="patch_1">
   <path d="M -0 319.845 
L 346.6 319.845 
L 346.6 0 
L -0 0 
z
" style="fill: #ffffff"/>
  </g>
  <g id="axes_1">
   <g id="patch_2">
    <path d="M 36.1 292.745 
L 343 292.745 
L 343 43.265 
L 36.1 43.265 
z
" style="fill: #ffffff"/>
   </g>
   <g id="patch_3">
    <path d="M 50.05 292.745 
L 101.294898 292.745 
L 101.294898 76.9448 
L 50.05 76.9448 
z
" clip-path="url(#p439e7886dc)" style="fill: #00b945"/>
   </g>
   <g id="patch_4">
    <path d="M 163.927551 292.745 
L 215.172449 292.745 
L 215.172449 61.976 
L 163.927551 61.976 
z
" clip-path="url(#p439e7886dc)" style="fill: #00b945"/>
   </g>
   <g id="patch_5">
    <path d="M 277.805102 292.745 
L 329.05 292.745 
L 329.05 57.4022 
L 277.805102 57.4022 
z
" clip-path="url(#p439e7886dc)" style="fill: #00b945"/>
   </g>
   <g id="matplotlib.axis_1">
    <g id="xtick_1">
     <g id="line2d_1">
      <defs>
       <path id="m1e451f984c" d="M 0 0 
L 0 -3 
" style="stroke: #000000; stroke-width: 0.5"/>
      </defs>
      <g>
       <use xlink:href="#m1e451f984c" x="75.672449" y="292.745" style="stroke: #000000; stroke-width: 0.5"/>
      </g>
     </g>
     <g id="line2d_2">
      <defs>
       <path id="m9fdfa60ecf" d="M 0 0 
L 0 3 
" style="stroke: #000000; stroke-width: 0.5"/>
      </defs>
      <g>
       <use xlink:href="#m9fdfa60ecf" x="75.672449" y="43.265" style="stroke: #000000; stroke-width: 0.5"/>
      </g>
     </g>
     <g id="text_1">
      <!-- No Guidevanes -->
      <g transform="translate(38.824949 300.745) scale(0.06 -0.06)">
       <defs>
        <path id="STIXGeneral-Regular-31" d="M 4525 4237 
L 4525 4115 
Q 4198 4083 4102 4000 
Q 4000 3910 3958 3756 
Q 3917 3603 3917 3245 
L 3917 -70 
L 3802 -70 
L 979 3443 
L 979 960 
Q 979 474 1088 323 
Q 1197 173 1574 122 
L 1574 0 
L 77 0 
L 77 122 
Q 474 166 586 310 
Q 698 454 698 960 
L 698 3776 
Q 531 3981 416 4048 
Q 301 4115 77 4115 
L 77 4237 
L 1165 4237 
L 3635 1146 
L 3635 3322 
Q 3635 3808 3514 3949 
Q 3437 4032 3344 4061 
Q 3251 4090 3008 4115 
L 3008 4237 
L 4525 4237 
z
" transform="scale(0.015625)"/>
        <path id="STIXGeneral-Regular-52" d="M 3008 1478 
Q 3008 806 2608 371 
Q 2208 -64 1568 -64 
Q 979 -64 582 368 
Q 186 800 186 1459 
Q 186 2125 582 2534 
Q 979 2944 1626 2944 
Q 2221 2944 2614 2537 
Q 3008 2131 3008 1478 
z
M 2432 1306 
Q 2432 2035 2112 2445 
Q 1856 2765 1504 2765 
Q 1171 2765 966 2493 
Q 762 2221 762 1747 
Q 762 928 1101 435 
Q 1318 115 1677 115 
Q 2029 115 2230 432 
Q 2432 749 2432 1306 
z
" transform="scale(0.015625)"/>
        <path id="STIXGeneral-Regular-3" transform="scale(0.015625)"/>
        <path id="STIXGeneral-Regular-2a" d="M 4538 2266 
L 4538 2150 
Q 4256 2125 4173 2035 
Q 4090 1946 4090 1638 
L 4090 358 
Q 3539 -90 2464 -90 
Q 1965 -90 1507 89 
Q 1050 269 736 595 
Q 205 1152 205 2093 
Q 205 3155 890 3776 
Q 1491 4326 2419 4326 
Q 2829 4326 3270 4179 
Q 3443 4115 3552 4115 
Q 3654 4115 3731 4176 
Q 3808 4237 3840 4326 
L 3981 4326 
L 4032 2976 
L 3885 2976 
Q 3680 3475 3430 3718 
Q 3059 4070 2496 4070 
Q 1856 4070 1427 3629 
Q 934 3136 934 2074 
Q 934 1190 1395 678 
Q 1856 166 2618 166 
Q 2982 166 3225 281 
Q 3469 397 3469 557 
L 3469 1562 
Q 3469 1933 3376 2025 
Q 3283 2118 2899 2150 
L 2899 2266 
L 4538 2266 
z
" transform="scale(0.015625)"/>
        <path id="STIXGeneral-Regular-58" d="M 3072 320 
L 3072 230 
Q 2573 96 2195 -58 
L 2163 -38 
L 2163 486 
L 2150 486 
Q 1747 -64 1235 -64 
Q 870 -64 662 160 
Q 454 384 454 755 
L 454 2362 
Q 454 2598 371 2688 
Q 288 2778 58 2790 
L 58 2880 
L 992 2880 
L 992 813 
Q 992 595 1123 451 
Q 1254 307 1446 307 
Q 1760 307 1984 506 
Q 2067 582 2099 649 
Q 2131 717 2131 877 
L 2131 2355 
Q 2131 2605 2041 2678 
Q 1952 2752 1658 2771 
L 1658 2880 
L 2669 2880 
L 2669 685 
Q 2669 461 2742 390 
Q 2816 320 3034 320 
L 3072 320 
z
" transform="scale(0.015625)"/>
        <path id="STIXGeneral-Regular-4c" d="M 1152 4045 
Q 1152 3904 1056 3811 
Q 960 3718 819 3718 
Q 685 3718 592 3811 
Q 499 3904 499 4045 
Q 499 4179 595 4275 
Q 691 4371 826 4371 
Q 966 4371 1059 4275 
Q 1152 4179 1152 4045 
z
M 1619 0 
L 102 0 
L 102 96 
Q 435 115 521 211 
Q 608 307 608 666 
L 608 2118 
Q 608 2342 563 2432 
Q 518 2522 397 2522 
Q 243 2522 128 2490 
L 128 2592 
L 1120 2944 
L 1146 2918 
L 1146 672 
Q 1146 314 1226 218 
Q 1306 122 1619 96 
L 1619 0 
z
" transform="scale(0.015625)"/>
        <path id="STIXGeneral-Regular-47" d="M 3142 269 
L 2202 -64 
L 2176 -45 
L 2176 365 
Q 1869 -64 1357 -64 
Q 826 -64 499 317 
Q 173 698 173 1312 
Q 173 1990 563 2467 
Q 954 2944 1504 2944 
Q 1850 2944 2176 2669 
L 2176 3667 
Q 2176 3866 2118 3930 
Q 2061 3994 1882 3994 
Q 1792 3994 1741 3987 
L 1741 4090 
Q 2323 4243 2682 4371 
L 2714 4358 
L 2714 730 
Q 2714 506 2768 435 
Q 2822 365 2995 365 
Q 3034 365 3142 371 
L 3142 269 
z
M 2176 653 
L 2176 2125 
Q 2176 2381 1981 2573 
Q 1786 2765 1523 2765 
Q 1158 2765 940 2438 
Q 723 2112 723 1568 
Q 723 979 963 624 
Q 1203 269 1606 269 
Q 1907 269 2080 474 
Q 2176 582 2176 653 
z
" transform="scale(0.015625)"/>
        <path id="STIXGeneral-Regular-48" d="M 2611 1050 
L 2714 1005 
Q 2330 -64 1376 -64 
Q 813 -64 486 329 
Q 160 723 160 1389 
Q 160 2074 525 2509 
Q 890 2944 1485 2944 
Q 2061 2944 2374 2502 
Q 2560 2246 2592 1773 
L 621 1773 
Q 646 1370 700 1158 
Q 755 947 915 730 
Q 1184 378 1626 378 
Q 1939 378 2153 531 
Q 2368 685 2611 1050 
z
M 634 1978 
L 1939 1978 
Q 1882 2381 1750 2547 
Q 1619 2714 1312 2714 
Q 1043 2714 864 2525 
Q 685 2336 634 1978 
z
" transform="scale(0.015625)"/>
        <path id="STIXGeneral-Regular-59" d="M 3053 2880 
L 3053 2784 
Q 2906 2771 2835 2688 
Q 2765 2605 2637 2285 
L 1818 230 
Q 1690 -90 1638 -90 
Q 1587 -90 1523 77 
Q 1510 96 1497 141 
Q 1485 186 1472 211 
L 704 2048 
Q 499 2534 403 2652 
Q 307 2771 122 2784 
L 122 2880 
L 1376 2880 
L 1376 2784 
Q 1210 2771 1146 2732 
Q 1082 2694 1082 2611 
Q 1082 2509 1139 2368 
L 1792 730 
L 2426 2387 
Q 2464 2483 2464 2579 
Q 2464 2758 2163 2784 
L 2163 2880 
L 3053 2880 
z
" transform="scale(0.015625)"/>
        <path id="STIXGeneral-Regular-44" d="M 2829 422 
L 2829 243 
Q 2586 -64 2253 -64 
Q 1888 -64 1843 403 
L 1837 403 
Q 1427 -64 909 -64 
Q 608 -64 422 112 
Q 237 288 237 602 
Q 237 1050 685 1350 
Q 992 1555 1837 1869 
L 1837 2214 
Q 1837 2502 1699 2646 
Q 1562 2790 1338 2790 
Q 1146 2790 1018 2697 
Q 890 2605 890 2477 
Q 890 2419 909 2348 
Q 928 2278 928 2208 
Q 928 2112 841 2029 
Q 755 1946 634 1946 
Q 525 1946 441 2029 
Q 358 2112 358 2240 
Q 358 2547 685 2752 
Q 986 2944 1421 2944 
Q 1939 2944 2176 2656 
Q 2291 2522 2323 2384 
Q 2355 2246 2355 1946 
L 2355 723 
Q 2355 301 2554 301 
Q 2682 301 2829 422 
z
M 1837 813 
L 1837 1715 
Q 1248 1510 1018 1293 
Q 800 1094 800 800 
Q 800 557 921 432 
Q 1043 307 1242 307 
Q 1453 307 1613 410 
Q 1747 506 1792 589 
Q 1837 672 1837 813 
z
" transform="scale(0.015625)"/>
        <path id="STIXGeneral-Regular-51" d="M 3104 0 
L 1773 0 
L 1779 96 
Q 2016 115 2096 233 
Q 2176 352 2176 672 
L 2176 1946 
Q 2176 2592 1709 2592 
Q 1549 2592 1408 2515 
Q 1267 2438 1050 2227 
L 1050 461 
Q 1050 269 1136 192 
Q 1222 115 1466 96 
L 1466 0 
L 115 0 
L 115 96 
Q 358 115 435 214 
Q 512 314 512 602 
L 512 2157 
Q 512 2394 467 2483 
Q 422 2573 288 2573 
Q 160 2573 102 2547 
L 102 2656 
Q 550 2784 979 2944 
L 1030 2925 
L 1030 2426 
L 1037 2426 
Q 1491 2944 1958 2944 
Q 2323 2944 2518 2688 
Q 2714 2432 2714 1958 
L 2714 544 
Q 2714 288 2790 205 
Q 2867 122 3104 96 
L 3104 0 
z
" transform="scale(0.015625)"/>
        <path id="STIXGeneral-Regular-56" d="M 998 1926 
L 1664 1523 
Q 1984 1331 2105 1164 
Q 2227 998 2227 736 
Q 2227 416 1961 176 
Q 1696 -64 1331 -64 
Q 1030 -64 864 -6 
Q 691 51 570 51 
Q 461 51 416 -26 
L 333 -26 
L 333 979 
L 435 979 
Q 538 512 730 294 
Q 922 77 1248 77 
Q 1485 77 1632 211 
Q 1779 346 1779 550 
Q 1779 845 1440 1030 
L 1094 1222 
Q 326 1651 326 2150 
Q 326 2522 566 2730 
Q 806 2938 1210 2938 
Q 1491 2938 1638 2867 
Q 1754 2816 1818 2816 
Q 1862 2816 1920 2880 
L 1990 2880 
L 2022 2010 
L 1926 2010 
Q 1818 2445 1654 2621 
Q 1491 2797 1203 2797 
Q 986 2797 854 2688 
Q 723 2579 723 2362 
Q 723 2253 796 2128 
Q 870 2003 998 1926 
z
" transform="scale(0.015625)"/>
       </defs>
       <use xlink:href="#STIXGeneral-Regular-31"/>
       <use xlink:href="#STIXGeneral-Regular-52" transform="translate(70.90625 0)"/>
       <use xlink:href="#STIXGeneral-Regular-3" transform="translate(120.90625 0)"/>
       <use xlink:href="#STIXGeneral-Regular-2a" transform="translate(145.90625 0)"/>
       <use xlink:href="#STIXGeneral-Regular-58" transform="translate(218.109375 0)"/>
       <use xlink:href="#STIXGeneral-Regular-4c" transform="translate(268.109375 0)"/>
       <use xlink:href="#STIXGeneral-Regular-47" transform="translate(295.90625 0)"/>
       <use xlink:href="#STIXGeneral-Regular-48" transform="translate(345.90625 0)"/>
       <use xlink:href="#STIXGeneral-Regular-59" transform="translate(388.40625 0)"/>
       <use xlink:href="#STIXGeneral-Regular-44" transform="translate(436.40625 0)"/>
       <use xlink:href="#STIXGeneral-Regular-51" transform="translate(480.8125 0)"/>
       <use xlink:href="#STIXGeneral-Regular-48" transform="translate(530.8125 0)"/>
       <use xlink:href="#STIXGeneral-Regular-56" transform="translate(575.21875 0)"/>
      </g>
     </g>
    </g>
    <g id="xtick_2">
     <g id="line2d_3">
      <g>
       <use xlink:href="#m1e451f984c" x="189.55" y="292.745" style="stroke: #000000; stroke-width: 0.5"/>
      </g>
     </g>
     <g id="line2d_4">
      <g>
       <use xlink:href="#m9fdfa60ecf" x="189.55" y="43.265" style="stroke: #000000; stroke-width: 0.5"/>
      </g>
     </g>
     <g id="text_2">
      <!-- Guidevanes, No Grills -->
      <g transform="translate(135.920313 300.745) scale(0.06 -0.06)">
       <defs>
        <path id="STIXGeneral-Regular-f" d="M 531 -902 
L 467 -781 
Q 998 -422 998 -96 
Q 998 -13 909 -13 
Q 883 -13 822 -25 
Q 762 -38 723 -38 
Q 352 -38 352 288 
Q 352 454 457 553 
Q 563 653 736 653 
Q 954 653 1101 496 
Q 1248 339 1248 96 
Q 1248 -198 1053 -473 
Q 858 -749 531 -902 
z
" transform="scale(0.015625)"/>
        <path id="STIXGeneral-Regular-55" d="M 1024 2931 
L 1024 2342 
Q 1267 2688 1430 2816 
Q 1594 2944 1792 2944 
Q 1958 2944 2051 2854 
Q 2144 2765 2144 2605 
Q 2144 2470 2077 2393 
Q 2010 2317 1894 2317 
Q 1773 2317 1638 2445 
Q 1536 2541 1472 2541 
Q 1338 2541 1181 2355 
Q 1024 2170 1024 2016 
L 1024 576 
Q 1024 301 1133 205 
Q 1242 109 1568 96 
L 1568 0 
L 32 0 
L 32 96 
Q 339 154 412 224 
Q 486 294 486 538 
L 486 2138 
Q 486 2349 438 2435 
Q 390 2522 269 2522 
Q 166 2522 45 2496 
L 45 2598 
Q 448 2726 992 2944 
L 1024 2931 
z
" transform="scale(0.015625)"/>
        <path id="STIXGeneral-Regular-4f" d="M 1645 0 
L 134 0 
L 134 96 
Q 435 122 531 221 
Q 627 320 627 589 
L 627 3590 
Q 627 3821 569 3910 
Q 512 4000 358 4000 
Q 224 4000 122 3987 
L 122 4090 
Q 730 4237 1133 4371 
L 1165 4346 
L 1165 557 
Q 1165 288 1254 201 
Q 1344 115 1645 96 
L 1645 0 
z
" transform="scale(0.015625)"/>
       </defs>
       <use xlink:href="#STIXGeneral-Regular-2a"/>
       <use xlink:href="#STIXGeneral-Regular-58" transform="translate(72.203125 0)"/>
       <use xlink:href="#STIXGeneral-Regular-4c" transform="translate(122.203125 0)"/>
       <use xlink:href="#STIXGeneral-Regular-47" transform="translate(150 0)"/>
       <use xlink:href="#STIXGeneral-Regular-48" transform="translate(200 0)"/>
       <use xlink:href="#STIXGeneral-Regular-59" transform="translate(242.5 0)"/>
       <use xlink:href="#STIXGeneral-Regular-44" transform="translate(290.5 0)"/>
       <use xlink:href="#STIXGeneral-Regular-51" transform="translate(334.90625 0)"/>
       <use xlink:href="#STIXGeneral-Regular-48" transform="translate(384.90625 0)"/>
       <use xlink:href="#STIXGeneral-Regular-56" transform="translate(429.3125 0)"/>
       <use xlink:href="#STIXGeneral-Regular-f" transform="translate(468.21875 0)"/>
       <use xlink:href="#STIXGeneral-Regular-3" transform="translate(493.21875 0)"/>
       <use xlink:href="#STIXGeneral-Regular-31" transform="translate(518.21875 0)"/>
       <use xlink:href="#STIXGeneral-Regular-52" transform="translate(589.125 0)"/>
       <use xlink:href="#STIXGeneral-Regular-3" transform="translate(639.125 0)"/>
       <use xlink:href="#STIXGeneral-Regular-2a" transform="translate(664.125 0)"/>
       <use xlink:href="#STIXGeneral-Regular-55" transform="translate(736.328125 0)"/>
       <use xlink:href="#STIXGeneral-Regular-4c" transform="translate(771.53125 0)"/>
       <use xlink:href="#STIXGeneral-Regular-4f" transform="translate(799.328125 0)"/>
       <use xlink:href="#STIXGeneral-Regular-4f" transform="translate(827.125 0)"/>
       <use xlink:href="#STIXGeneral-Regular-56" transform="translate(854.921875 0)"/>
      </g>
     </g>
    </g>
    <g id="xtick_3">
     <g id="line2d_5">
      <g>
       <use xlink:href="#m1e451f984c" x="303.427551" y="292.745" style="stroke: #000000; stroke-width: 0.5"/>
      </g>
     </g>
     <g id="line2d_6">
      <g>
       <use xlink:href="#m9fdfa60ecf" x="303.427551" y="43.265" style="stroke: #000000; stroke-width: 0.5"/>
      </g>
     </g>
     <g id="text_3">
      <!-- Guidevanes + Grills -->
      <g transform="translate(254.442239 300.745) scale(0.06 -0.06)">
       <defs>
        <path id="STIXGeneral-Regular-e" d="M 4070 1408 
L 2400 1408 
L 2400 -262 
L 1978 -262 
L 1978 1408 
L 307 1408 
L 307 1830 
L 1978 1830 
L 1978 3501 
L 2400 3501 
L 2400 1830 
L 4070 1830 
L 4070 1408 
z
" transform="scale(0.015625)"/>
       </defs>
       <use xlink:href="#STIXGeneral-Regular-2a"/>
       <use xlink:href="#STIXGeneral-Regular-58" transform="translate(72.203125 0)"/>
       <use xlink:href="#STIXGeneral-Regular-4c" transform="translate(122.203125 0)"/>
       <use xlink:href="#STIXGeneral-Regular-47" transform="translate(150 0)"/>
       <use xlink:href="#STIXGeneral-Regular-48" transform="translate(200 0)"/>
       <use xlink:href="#STIXGeneral-Regular-59" transform="translate(242.5 0)"/>
       <use xlink:href="#STIXGeneral-Regular-44" transform="translate(290.5 0)"/>
       <use xlink:href="#STIXGeneral-Regular-51" transform="translate(334.90625 0)"/>
       <use xlink:href="#STIXGeneral-Regular-48" transform="translate(384.90625 0)"/>
       <use xlink:href="#STIXGeneral-Regular-56" transform="translate(429.3125 0)"/>
       <use xlink:href="#STIXGeneral-Regular-3" transform="translate(468.21875 0)"/>
       <use xlink:href="#STIXGeneral-Regular-e" transform="translate(493.21875 0)"/>
       <use xlink:href="#STIXGeneral-Regular-3" transform="translate(561.71875 0)"/>
       <use xlink:href="#STIXGeneral-Regular-2a" transform="translate(586.71875 0)"/>
       <use xlink:href="#STIXGeneral-Regular-55" transform="translate(658.921875 0)"/>
       <use xlink:href="#STIXGeneral-Regular-4c" transform="translate(694.125 0)"/>
       <use xlink:href="#STIXGeneral-Regular-4f" transform="translate(721.921875 0)"/>
       <use xlink:href="#STIXGeneral-Regular-4f" transform="translate(749.71875 0)"/>
       <use xlink:href="#STIXGeneral-Regular-56" transform="translate(777.515625 0)"/>
      </g>
     </g>
    </g>
    <g id="xtick_4">
     <g id="line2d_7">
      <defs>
       <path id="m2a5719da97" d="M 0 0 
L 0 -1.5 
" style="stroke: #000000; stroke-width: 0.5"/>
      </defs>
      <g>
       <use xlink:href="#m2a5719da97" x="52.896939" y="292.745" style="stroke: #000000; stroke-width: 0.5"/>
      </g>
     </g>
     <g id="line2d_8">
      <defs>
       <path id="m1801a8e482" d="M 0 0 
L 0 1.5 
" style="stroke: #000000; stroke-width: 0.5"/>
      </defs>
      <g>
       <use xlink:href="#m1801a8e482" x="52.896939" y="43.265" style="stroke: #000000; stroke-width: 0.5"/>
      </g>
     </g>
    </g>
    <g id="xtick_5">
     <g id="line2d_9">
      <g>
       <use xlink:href="#m2a5719da97" x="98.447959" y="292.745" style="stroke: #000000; stroke-width: 0.5"/>
      </g>
     </g>
     <g id="line2d_10">
      <g>
       <use xlink:href="#m1801a8e482" x="98.447959" y="43.265" style="stroke: #000000; stroke-width: 0.5"/>
      </g>
     </g>
    </g>
    <g id="xtick_6">
     <g id="line2d_11">
      <g>
       <use xlink:href="#m2a5719da97" x="121.223469" y="292.745" style="stroke: #000000; stroke-width: 0.5"/>
      </g>
     </g>
     <g id="line2d_12">
      <g>
       <use xlink:href="#m1801a8e482" x="121.223469" y="43.265" style="stroke: #000000; stroke-width: 0.5"/>
      </g>
     </g>
    </g>
    <g id="xtick_7">
     <g id="line2d_13">
      <g>
       <use xlink:href="#m2a5719da97" x="143.99898" y="292.745" style="stroke: #000000; stroke-width: 0.5"/>
      </g>
     </g>
     <g id="line2d_14">
      <g>
       <use xlink:href="#m1801a8e482" x="143.99898" y="43.265" style="stroke: #000000; stroke-width: 0.5"/>
      </g>
     </g>
    </g>
    <g id="xtick_8">
     <g id="line2d_15">
      <g>
       <use xlink:href="#m2a5719da97" x="166.77449" y="292.745" style="stroke: #000000; stroke-width: 0.5"/>
      </g>
     </g>
     <g id="line2d_16">
      <g>
       <use xlink:href="#m1801a8e482" x="166.77449" y="43.265" style="stroke: #000000; stroke-width: 0.5"/>
      </g>
     </g>
    </g>
    <g id="xtick_9">
     <g id="line2d_17">
      <g>
       <use xlink:href="#m2a5719da97" x="212.32551" y="292.745" style="stroke: #000000; stroke-width: 0.5"/>
      </g>
     </g>
     <g id="line2d_18">
      <g>
       <use xlink:href="#m1801a8e482" x="212.32551" y="43.265" style="stroke: #000000; stroke-width: 0.5"/>
      </g>
     </g>
    </g>
    <g id="xtick_10">
     <g id="line2d_19">
      <g>
       <use xlink:href="#m2a5719da97" x="235.10102" y="292.745" style="stroke: #000000; stroke-width: 0.5"/>
      </g>
     </g>
     <g id="line2d_20">
      <g>
       <use xlink:href="#m1801a8e482" x="235.10102" y="43.265" style="stroke: #000000; stroke-width: 0.5"/>
      </g>
     </g>
    </g>
    <g id="xtick_11">
     <g id="line2d_21">
      <g>
       <use xlink:href="#m2a5719da97" x="257.876531" y="292.745" style="stroke: #000000; stroke-width: 0.5"/>
      </g>
     </g>
     <g id="line2d_22">
      <g>
       <use xlink:href="#m1801a8e482" x="257.876531" y="43.265" style="stroke: #000000; stroke-width: 0.5"/>
      </g>
     </g>
    </g>
    <g id="xtick_12">
     <g id="line2d_23">
      <g>
       <use xlink:href="#m2a5719da97" x="280.652041" y="292.745" style="stroke: #000000; stroke-width: 0.5"/>
      </g>
     </g>
     <g id="line2d_24">
      <g>
       <use xlink:href="#m1801a8e482" x="280.652041" y="43.265" style="stroke: #000000; stroke-width: 0.5"/>
      </g>
     </g>
    </g>
    <g id="xtick_13">
     <g id="line2d_25">
      <g>
       <use xlink:href="#m2a5719da97" x="326.203061" y="292.745" style="stroke: #000000; stroke-width: 0.5"/>
      </g>
     </g>
     <g id="line2d_26">
      <g>
       <use xlink:href="#m1801a8e482" x="326.203061" y="43.265" style="stroke: #000000; stroke-width: 0.5"/>
      </g>
     </g>
    </g>
    <g id="text_4">
     <!-- Configuration Setup -->
     <g transform="translate(149.175781 313.745) scale(0.1 -0.1)">
      <defs>
       <path id="STIXGeneral-Regular-26" d="M 3930 838 
L 4051 723 
Q 3482 -90 2304 -90 
Q 1376 -90 794 480 
Q 179 1082 179 2080 
Q 179 3014 755 3661 
Q 1357 4326 2310 4326 
Q 2720 4326 3072 4230 
Q 3475 4115 3514 4115 
Q 3725 4115 3782 4326 
L 3910 4326 
L 3968 2874 
L 3821 2874 
Q 3718 3334 3488 3584 
Q 3034 4070 2458 4070 
Q 1747 4070 1334 3548 
Q 922 3027 922 2182 
Q 922 1152 1382 653 
Q 1811 192 2522 192 
Q 2944 192 3251 339 
Q 3558 486 3930 838 
z
" transform="scale(0.015625)"/>
       <path id="STIXGeneral-Regular-8f6" d="M 3347 0 
L 1939 0 
L 1939 96 
Q 2234 122 2304 211 
Q 2374 301 2374 634 
L 2374 2304 
Q 2374 2547 2268 2608 
Q 2163 2669 1715 2669 
L 1178 2669 
L 1178 576 
Q 1178 307 1264 211 
Q 1350 115 1613 96 
L 1613 0 
L 205 0 
L 205 96 
Q 474 102 557 204 
Q 640 307 640 614 
L 640 2669 
L 211 2669 
L 211 2880 
L 646 2880 
Q 704 3392 784 3622 
Q 864 3853 1107 4070 
Q 1459 4371 2048 4371 
Q 2426 4371 2637 4256 
Q 2848 4141 2848 3936 
Q 2848 3674 2624 3674 
Q 2534 3674 2444 3757 
Q 2355 3840 2284 3942 
Q 2214 4045 2099 4128 
Q 1984 4211 1850 4211 
Q 1562 4211 1370 4006 
Q 1242 3878 1210 3705 
Q 1178 3533 1178 3168 
L 1178 2880 
L 2163 2880 
Q 2458 2880 2893 2950 
L 2925 2925 
Q 2912 2586 2912 2291 
L 2912 634 
Q 2912 333 3005 227 
Q 3098 122 3347 96 
L 3347 0 
z
" transform="scale(0.015625)"/>
       <path id="STIXGeneral-Regular-4a" d="M 3008 2483 
L 2477 2483 
Q 2598 2208 2598 1946 
Q 2598 1453 2265 1203 
Q 1933 954 1600 954 
Q 1530 954 1357 973 
L 1235 986 
Q 1107 947 979 812 
Q 851 678 851 582 
Q 851 435 1350 410 
L 2176 371 
Q 2528 358 2739 172 
Q 2950 -13 2950 -314 
Q 2950 -685 2566 -986 
Q 2035 -1395 1286 -1395 
Q 826 -1395 502 -1212 
Q 179 -1030 179 -774 
Q 179 -595 320 -419 
Q 461 -243 806 6 
Q 602 102 534 172 
Q 467 243 467 346 
Q 467 531 762 787 
Q 909 915 1037 1043 
Q 717 1203 579 1401 
Q 442 1600 442 1901 
Q 442 2336 752 2640 
Q 1062 2944 1510 2944 
Q 1766 2944 2022 2848 
L 2163 2797 
Q 2349 2733 2515 2733 
L 3008 2733 
L 3008 2483 
z
M 973 2163 
L 973 2144 
Q 973 1683 1155 1398 
Q 1338 1114 1632 1114 
Q 1850 1114 1978 1270 
Q 2106 1427 2106 1690 
Q 2106 2112 1914 2464 
Q 1754 2765 1446 2765 
Q 1222 2765 1097 2605 
Q 973 2445 973 2163 
z
M 2771 -410 
Q 2771 -230 2595 -163 
Q 2419 -96 1978 -96 
Q 1344 -96 941 -13 
Q 749 -243 688 -348 
Q 627 -454 627 -563 
Q 627 -774 880 -902 
Q 1133 -1030 1555 -1030 
Q 2099 -1030 2435 -860 
Q 2771 -691 2771 -410 
z
" transform="scale(0.015625)"/>
       <path id="STIXGeneral-Regular-57" d="M 1702 493 
L 1786 422 
Q 1478 -64 1011 -64 
Q 448 -64 448 749 
L 448 2675 
L 109 2675 
Q 83 2694 83 2720 
Q 83 2771 192 2842 
Q 435 2982 813 3526 
Q 826 3546 874 3606 
Q 922 3667 941 3706 
Q 986 3706 986 3622 
L 986 2880 
L 1632 2880 
L 1632 2675 
L 986 2675 
L 986 845 
Q 986 538 1062 403 
Q 1139 269 1318 269 
Q 1510 269 1702 493 
z
" transform="scale(0.015625)"/>
       <path id="STIXGeneral-Regular-36" d="M 3002 2963 
L 2842 2963 
Q 2733 3360 2579 3565 
Q 2189 4064 1651 4064 
Q 1357 4064 1181 3894 
Q 1005 3725 1005 3456 
Q 1005 3328 1069 3206 
Q 1133 3085 1206 2998 
Q 1280 2912 1465 2784 
Q 1651 2656 1766 2589 
Q 1882 2522 2150 2362 
Q 2669 2061 2905 1763 
Q 3142 1466 3142 1107 
Q 3142 576 2771 243 
Q 2400 -90 1837 -90 
Q 1421 -90 1082 58 
Q 915 128 781 128 
Q 704 128 653 70 
Q 602 13 602 -83 
L 461 -83 
L 275 1274 
L 416 1274 
Q 845 141 1734 141 
Q 2074 141 2285 342 
Q 2496 544 2496 858 
Q 2496 1158 2310 1363 
Q 2003 1696 1235 2106 
Q 454 2522 454 3206 
Q 454 3718 768 4022 
Q 1082 4326 1568 4326 
Q 1907 4326 2240 4186 
Q 2413 4109 2522 4109 
Q 2688 4109 2726 4326 
L 2861 4326 
L 3002 2963 
z
" transform="scale(0.015625)"/>
       <path id="STIXGeneral-Regular-53" d="M 1018 2931 
L 1018 2438 
Q 1421 2944 1939 2944 
Q 2406 2944 2707 2560 
Q 3008 2176 3008 1581 
Q 3008 883 2621 409 
Q 2234 -64 1664 -64 
Q 1466 -64 1328 -6 
Q 1190 51 1018 211 
L 1018 -794 
Q 1018 -1094 1120 -1180 
Q 1222 -1267 1581 -1274 
L 1581 -1389 
L 32 -1389 
L 32 -1280 
Q 314 -1254 397 -1171 
Q 480 -1088 480 -838 
L 480 2157 
Q 480 2381 429 2451 
Q 378 2522 218 2522 
Q 115 2522 58 2515 
L 58 2618 
Q 506 2752 979 2944 
L 1018 2931 
z
M 1018 2138 
L 1018 563 
Q 1018 422 1238 281 
Q 1459 141 1683 141 
Q 2029 141 2243 467 
Q 2458 794 2458 1325 
Q 2458 1888 2243 2224 
Q 2029 2560 1670 2560 
Q 1446 2560 1232 2419 
Q 1018 2278 1018 2138 
z
" transform="scale(0.015625)"/>
      </defs>
      <use xlink:href="#STIXGeneral-Regular-26"/>
      <use xlink:href="#STIXGeneral-Regular-52" transform="translate(66.703125 0)"/>
      <use xlink:href="#STIXGeneral-Regular-51" transform="translate(116.703125 0)"/>
      <use xlink:href="#STIXGeneral-Regular-8f6" transform="translate(166.703125 0)"/>
      <use xlink:href="#STIXGeneral-Regular-4a" transform="translate(222.5 0)"/>
      <use xlink:href="#STIXGeneral-Regular-58" transform="translate(272.5 0)"/>
      <use xlink:href="#STIXGeneral-Regular-55" transform="translate(322.5 0)"/>
      <use xlink:href="#STIXGeneral-Regular-44" transform="translate(355.59375 0)"/>
      <use xlink:href="#STIXGeneral-Regular-57" transform="translate(400 0)"/>
      <use xlink:href="#STIXGeneral-Regular-4c" transform="translate(427.796875 0)"/>
      <use xlink:href="#STIXGeneral-Regular-52" transform="translate(455.59375 0)"/>
      <use xlink:href="#STIXGeneral-Regular-51" transform="translate(505.59375 0)"/>
      <use xlink:href="#STIXGeneral-Regular-3" transform="translate(555.59375 0)"/>
      <use xlink:href="#STIXGeneral-Regular-36" transform="translate(580.59375 0)"/>
      <use xlink:href="#STIXGeneral-Regular-48" transform="translate(636.1875 0)"/>
      <use xlink:href="#STIXGeneral-Regular-57" transform="translate(679.6875 0)"/>
      <use xlink:href="#STIXGeneral-Regular-58" transform="translate(707.484375 0)"/>
      <use xlink:href="#STIXGeneral-Regular-53" transform="translate(757.484375 0)"/>
     </g>
    </g>
   </g>
   <g id="matplotlib.axis_2">
    <g id="ytick_1">
     <g id="line2d_27">
      <path d="M 36.1 292.745 
L 343 292.745 
" clip-path="url(#p439e7886dc)" style="fill: none; stroke-dasharray: 0.5,0.825; stroke-dashoffset: 0; stroke: #b0b0b0; stroke-opacity: 0.6; stroke-width: 0.5"/>
     </g>
     <g id="line2d_28">
      <defs>
       <path id="m6433a74ee2" d="M 0 0 
L 3 0 
" style="stroke: #000000; stroke-width: 0.5"/>
      </defs>
      <g>
       <use xlink:href="#m6433a74ee2" x="36.1" y="292.745" style="stroke: #000000; stroke-width: 0.5"/>
      </g>
     </g>
     <g id="line2d_29">
      <defs>
       <path id="m5e0cc38584" d="M 0 0 
L -3 0 
" style="stroke: #000000; stroke-width: 0.5"/>
      </defs>
      <g>
       <use xlink:href="#m5e0cc38584" x="343" y="292.745" style="stroke: #000000; stroke-width: 0.5"/>
      </g>
     </g>
     <g id="text_5">
      <!-- $\mathdefault{0}$ -->
      <g transform="translate(27.6 296.495) scale(0.1 -0.1)">
       <defs>
        <path id="STIXGeneral-Regular-13" d="M 3046 2112 
Q 3046 1683 2963 1302 
Q 2880 922 2717 602 
Q 2554 282 2266 96 
Q 1978 -90 1600 -90 
Q 1210 -90 915 108 
Q 621 307 461 640 
Q 301 973 227 1350 
Q 154 1728 154 2150 
Q 154 2746 301 3222 
Q 448 3699 790 4012 
Q 1133 4326 1626 4326 
Q 2253 4326 2649 3712 
Q 3046 3098 3046 2112 
z
M 2432 2080 
Q 2432 3091 2217 3625 
Q 2003 4160 1587 4160 
Q 1190 4160 979 3622 
Q 768 3085 768 2106 
Q 768 1120 979 598 
Q 1190 77 1600 77 
Q 2003 77 2217 598 
Q 2432 1120 2432 2080 
z
" transform="scale(0.015625)"/>
       </defs>
       <use xlink:href="#STIXGeneral-Regular-13" transform="translate(0 0.40625)"/>
      </g>
     </g>
    </g>
    <g id="ytick_2">
     <g id="line2d_30">
      <path d="M 36.1 242.849 
L 343 242.849 
" clip-path="url(#p439e7886dc)" style="fill: none; stroke-dasharray: 0.5,0.825; stroke-dashoffset: 0; stroke: #b0b0b0; stroke-opacity: 0.6; stroke-width: 0.5"/>
     </g>
     <g id="line2d_31">
      <g>
       <use xlink:href="#m6433a74ee2" x="36.1" y="242.849" style="stroke: #000000; stroke-width: 0.5"/>
      </g>
     </g>
     <g id="line2d_32">
      <g>
       <use xlink:href="#m5e0cc38584" x="343" y="242.849" style="stroke: #000000; stroke-width: 0.5"/>
      </g>
     </g>
     <g id="text_6">
      <!-- $\mathdefault{20}$ -->
      <g transform="translate(22.6 246.599) scale(0.1 -0.1)">
       <defs>
        <path id="STIXGeneral-Regular-15" d="M 3034 877 
L 2688 0 
L 186 0 
L 186 77 
L 1325 1286 
Q 1773 1754 1965 2144 
Q 2157 2534 2157 2950 
Q 2157 3379 1920 3616 
Q 1683 3853 1267 3853 
Q 922 3853 720 3673 
Q 518 3494 326 3021 
L 192 3053 
Q 301 3648 630 3987 
Q 960 4326 1523 4326 
Q 2054 4326 2380 4006 
Q 2707 3686 2707 3200 
Q 2707 2477 1888 1613 
L 832 486 
L 2330 486 
Q 2541 486 2665 569 
Q 2790 653 2944 915 
L 3034 877 
z
" transform="scale(0.015625)"/>
       </defs>
       <use xlink:href="#STIXGeneral-Regular-15" transform="translate(0 0.40625)"/>
       <use xlink:href="#STIXGeneral-Regular-13" transform="translate(49.999954 0.40625)"/>
      </g>
     </g>
    </g>
    <g id="ytick_3">
     <g id="line2d_33">
      <path d="M 36.1 192.953 
L 343 192.953 
" clip-path="url(#p439e7886dc)" style="fill: none; stroke-dasharray: 0.5,0.825; stroke-dashoffset: 0; stroke: #b0b0b0; stroke-opacity: 0.6; stroke-width: 0.5"/>
     </g>
     <g id="line2d_34">
      <g>
       <use xlink:href="#m6433a74ee2" x="36.1" y="192.953" style="stroke: #000000; stroke-width: 0.5"/>
      </g>
     </g>
     <g id="line2d_35">
      <g>
       <use xlink:href="#m5e0cc38584" x="343" y="192.953" style="stroke: #000000; stroke-width: 0.5"/>
      </g>
     </g>
     <g id="text_7">
      <!-- $\mathdefault{40}$ -->
      <g transform="translate(22.6 196.703) scale(0.1 -0.1)">
       <defs>
        <path id="STIXGeneral-Regular-17" d="M 3027 1069 
L 2368 1069 
L 2368 0 
L 1869 0 
L 1869 1069 
L 77 1069 
L 77 1478 
L 2086 4326 
L 2368 4326 
L 2368 1478 
L 3027 1478 
L 3027 1069 
z
M 1869 1478 
L 1869 3674 
L 333 1478 
L 1869 1478 
z
" transform="scale(0.015625)"/>
       </defs>
       <use xlink:href="#STIXGeneral-Regular-17" transform="translate(0 0.40625)"/>
       <use xlink:href="#STIXGeneral-Regular-13" transform="translate(49.999954 0.40625)"/>
      </g>
     </g>
    </g>
    <g id="ytick_4">
     <g id="line2d_36">
      <path d="M 36.1 143.057 
L 343 143.057 
" clip-path="url(#p439e7886dc)" style="fill: none; stroke-dasharray: 0.5,0.825; stroke-dashoffset: 0; stroke: #b0b0b0; stroke-opacity: 0.6; stroke-width: 0.5"/>
     </g>
     <g id="line2d_37">
      <g>
       <use xlink:href="#m6433a74ee2" x="36.1" y="143.057" style="stroke: #000000; stroke-width: 0.5"/>
      </g>
     </g>
     <g id="line2d_38">
      <g>
       <use xlink:href="#m5e0cc38584" x="343" y="143.057" style="stroke: #000000; stroke-width: 0.5"/>
      </g>
     </g>
     <g id="text_8">
      <!-- $\mathdefault{60}$ -->
      <g transform="translate(22.6 146.807) scale(0.1 -0.1)">
       <defs>
        <path id="STIXGeneral-Regular-19" d="M 2854 4378 
L 2867 4275 
Q 2112 4154 1606 3664 
Q 1101 3174 973 2451 
Q 1344 2739 1786 2739 
Q 2349 2739 2672 2380 
Q 2995 2022 2995 1402 
Q 2995 774 2669 378 
Q 2291 -90 1651 -90 
Q 870 -90 518 557 
Q 218 1107 218 1786 
Q 218 2835 915 3552 
Q 1312 3962 1731 4131 
Q 2150 4301 2854 4378 
z
M 2419 1203 
Q 2419 2445 1555 2445 
Q 1235 2445 1024 2275 
Q 813 2106 813 1702 
Q 813 954 1046 522 
Q 1280 90 1722 90 
Q 2061 90 2240 394 
Q 2419 698 2419 1203 
z
" transform="scale(0.015625)"/>
       </defs>
       <use xlink:href="#STIXGeneral-Regular-19" transform="translate(0 0.59375)"/>
       <use xlink:href="#STIXGeneral-Regular-13" transform="translate(49.999954 0.59375)"/>
      </g>
     </g>
    </g>
    <g id="ytick_5">
     <g id="line2d_39">
      <path d="M 36.1 93.161 
L 343 93.161 
" clip-path="url(#p439e7886dc)" style="fill: none; stroke-dasharray: 0.5,0.825; stroke-dashoffset: 0; stroke: #b0b0b0; stroke-opacity: 0.6; stroke-width: 0.5"/>
     </g>
     <g id="line2d_40">
      <g>
       <use xlink:href="#m6433a74ee2" x="36.1" y="93.161" style="stroke: #000000; stroke-width: 0.5"/>
      </g>
     </g>
     <g id="line2d_41">
      <g>
       <use xlink:href="#m5e0cc38584" x="343" y="93.161" style="stroke: #000000; stroke-width: 0.5"/>
      </g>
     </g>
     <g id="text_9">
      <!-- $\mathdefault{80}$ -->
      <g transform="translate(22.6 96.911) scale(0.1 -0.1)">
       <defs>
        <path id="STIXGeneral-Regular-1b" d="M 2848 992 
Q 2848 499 2505 204 
Q 2163 -90 1587 -90 
Q 1050 -90 704 204 
Q 358 499 358 954 
Q 358 1293 524 1533 
Q 691 1773 1190 2125 
Q 710 2522 553 2765 
Q 397 3008 397 3328 
Q 397 3782 745 4054 
Q 1094 4326 1638 4326 
Q 2106 4326 2410 4060 
Q 2714 3795 2714 3411 
Q 2714 3059 2531 2848 
Q 2349 2637 1856 2374 
Q 2432 1990 2640 1689 
Q 2848 1389 2848 992 
z
M 2272 3411 
Q 2272 3744 2086 3945 
Q 1901 4147 1574 4147 
Q 1248 4147 1059 3977 
Q 870 3808 870 3513 
Q 870 3219 1059 2979 
Q 1248 2739 1670 2490 
Q 1997 2682 2134 2896 
Q 2272 3110 2272 3411 
z
M 1734 1741 
L 1357 1997 
Q 1075 1766 960 1545 
Q 845 1325 845 1011 
Q 845 576 1065 333 
Q 1286 90 1658 90 
Q 1971 90 2166 285 
Q 2362 480 2362 794 
Q 2362 1082 2214 1299 
Q 2067 1517 1734 1741 
z
" transform="scale(0.015625)"/>
       </defs>
       <use xlink:href="#STIXGeneral-Regular-1b" transform="translate(0 0.40625)"/>
       <use xlink:href="#STIXGeneral-Regular-13" transform="translate(49.999954 0.40625)"/>
      </g>
     </g>
    </g>
    <g id="ytick_6">
     <g id="line2d_42">
      <path d="M 36.1 43.265 
L 343 43.265 
" clip-path="url(#p439e7886dc)" style="fill: none; stroke-dasharray: 0.5,0.825; stroke-dashoffset: 0; stroke: #b0b0b0; stroke-opacity: 0.6; stroke-width: 0.5"/>
     </g>
     <g id="line2d_43">
      <g>
       <use xlink:href="#m6433a74ee2" x="36.1" y="43.265" style="stroke: #000000; stroke-width: 0.5"/>
      </g>
     </g>
     <g id="line2d_44">
      <g>
       <use xlink:href="#m5e0cc38584" x="343" y="43.265" style="stroke: #000000; stroke-width: 0.5"/>
      </g>
     </g>
     <g id="text_10">
      <!-- $\mathdefault{100}$ -->
      <g transform="translate(17.6 47.015) scale(0.1 -0.1)">
       <defs>
        <path id="STIXGeneral-Regular-14" d="M 2522 0 
L 755 0 
L 755 96 
Q 1107 115 1235 227 
Q 1363 339 1363 608 
L 1363 3482 
Q 1363 3795 1171 3795 
Q 1082 3795 883 3718 
L 710 3654 
L 710 3744 
L 1856 4326 
L 1914 4307 
L 1914 486 
Q 1914 275 2042 185 
Q 2170 96 2522 96 
L 2522 0 
z
" transform="scale(0.015625)"/>
       </defs>
       <use xlink:href="#STIXGeneral-Regular-14" transform="translate(0 0.40625)"/>
       <use xlink:href="#STIXGeneral-Regular-13" transform="translate(49.999954 0.40625)"/>
       <use xlink:href="#STIXGeneral-Regular-13" transform="translate(99.999908 0.40625)"/>
      </g>
     </g>
    </g>
    <g id="ytick_7">
     <g id="line2d_45">
      <defs>
       <path id="mc45ead31ac" d="M 0 0 
L 1.5 0 
" style="stroke: #000000; stroke-width: 0.5"/>
      </defs>
      <g>
       <use xlink:href="#mc45ead31ac" x="36.1" y="280.271" style="stroke: #000000; stroke-width: 0.5"/>
      </g>
     </g>
     <g id="line2d_46">
      <defs>
       <path id="m8ad31f0b3a" d="M 0 0 
L -1.5 0 
" style="stroke: #000000; stroke-width: 0.5"/>
      </defs>
      <g>
       <use xlink:href="#m8ad31f0b3a" x="343" y="280.271" style="stroke: #000000; stroke-width: 0.5"/>
      </g>
     </g>
    </g>
    <g id="ytick_8">
     <g id="line2d_47">
      <g>
       <use xlink:href="#mc45ead31ac" x="36.1" y="267.797" style="stroke: #000000; stroke-width: 0.5"/>
      </g>
     </g>
     <g id="line2d_48">
      <g>
       <use xlink:href="#m8ad31f0b3a" x="343" y="267.797" style="stroke: #000000; stroke-width: 0.5"/>
      </g>
     </g>
    </g>
    <g id="ytick_9">
     <g id="line2d_49">
      <g>
       <use xlink:href="#mc45ead31ac" x="36.1" y="255.323" style="stroke: #000000; stroke-width: 0.5"/>
      </g>
     </g>
     <g id="line2d_50">
      <g>
       <use xlink:href="#m8ad31f0b3a" x="343" y="255.323" style="stroke: #000000; stroke-width: 0.5"/>
      </g>
     </g>
    </g>
    <g id="ytick_10">
     <g id="line2d_51">
      <g>
       <use xlink:href="#mc45ead31ac" x="36.1" y="230.375" style="stroke: #000000; stroke-width: 0.5"/>
      </g>
     </g>
     <g id="line2d_52">
      <g>
       <use xlink:href="#m8ad31f0b3a" x="343" y="230.375" style="stroke: #000000; stroke-width: 0.5"/>
      </g>
     </g>
    </g>
    <g id="ytick_11">
     <g id="line2d_53">
      <g>
       <use xlink:href="#mc45ead31ac" x="36.1" y="217.901" style="stroke: #000000; stroke-width: 0.5"/>
      </g>
     </g>
     <g id="line2d_54">
      <g>
       <use xlink:href="#m8ad31f0b3a" x="343" y="217.901" style="stroke: #000000; stroke-width: 0.5"/>
      </g>
     </g>
    </g>
    <g id="ytick_12">
     <g id="line2d_55">
      <g>
       <use xlink:href="#mc45ead31ac" x="36.1" y="205.427" style="stroke: #000000; stroke-width: 0.5"/>
      </g>
     </g>
     <g id="line2d_56">
      <g>
       <use xlink:href="#m8ad31f0b3a" x="343" y="205.427" style="stroke: #000000; stroke-width: 0.5"/>
      </g>
     </g>
    </g>
    <g id="ytick_13">
     <g id="line2d_57">
      <g>
       <use xlink:href="#mc45ead31ac" x="36.1" y="180.479" style="stroke: #000000; stroke-width: 0.5"/>
      </g>
     </g>
     <g id="line2d_58">
      <g>
       <use xlink:href="#m8ad31f0b3a" x="343" y="180.479" style="stroke: #000000; stroke-width: 0.5"/>
      </g>
     </g>
    </g>
    <g id="ytick_14">
     <g id="line2d_59">
      <g>
       <use xlink:href="#mc45ead31ac" x="36.1" y="168.005" style="stroke: #000000; stroke-width: 0.5"/>
      </g>
     </g>
     <g id="line2d_60">
      <g>
       <use xlink:href="#m8ad31f0b3a" x="343" y="168.005" style="stroke: #000000; stroke-width: 0.5"/>
      </g>
     </g>
    </g>
    <g id="ytick_15">
     <g id="line2d_61">
      <g>
       <use xlink:href="#mc45ead31ac" x="36.1" y="155.531" style="stroke: #000000; stroke-width: 0.5"/>
      </g>
     </g>
     <g id="line2d_62">
      <g>
       <use xlink:href="#m8ad31f0b3a" x="343" y="155.531" style="stroke: #000000; stroke-width: 0.5"/>
      </g>
     </g>
    </g>
    <g id="ytick_16">
     <g id="line2d_63">
      <g>
       <use xlink:href="#mc45ead31ac" x="36.1" y="130.583" style="stroke: #000000; stroke-width: 0.5"/>
      </g>
     </g>
     <g id="line2d_64">
      <g>
       <use xlink:href="#m8ad31f0b3a" x="343" y="130.583" style="stroke: #000000; stroke-width: 0.5"/>
      </g>
     </g>
    </g>
    <g id="ytick_17">
     <g id="line2d_65">
      <g>
       <use xlink:href="#mc45ead31ac" x="36.1" y="118.109" style="stroke: #000000; stroke-width: 0.5"/>
      </g>
     </g>
     <g id="line2d_66">
      <g>
       <use xlink:href="#m8ad31f0b3a" x="343" y="118.109" style="stroke: #000000; stroke-width: 0.5"/>
      </g>
     </g>
    </g>
    <g id="ytick_18">
     <g id="line2d_67">
      <g>
       <use xlink:href="#mc45ead31ac" x="36.1" y="105.635" style="stroke: #000000; stroke-width: 0.5"/>
      </g>
     </g>
     <g id="line2d_68">
      <g>
       <use xlink:href="#m8ad31f0b3a" x="343" y="105.635" style="stroke: #000000; stroke-width: 0.5"/>
      </g>
     </g>
    </g>
    <g id="ytick_19">
     <g id="line2d_69">
      <g>
       <use xlink:href="#mc45ead31ac" x="36.1" y="80.687" style="stroke: #000000; stroke-width: 0.5"/>
      </g>
     </g>
     <g id="line2d_70">
      <g>
       <use xlink:href="#m8ad31f0b3a" x="343" y="80.687" style="stroke: #000000; stroke-width: 0.5"/>
      </g>
     </g>
    </g>
    <g id="ytick_20">
     <g id="line2d_71">
      <g>
       <use xlink:href="#mc45ead31ac" x="36.1" y="68.213" style="stroke: #000000; stroke-width: 0.5"/>
      </g>
     </g>
     <g id="line2d_72">
      <g>
       <use xlink:href="#m8ad31f0b3a" x="343" y="68.213" style="stroke: #000000; stroke-width: 0.5"/>
      </g>
     </g>
    </g>
    <g id="ytick_21">
     <g id="line2d_73">
      <g>
       <use xlink:href="#mc45ead31ac" x="36.1" y="55.739" style="stroke: #000000; stroke-width: 0.5"/>
      </g>
     </g>
     <g id="line2d_74">
      <g>
       <use xlink:href="#m8ad31f0b3a" x="343" y="55.739" style="stroke: #000000; stroke-width: 0.5"/>
      </g>
     </g>
    </g>
    <g id="text_11">
     <!-- Average Effectiveness, $\bar{\eta}$ (\%) -->
     <g transform="translate(11.1 227.855) rotate(-90) scale(0.1 -0.1)">
      <defs>
       <path id="STIXGeneral-Regular-24" d="M 4525 0 
L 2893 0 
L 2893 122 
Q 3149 122 3245 179 
Q 3334 224 3334 333 
Q 3334 499 3213 781 
L 2950 1382 
L 1274 1382 
L 979 653 
Q 922 506 922 384 
Q 922 237 1027 179 
Q 1133 122 1370 122 
L 1370 0 
L 96 0 
L 96 122 
Q 365 147 486 316 
Q 608 486 902 1190 
L 2221 4314 
L 2349 4314 
L 3923 710 
Q 4064 378 4176 262 
Q 4288 147 4525 122 
L 4525 0 
z
M 2861 1645 
L 2118 3405 
L 1382 1645 
L 2861 1645 
z
" transform="scale(0.015625)"/>
       <path id="STIXGeneral-Regular-28" d="M 3821 1082 
L 3526 0 
L 77 0 
L 77 122 
Q 442 147 538 252 
Q 634 358 634 730 
L 634 3520 
Q 634 3878 534 3987 
Q 435 4096 77 4115 
L 77 4237 
L 3469 4237 
L 3494 3322 
L 3334 3322 
Q 3264 3750 3085 3872 
Q 2906 3994 2349 3994 
L 1510 3994 
Q 1370 3994 1328 3952 
Q 1286 3910 1286 3763 
L 1286 2355 
L 2253 2355 
Q 2656 2355 2787 2470 
Q 2918 2586 2976 2970 
L 3123 2970 
L 3123 1472 
L 2976 1472 
Q 2918 1875 2790 1984 
Q 2662 2093 2253 2093 
L 1286 2093 
L 1286 538 
Q 1286 346 1420 291 
Q 1555 237 1933 237 
L 2163 237 
Q 2848 237 3136 403 
Q 3424 570 3642 1082 
L 3821 1082 
z
" transform="scale(0.015625)"/>
       <path id="STIXGeneral-Regular-49" d="M 134 2880 
L 659 2880 
Q 666 3264 710 3478 
Q 755 3693 883 3910 
Q 1152 4371 1786 4371 
Q 2074 4371 2262 4259 
Q 2451 4147 2451 3974 
Q 2451 3866 2374 3789 
Q 2298 3712 2182 3712 
Q 2029 3712 1894 3942 
Q 1741 4192 1555 4192 
Q 1197 4192 1197 3622 
L 1197 2880 
L 1978 2880 
L 1978 2675 
L 1197 2675 
L 1197 666 
Q 1197 307 1299 208 
Q 1402 109 1792 96 
L 1792 0 
L 128 0 
L 128 96 
Q 474 115 566 214 
Q 659 314 659 666 
L 659 2675 
L 134 2675 
L 134 2880 
z
" transform="scale(0.015625)"/>
       <path id="STIXGeneral-Regular-46" d="M 2547 998 
L 2637 941 
Q 2362 403 2112 205 
Q 1786 -64 1376 -64 
Q 845 -64 502 336 
Q 160 736 160 1357 
Q 160 2170 698 2618 
Q 1094 2944 1562 2944 
Q 1965 2944 2256 2749 
Q 2547 2554 2547 2285 
Q 2547 2176 2457 2096 
Q 2368 2016 2246 2016 
Q 2022 2016 1939 2310 
L 1901 2451 
Q 1850 2630 1773 2694 
Q 1696 2758 1523 2758 
Q 1133 2758 893 2451 
Q 653 2144 653 1645 
Q 653 1094 928 745 
Q 1203 397 1645 397 
Q 1920 397 2118 528 
Q 2317 659 2547 998 
z
" transform="scale(0.015625)"/>
       <path id="Cmr10-83" d="M 441 3553 
L 441 3775 
L 2753 3775 
L 2753 3553 
L 441 3553 
z
" transform="scale(0.015625)"/>
       <path id="Cmmi10-5" d="M 684 -72 
Q 606 -72 550 -22 
Q 494 28 494 109 
Q 494 147 500 166 
L 978 2075 
Q 1025 2253 1025 2388 
Q 1025 2663 838 2663 
Q 638 2663 541 2423 
Q 444 2184 353 1819 
Q 353 1800 334 1789 
Q 316 1778 300 1778 
L 225 1778 
Q 203 1778 187 1801 
Q 172 1825 172 1844 
Q 241 2122 305 2315 
Q 369 2509 505 2668 
Q 641 2828 844 2828 
Q 1081 2828 1267 2678 
Q 1453 2528 1453 2291 
Q 1641 2541 1894 2684 
Q 2147 2828 2444 2828 
Q 2778 2828 2979 2648 
Q 3181 2469 3181 2138 
Q 3181 1947 3138 1784 
L 2394 -1178 
Q 2375 -1269 2300 -1325 
Q 2225 -1381 2131 -1381 
Q 2053 -1381 1997 -1332 
Q 1941 -1284 1941 -1203 
Q 1941 -1166 1947 -1153 
L 2681 1797 
Q 2747 2059 2747 2234 
Q 2747 2413 2672 2538 
Q 2597 2663 2431 2663 
Q 1803 2663 1388 1888 
L 953 141 
Q 931 53 854 -9 
Q 778 -72 684 -72 
z
" transform="scale(0.015625)"/>
       <path id="STIXGeneral-Regular-b" d="M 1946 -1030 
L 1869 -1133 
Q 1126 -710 716 32 
Q 307 774 307 1613 
Q 307 3386 1888 4326 
L 1946 4224 
Q 1293 3667 1075 3126 
Q 858 2586 858 1632 
Q 858 685 1082 96 
Q 1306 -493 1946 -1030 
z
" transform="scale(0.015625)"/>
       <path id="STIXGeneral-Regular-3f" d="M 1837 -90 
L 1402 -90 
L -58 4326 
L 371 4326 
L 1837 -90 
z
" transform="scale(0.015625)"/>
       <path id="STIXGeneral-Regular-8" d="M 4390 1363 
Q 4390 781 4070 329 
Q 3750 -122 3341 -122 
Q 3014 -122 2790 134 
Q 2566 390 2566 762 
Q 2566 1274 2940 1693 
Q 3315 2112 3776 2112 
Q 4070 2112 4230 1917 
Q 4390 1722 4390 1363 
z
M 4243 1376 
Q 4243 1626 4131 1779 
Q 4019 1933 3840 1933 
Q 3654 1933 3526 1786 
Q 3315 1562 3171 1187 
Q 3027 813 3027 486 
Q 3027 301 3129 176 
Q 3232 51 3386 51 
Q 3718 51 3980 457 
Q 4243 864 4243 1376 
z
M 3974 4518 
L 1222 -115 
L 922 -115 
L 3443 4096 
Q 3264 3891 3094 3811 
Q 2925 3731 2669 3731 
Q 2445 3731 2182 3821 
Q 2208 3674 2208 3539 
Q 2208 3206 2067 2873 
Q 1926 2541 1696 2323 
Q 1453 2086 1146 2086 
Q 826 2086 608 2339 
Q 390 2592 390 2963 
Q 390 3507 761 3916 
Q 1133 4326 1626 4326 
Q 1792 4326 2010 4147 
Q 2310 3898 2624 3898 
Q 2918 3898 3084 3994 
Q 3251 4090 3693 4518 
L 3974 4518 
z
M 2054 3642 
Q 2054 3782 2025 3833 
Q 1997 3885 1894 3936 
Q 1747 4006 1613 4154 
Q 1414 4058 1331 3984 
Q 1248 3910 1152 3750 
Q 845 3264 845 2707 
Q 845 2509 944 2384 
Q 1043 2259 1210 2259 
Q 1549 2259 1801 2675 
Q 2054 3091 2054 3642 
z
" transform="scale(0.015625)"/>
       <path id="STIXGeneral-Regular-c" d="M 186 4224 
L 262 4326 
Q 992 3891 1408 3148 
Q 1824 2406 1824 1581 
Q 1824 -166 243 -1133 
L 186 -1030 
Q 845 -486 1059 54 
Q 1274 595 1274 1562 
Q 1274 2534 1059 3120 
Q 845 3706 186 4224 
z
" transform="scale(0.015625)"/>
      </defs>
      <use xlink:href="#STIXGeneral-Regular-24" transform="translate(0 0.40625)"/>
      <use xlink:href="#STIXGeneral-Regular-59" transform="translate(72.199936 0.40625)"/>
      <use xlink:href="#STIXGeneral-Regular-48" transform="translate(122.19989 0.40625)"/>
      <use xlink:href="#STIXGeneral-Regular-55" transform="translate(166.599854 0.40625)"/>
      <use xlink:href="#STIXGeneral-Regular-44" transform="translate(199.899826 0.40625)"/>
      <use xlink:href="#STIXGeneral-Regular-4a" transform="translate(244.299789 0.40625)"/>
      <use xlink:href="#STIXGeneral-Regular-48" transform="translate(294.299744 0.40625)"/>
      <use xlink:href="#STIXGeneral-Regular-3" transform="translate(338.699707 0.40625)"/>
      <use xlink:href="#STIXGeneral-Regular-28" transform="translate(363.699677 0.40625)"/>
      <use xlink:href="#STIXGeneral-Regular-49" transform="translate(424.799622 0.40625)"/>
      <use xlink:href="#STIXGeneral-Regular-49" transform="translate(458.099594 0.40625)"/>
      <use xlink:href="#STIXGeneral-Regular-48" transform="translate(491.399567 0.40625)"/>
      <use xlink:href="#STIXGeneral-Regular-46" transform="translate(535.79953 0.40625)"/>
      <use xlink:href="#STIXGeneral-Regular-57" transform="translate(580.199493 0.40625)"/>
      <use xlink:href="#STIXGeneral-Regular-4c" transform="translate(607.999466 0.40625)"/>
      <use xlink:href="#STIXGeneral-Regular-59" transform="translate(635.799438 0.40625)"/>
      <use xlink:href="#STIXGeneral-Regular-48" transform="translate(685.799393 0.40625)"/>
      <use xlink:href="#STIXGeneral-Regular-51" transform="translate(730.199356 0.40625)"/>
      <use xlink:href="#STIXGeneral-Regular-48" transform="translate(780.19931 0.40625)"/>
      <use xlink:href="#STIXGeneral-Regular-56" transform="translate(824.599274 0.40625)"/>
      <use xlink:href="#STIXGeneral-Regular-56" transform="translate(863.499237 0.40625)"/>
      <use xlink:href="#STIXGeneral-Regular-f" transform="translate(902.3992 0.40625)"/>
      <use xlink:href="#STIXGeneral-Regular-3" transform="translate(927.39917 0.40625)"/>
      <use xlink:href="#Cmr10-83" transform="translate(958.910858 1.578125)"/>
      <use xlink:href="#Cmmi10-5" transform="translate(952.399139 0.40625)"/>
      <use xlink:href="#STIXGeneral-Regular-3" transform="translate(1002.008514 0.40625)"/>
      <use xlink:href="#STIXGeneral-Regular-b" transform="translate(1027.008484 0.40625)"/>
      <use xlink:href="#STIXGeneral-Regular-3f" transform="translate(1060.308456 0.40625)"/>
      <use xlink:href="#STIXGeneral-Regular-8" transform="translate(1088.108429 0.40625)"/>
      <use xlink:href="#STIXGeneral-Regular-c" transform="translate(1162.808365 0.40625)"/>
     </g>
    </g>
   </g>
   <g id="LineCollection_1">
    <path d="M 75.672449 78.70889 
L 75.672449 75.18071 
" clip-path="url(#p439e7886dc)" style="fill: none; stroke: #333333; stroke-width: 1.2"/>
    <path d="M 189.55 67.26827 
L 189.55 56.68373 
" clip-path="url(#p439e7886dc)" style="fill: none; stroke: #333333; stroke-width: 1.2"/>
    <path d="M 303.427551 62.59554 
L 303.427551 52.20886 
" clip-path="url(#p439e7886dc)" style="fill: none; stroke: #333333; stroke-width: 1.2"/>
   </g>
   <g id="line2d_75">
    <defs>
     <path id="m74c8896b95" d="M 5 0 
L -5 -0 
" style="stroke: #333333; stroke-width: 1.2"/>
    </defs>
    <g clip-path="url(#p439e7886dc)">
     <use xlink:href="#m74c8896b95" x="75.672449" y="78.70889" style="fill: #0c5da5; stroke: #333333; stroke-width: 1.2"/>
     <use xlink:href="#m74c8896b95" x="189.55" y="67.26827" style="fill: #0c5da5; stroke: #333333; stroke-width: 1.2"/>
     <use xlink:href="#m74c8896b95" x="303.427551" y="62.59554" style="fill: #0c5da5; stroke: #333333; stroke-width: 1.2"/>
    </g>
   </g>
   <g id="line2d_76">
    <g clip-path="url(#p439e7886dc)">
     <use xlink:href="#m74c8896b95" x="75.672449" y="75.18071" style="fill: #0c5da5; stroke: #333333; stroke-width: 1.2"/>
     <use xlink:href="#m74c8896b95" x="189.55" y="56.68373" style="fill: #0c5da5; stroke: #333333; stroke-width: 1.2"/>
     <use xlink:href="#m74c8896b95" x="303.427551" y="52.20886" style="fill: #0c5da5; stroke: #333333; stroke-width: 1.2"/>
    </g>
   </g>
   <g id="patch_6">
    <path d="M 36.1 292.745 
L 36.1 43.265 
" style="fill: none; stroke: #000000; stroke-width: 0.5; stroke-linejoin: miter; stroke-linecap: square"/>
   </g>
   <g id="patch_7">
    <path d="M 343 292.745 
L 343 43.265 
" style="fill: none; stroke: #000000; stroke-width: 0.5; stroke-linejoin: miter; stroke-linecap: square"/>
   </g>
   <g id="patch_8">
    <path d="M 36.1 292.745 
L 343 292.745 
" style="fill: none; stroke: #000000; stroke-width: 0.5; stroke-linejoin: miter; stroke-linecap: square"/>
   </g>
   <g id="patch_9">
    <path d="M 36.1 43.265 
L 343 43.265 
" style="fill: none; stroke: #000000; stroke-width: 0.5; stroke-linejoin: miter; stroke-linecap: square"/>
   </g>
   <g id="text_12">
    <!-- Effectiveness Comparison -->
    <g transform="translate(129.080938 14.655) scale(0.11 -0.11)">
     <defs>
      <path id="STIXGeneral-Bold-28" d="M 4102 1331 
L 3846 0 
L 102 0 
L 102 160 
Q 448 198 557 294 
Q 666 390 666 646 
L 666 3712 
Q 666 3955 550 4051 
Q 435 4147 102 4166 
L 102 4326 
L 3795 4326 
L 3795 3040 
L 3635 3040 
Q 3526 3680 3216 3894 
Q 2906 4109 2118 4109 
Q 1875 4109 1788 4032 
Q 1702 3955 1702 3763 
L 1702 2323 
Q 2221 2330 2451 2531 
Q 2682 2733 2739 3277 
L 2906 3277 
L 2906 1114 
L 2739 1114 
Q 2694 1677 2464 1891 
Q 2234 2106 1702 2106 
L 1702 557 
Q 1702 352 1814 275 
Q 1926 198 2234 198 
Q 2982 198 3398 544 
Q 3558 672 3667 838 
Q 3776 1005 3923 1331 
L 4102 1331 
z
" transform="scale(0.015625)"/>
      <path id="STIXGeneral-Bold-587" d="M 96 2950 
L 454 2950 
Q 454 3443 550 3708 
Q 646 3974 902 4179 
Q 1203 4422 1734 4422 
Q 2189 4422 2643 4243 
Q 2899 4422 3347 4422 
Q 3757 4422 4009 4243 
Q 4262 4064 4262 3782 
Q 4262 3603 4153 3488 
Q 4045 3373 3866 3373 
Q 3706 3373 3594 3481 
Q 3482 3590 3482 3738 
Q 3482 3866 3552 3971 
Q 3622 4077 3622 4102 
Q 3622 4224 3437 4224 
Q 3264 4224 3190 4112 
Q 3117 4000 3117 3718 
L 3117 2950 
L 3667 2950 
L 3667 2669 
L 3117 2669 
L 3117 570 
Q 3117 352 3187 275 
Q 3258 198 3494 154 
L 3494 0 
L 1933 0 
L 1933 154 
Q 2138 179 2182 249 
Q 2227 320 2227 557 
L 2227 2669 
L 1344 2669 
L 1344 538 
Q 1344 346 1405 262 
Q 1466 179 1638 154 
L 1638 0 
L 96 0 
L 96 154 
Q 314 179 384 268 
Q 454 358 454 576 
L 454 2669 
L 96 2669 
L 96 2950 
z
M 2227 2950 
L 2227 3578 
Q 2170 3597 2122 3667 
Q 2074 3738 2074 3814 
Q 2074 3904 2125 3965 
Q 2176 4026 2176 4083 
Q 2176 4141 2102 4182 
Q 2029 4224 1914 4224 
Q 1344 4224 1344 3309 
L 1344 2950 
L 2227 2950 
z
" transform="scale(0.015625)"/>
      <path id="STIXGeneral-Bold-48" d="M 2579 806 
L 2733 717 
Q 2451 269 2166 89 
Q 1882 -90 1466 -90 
Q 890 -90 525 342 
Q 160 774 160 1434 
Q 160 2150 528 2588 
Q 896 3027 1498 3027 
Q 2029 3027 2317 2707 
Q 2656 2336 2694 1568 
L 1082 1568 
Q 1101 1299 1133 1116 
Q 1165 934 1241 748 
Q 1318 563 1468 467 
Q 1619 371 1843 371 
Q 2048 371 2214 470 
Q 2381 570 2579 806 
z
M 1907 1805 
L 1907 1939 
Q 1907 2406 1850 2528 
Q 1773 2688 1699 2758 
Q 1626 2829 1498 2829 
Q 1267 2829 1158 2595 
Q 1050 2362 1050 1805 
L 1907 1805 
z
" transform="scale(0.015625)"/>
      <path id="STIXGeneral-Bold-46" d="M 2637 698 
L 2752 582 
Q 2490 224 2202 67 
Q 1914 -90 1530 -90 
Q 922 -90 541 326 
Q 160 742 160 1421 
Q 160 2125 595 2576 
Q 1030 3027 1677 3027 
Q 2099 3027 2380 2828 
Q 2662 2630 2662 2323 
Q 2662 2138 2544 2026 
Q 2426 1914 2227 1914 
Q 2061 1914 1965 2035 
Q 1869 2157 1869 2381 
Q 1869 2496 1865 2547 
Q 1862 2598 1849 2665 
Q 1837 2733 1811 2761 
Q 1786 2790 1731 2809 
Q 1677 2829 1600 2829 
Q 1357 2829 1209 2544 
Q 1062 2259 1062 1747 
Q 1062 1094 1299 716 
Q 1536 339 1952 339 
Q 2323 339 2637 698 
z
" transform="scale(0.015625)"/>
      <path id="STIXGeneral-Bold-57" d="M 1965 717 
L 2125 646 
Q 1926 250 1712 86 
Q 1498 -77 1178 -77 
Q 845 -77 653 105 
Q 461 288 461 608 
L 461 2669 
L 122 2669 
L 122 2842 
Q 435 3053 646 3299 
Q 858 3546 1190 4032 
L 1350 4032 
L 1350 2950 
L 1958 2950 
L 1958 2669 
L 1350 2669 
L 1350 762 
Q 1350 378 1600 378 
Q 1786 378 1965 717 
z
" transform="scale(0.015625)"/>
      <path id="STIXGeneral-Bold-4c" d="M 1376 3923 
Q 1376 3712 1232 3571 
Q 1088 3430 877 3430 
Q 666 3430 525 3571 
Q 384 3712 384 3923 
Q 384 4134 528 4278 
Q 672 4422 890 4422 
Q 1088 4422 1232 4275 
Q 1376 4128 1376 3923 
z
M 1638 0 
L 102 0 
L 102 154 
Q 326 205 384 275 
Q 442 346 442 563 
L 442 2387 
Q 442 2598 374 2675 
Q 307 2752 96 2797 
L 96 2950 
L 1331 2950 
L 1331 544 
Q 1331 339 1398 259 
Q 1466 179 1638 154 
L 1638 0 
z
" transform="scale(0.015625)"/>
      <path id="STIXGeneral-Bold-59" d="M 3104 2950 
L 3104 2797 
Q 2950 2784 2886 2723 
Q 2822 2662 2733 2445 
L 1709 -90 
L 1542 -90 
L 774 1805 
Q 474 2547 352 2707 
Q 301 2771 134 2797 
L 134 2950 
L 1734 2950 
L 1734 2797 
L 1619 2784 
Q 1395 2758 1395 2630 
Q 1395 2573 1453 2432 
L 1958 1133 
L 2419 2298 
Q 2490 2464 2490 2586 
Q 2490 2701 2416 2742 
Q 2342 2784 2138 2797 
L 2138 2950 
L 3104 2950 
z
" transform="scale(0.015625)"/>
      <path id="STIXGeneral-Bold-51" d="M 3450 0 
L 1952 0 
L 1952 154 
Q 2112 173 2179 259 
Q 2246 346 2246 538 
L 2246 2054 
Q 2246 2598 1920 2598 
Q 1690 2598 1472 2381 
Q 1363 2272 1363 2227 
L 1363 538 
Q 1363 352 1430 265 
Q 1498 179 1670 154 
L 1670 0 
L 134 0 
L 134 154 
Q 346 198 410 275 
Q 474 352 474 557 
L 474 2406 
Q 474 2611 410 2688 
Q 346 2765 134 2797 
L 134 2950 
L 1357 2950 
L 1357 2470 
L 1363 2470 
Q 1677 3027 2272 3027 
Q 2669 3027 2902 2780 
Q 3136 2534 3136 2118 
L 3136 538 
Q 3136 320 3200 243 
Q 3264 166 3450 154 
L 3450 0 
z
" transform="scale(0.015625)"/>
      <path id="STIXGeneral-Bold-56" d="M 2176 2086 
L 2016 2086 
Q 1894 2445 1715 2611 
Q 1498 2816 1235 2816 
Q 1056 2816 934 2710 
Q 813 2605 813 2445 
Q 813 2278 957 2147 
Q 1101 2016 1427 1882 
Q 1907 1683 2108 1452 
Q 2310 1222 2310 883 
Q 2310 454 2035 182 
Q 1760 -90 1325 -90 
Q 992 -90 634 58 
Q 538 96 486 96 
Q 416 96 320 -83 
L 160 -83 
L 160 973 
L 339 973 
Q 544 128 1216 128 
Q 1434 128 1565 243 
Q 1696 358 1696 544 
Q 1696 698 1555 829 
Q 1414 960 1082 1101 
Q 602 1306 387 1539 
Q 173 1773 173 2093 
Q 173 2496 457 2761 
Q 742 3027 1178 3027 
Q 1395 3027 1677 2931 
Q 1818 2886 1875 2886 
Q 1984 2886 2035 3014 
L 2176 3014 
L 2176 2086 
z
" transform="scale(0.015625)"/>
      <path id="STIXGeneral-Bold-3" transform="scale(0.015625)"/>
      <path id="STIXGeneral-Bold-26" d="M 4205 973 
L 4397 813 
Q 3968 282 3549 80 
Q 3130 -122 2554 -122 
Q 1536 -122 925 496 
Q 314 1114 314 2067 
Q 314 3091 938 3756 
Q 1562 4422 2534 4422 
Q 2989 4422 3533 4198 
Q 3738 4109 3827 4109 
Q 3917 4109 3977 4169 
Q 4038 4230 4109 4403 
L 4282 4403 
L 4282 2899 
L 4122 2899 
Q 3981 3296 3693 3635 
Q 3213 4211 2624 4211 
Q 2106 4211 1776 3676 
Q 1446 3142 1446 2208 
Q 1446 1216 1792 672 
Q 1933 454 2192 320 
Q 2451 186 2733 186 
Q 3142 186 3539 403 
Q 3802 550 4205 973 
z
" transform="scale(0.015625)"/>
      <path id="STIXGeneral-Bold-52" d="M 3046 1466 
Q 3046 794 2633 352 
Q 2221 -90 1600 -90 
Q 992 -90 576 348 
Q 160 787 160 1459 
Q 160 2157 573 2592 
Q 986 3027 1626 3027 
Q 2234 3027 2640 2585 
Q 3046 2144 3046 1466 
z
M 2106 1395 
Q 2106 2214 1997 2521 
Q 1888 2829 1606 2829 
Q 1312 2829 1206 2525 
Q 1101 2221 1101 1395 
Q 1101 698 1216 403 
Q 1331 109 1606 109 
Q 1882 109 1994 393 
Q 2106 678 2106 1395 
z
" transform="scale(0.015625)"/>
      <path id="STIXGeneral-Bold-50" d="M 5210 0 
L 3693 0 
L 3693 154 
Q 3872 166 3936 246 
Q 4000 326 4000 531 
L 4000 1990 
Q 4000 2598 3661 2598 
Q 3475 2598 3290 2438 
Q 3232 2394 3174 2323 
Q 3117 2253 3117 2227 
L 3117 531 
Q 3117 346 3181 259 
Q 3245 173 3411 154 
L 3411 0 
L 1926 0 
L 1926 154 
Q 2099 166 2163 249 
Q 2227 333 2227 531 
L 2227 2067 
Q 2227 2355 2147 2476 
Q 2067 2598 1882 2598 
Q 1760 2598 1552 2454 
Q 1344 2310 1344 2202 
L 1344 531 
Q 1344 346 1405 262 
Q 1466 179 1632 154 
L 1632 0 
L 102 0 
L 102 154 
Q 314 192 384 272 
Q 454 352 454 550 
L 454 2387 
Q 454 2611 384 2688 
Q 314 2765 96 2797 
L 96 2950 
L 1325 2950 
L 1325 2470 
L 1344 2470 
Q 1530 2765 1744 2896 
Q 1958 3027 2266 3027 
Q 2566 3027 2752 2899 
Q 2938 2771 3085 2470 
Q 3334 2778 3542 2902 
Q 3750 3027 4026 3027 
Q 4422 3027 4656 2784 
Q 4890 2541 4890 2118 
L 4890 531 
Q 4890 326 4957 243 
Q 5024 160 5210 154 
L 5210 0 
z
" transform="scale(0.015625)"/>
      <path id="STIXGeneral-Bold-53" d="M 1357 2950 
L 1357 2509 
Q 1517 2790 1712 2908 
Q 1907 3027 2195 3027 
Q 2739 3027 3046 2659 
Q 3354 2291 3354 1594 
Q 3354 838 3024 377 
Q 2694 -83 2125 -83 
Q 1907 -83 1753 -3 
Q 1600 77 1370 301 
L 1370 -506 
Q 1370 -838 1475 -992 
Q 1581 -1146 1862 -1158 
L 1862 -1312 
L 122 -1312 
L 122 -1158 
Q 346 -1120 413 -1040 
Q 480 -960 480 -755 
L 480 2381 
Q 480 2592 409 2678 
Q 339 2765 128 2797 
L 128 2950 
L 1357 2950 
z
M 1370 2214 
L 1370 685 
Q 1446 499 1577 384 
Q 1709 269 1862 269 
Q 2406 269 2406 1498 
Q 2406 2662 1920 2662 
Q 1683 2662 1485 2426 
Q 1370 2291 1370 2214 
z
" transform="scale(0.015625)"/>
      <path id="STIXGeneral-Bold-44" d="M 3027 410 
L 3123 275 
Q 2784 -90 2406 -90 
Q 2170 -90 2051 9 
Q 1933 109 1882 352 
Q 1395 -90 864 -90 
Q 544 -90 352 80 
Q 160 250 160 589 
Q 160 1018 589 1306 
Q 909 1517 1875 1792 
L 1875 2227 
Q 1875 2541 1756 2681 
Q 1638 2822 1357 2822 
Q 1178 2822 1059 2758 
Q 941 2694 941 2586 
Q 941 2515 1011 2438 
Q 1133 2291 1133 2170 
Q 1133 2003 1011 1894 
Q 890 1786 698 1786 
Q 499 1786 390 1901 
Q 282 2016 282 2221 
Q 282 2598 618 2812 
Q 954 3027 1504 3027 
Q 2093 3027 2425 2803 
Q 2758 2579 2758 2170 
L 2758 499 
Q 2758 320 2893 320 
Q 2938 320 2963 346 
L 3027 410 
z
M 1875 621 
L 1875 1568 
Q 1094 1350 1094 794 
Q 1094 589 1187 477 
Q 1280 365 1427 365 
Q 1696 365 1875 621 
z
" transform="scale(0.015625)"/>
      <path id="STIXGeneral-Bold-55" d="M 1395 2950 
L 1395 2426 
Q 1619 2752 1817 2889 
Q 2016 3027 2259 3027 
Q 2483 3027 2630 2883 
Q 2778 2739 2778 2522 
Q 2778 2330 2666 2208 
Q 2554 2086 2374 2086 
Q 2138 2086 1990 2330 
Q 1901 2477 1811 2477 
Q 1645 2477 1533 2285 
Q 1421 2093 1421 1811 
L 1421 678 
Q 1421 371 1507 272 
Q 1594 173 1882 154 
L 1882 0 
L 186 0 
L 186 154 
Q 397 192 464 265 
Q 531 339 531 538 
L 531 2387 
Q 531 2611 460 2688 
Q 390 2765 179 2797 
L 179 2950 
L 1395 2950 
z
" transform="scale(0.015625)"/>
     </defs>
     <use xlink:href="#STIXGeneral-Bold-28"/>
     <use xlink:href="#STIXGeneral-Bold-587" transform="translate(66.703125 0)"/>
     <use xlink:href="#STIXGeneral-Bold-48" transform="translate(127.703125 0)"/>
     <use xlink:href="#STIXGeneral-Bold-46" transform="translate(172.109375 0)"/>
     <use xlink:href="#STIXGeneral-Bold-57" transform="translate(216.515625 0)"/>
     <use xlink:href="#STIXGeneral-Bold-4c" transform="translate(249.8125 0)"/>
     <use xlink:href="#STIXGeneral-Bold-59" transform="translate(277.609375 0)"/>
     <use xlink:href="#STIXGeneral-Bold-48" transform="translate(325.3125 0)"/>
     <use xlink:href="#STIXGeneral-Bold-51" transform="translate(369.71875 0)"/>
     <use xlink:href="#STIXGeneral-Bold-48" transform="translate(425.3125 0)"/>
     <use xlink:href="#STIXGeneral-Bold-56" transform="translate(469.71875 0)"/>
     <use xlink:href="#STIXGeneral-Bold-56" transform="translate(508.625 0)"/>
     <use xlink:href="#STIXGeneral-Bold-3" transform="translate(547.53125 0)"/>
     <use xlink:href="#STIXGeneral-Bold-26" transform="translate(572.53125 0)"/>
     <use xlink:href="#STIXGeneral-Bold-52" transform="translate(644.734375 0)"/>
     <use xlink:href="#STIXGeneral-Bold-50" transform="translate(694.734375 0)"/>
     <use xlink:href="#STIXGeneral-Bold-53" transform="translate(776.4375 0)"/>
     <use xlink:href="#STIXGeneral-Bold-44" transform="translate(832.03125 0)"/>
     <use xlink:href="#STIXGeneral-Bold-55" transform="translate(882.03125 0)"/>
     <use xlink:href="#STIXGeneral-Bold-4c" transform="translate(927.140625 0)"/>
     <use xlink:href="#STIXGeneral-Bold-56" transform="translate(954.9375 0)"/>
     <use xlink:href="#STIXGeneral-Bold-52" transform="translate(993.84375 0)"/>
     <use xlink:href="#STIXGeneral-Bold-51" transform="translate(1043.84375 0)"/>
    </g>
    <!-- (With Isolation / WI) -->
    <g transform="translate(140.259688 31.265) scale(0.11 -0.11)">
     <defs>
      <path id="STIXGeneral-Bold-b" d="M 1958 -896 
L 1958 -1075 
Q 1485 -794 1235 -566 
Q 986 -339 736 19 
Q 294 653 294 1658 
Q 294 2925 1133 3834 
Q 1318 4032 1491 4157 
Q 1664 4282 1958 4442 
L 1958 4269 
Q 1338 3757 1178 3267 
Q 1018 2778 1018 1651 
Q 1018 614 1197 108 
Q 1376 -397 1958 -896 
z
" transform="scale(0.015625)"/>
      <path id="STIXGeneral-Bold-3a" d="M 6278 4326 
L 6278 4166 
Q 5958 4134 5837 3757 
L 4557 -96 
L 4384 -96 
L 3290 2957 
L 2099 -96 
L 1920 -96 
L 563 3757 
Q 480 3994 403 4064 
Q 326 4134 122 4166 
L 122 4326 
L 2003 4326 
L 2003 4166 
Q 1754 4147 1674 4092 
Q 1594 4038 1594 3898 
Q 1594 3814 1638 3686 
L 2406 1357 
L 3162 3328 
L 2938 3942 
Q 2861 4147 2477 4166 
L 2477 4326 
L 4474 4326 
L 4474 4166 
L 4390 4160 
Q 4179 4147 4096 4096 
Q 4013 4045 4013 3930 
Q 4013 3846 4102 3571 
L 4794 1421 
L 5510 3616 
Q 5555 3744 5555 3885 
Q 5555 4032 5462 4093 
Q 5370 4154 5114 4166 
L 5114 4326 
L 6278 4326 
z
" transform="scale(0.015625)"/>
      <path id="STIXGeneral-Bold-4b" d="M 3418 0 
L 1920 0 
L 1920 154 
Q 2080 173 2147 259 
Q 2214 346 2214 544 
L 2214 1978 
Q 2214 2323 2144 2460 
Q 2074 2598 1888 2598 
Q 1658 2598 1440 2381 
Q 1331 2272 1331 2227 
L 1331 544 
Q 1331 346 1395 262 
Q 1459 179 1638 154 
L 1638 0 
L 102 0 
L 102 154 
Q 333 198 387 256 
Q 442 314 442 570 
L 442 3782 
Q 442 4006 384 4067 
Q 326 4128 96 4173 
L 96 4326 
L 1331 4326 
L 1331 2534 
Q 1747 3027 2272 3027 
Q 2656 3027 2880 2784 
Q 3104 2541 3104 2157 
L 3104 557 
Q 3104 339 3177 246 
Q 3251 154 3418 154 
L 3418 0 
z
" transform="scale(0.015625)"/>
      <path id="STIXGeneral-Bold-2c" d="M 2368 0 
L 128 0 
L 128 160 
Q 493 192 608 288 
Q 723 384 723 678 
L 723 3686 
Q 723 3949 601 4045 
Q 480 4141 128 4166 
L 128 4326 
L 2368 4326 
L 2368 4166 
Q 2010 4154 1885 4054 
Q 1760 3955 1760 3686 
L 1760 678 
Q 1760 371 1878 278 
Q 1997 186 2368 160 
L 2368 0 
z
" transform="scale(0.015625)"/>
      <path id="STIXGeneral-Bold-4f" d="M 1638 0 
L 102 0 
L 102 154 
Q 429 179 429 557 
L 429 3757 
Q 429 4147 96 4173 
L 96 4326 
L 1318 4326 
L 1318 557 
Q 1318 346 1395 253 
Q 1472 160 1638 154 
L 1638 0 
z
" transform="scale(0.015625)"/>
      <path id="STIXGeneral-Bold-12" d="M 1933 4422 
L 422 -122 
L -154 -122 
L 1357 4422 
L 1933 4422 
z
" transform="scale(0.015625)"/>
      <path id="STIXGeneral-Bold-c" d="M 173 4262 
L 173 4442 
Q 653 4154 912 3910 
Q 1171 3667 1395 3302 
Q 1837 2566 1837 1709 
Q 1837 442 998 -467 
Q 813 -666 640 -790 
Q 467 -915 173 -1075 
L 173 -902 
Q 397 -730 550 -579 
Q 704 -429 813 -243 
Q 922 -58 979 102 
Q 1037 262 1069 534 
Q 1101 806 1107 1049 
Q 1114 1293 1114 1715 
Q 1114 2822 950 3296 
Q 787 3770 173 4262 
z
" transform="scale(0.015625)"/>
     </defs>
     <use xlink:href="#STIXGeneral-Bold-b"/>
     <use xlink:href="#STIXGeneral-Bold-3a" transform="translate(33.296875 0)"/>
     <use xlink:href="#STIXGeneral-Bold-4c" transform="translate(132.296875 0)"/>
     <use xlink:href="#STIXGeneral-Bold-57" transform="translate(160.09375 0)"/>
     <use xlink:href="#STIXGeneral-Bold-4b" transform="translate(193.296875 0)"/>
     <use xlink:href="#STIXGeneral-Bold-3" transform="translate(248.890625 0)"/>
     <use xlink:href="#STIXGeneral-Bold-2c" transform="translate(273.890625 0)"/>
     <use xlink:href="#STIXGeneral-Bold-56" transform="translate(312.796875 0)"/>
     <use xlink:href="#STIXGeneral-Bold-52" transform="translate(351.703125 0)"/>
     <use xlink:href="#STIXGeneral-Bold-4f" transform="translate(401.703125 0)"/>
     <use xlink:href="#STIXGeneral-Bold-44" transform="translate(429.5 0)"/>
     <use xlink:href="#STIXGeneral-Bold-57" transform="translate(479.5 0)"/>
     <use xlink:href="#STIXGeneral-Bold-4c" transform="translate(512.796875 0)"/>
     <use xlink:href="#STIXGeneral-Bold-52" transform="translate(540.59375 0)"/>
     <use xlink:href="#STIXGeneral-Bold-51" transform="translate(590.59375 0)"/>
     <use xlink:href="#STIXGeneral-Bold-3" transform="translate(646.1875 0)"/>
     <use xlink:href="#STIXGeneral-Bold-12" transform="translate(671.1875 0)"/>
     <use xlink:href="#STIXGeneral-Bold-3" transform="translate(698.984375 0)"/>
     <use xlink:href="#STIXGeneral-Bold-3a" transform="translate(723.984375 0)"/>
     <use xlink:href="#STIXGeneral-Bold-2c" transform="translate(823.984375 0)"/>
     <use xlink:href="#STIXGeneral-Bold-c" transform="translate(862.890625 0)"/>
    </g>
   </g>
  </g>
 </g>
 <defs>
  <clipPath id="p439e7886dc">
   <rect x="36.1" y="43.265" width="306.9" height="249.48"/>
  </clipPath>
 </defs>
</svg>
